%TF.GenerationSoftware,KiCad,Pcbnew,9.0.6*%
%TF.CreationDate,2025-12-24T16:29:09-05:00*%
%TF.ProjectId,BrainFuino,42726169-6e46-4756-996e-6f2e6b696361,rev?*%
%TF.SameCoordinates,Original*%
%TF.FileFunction,Soldermask,Top*%
%TF.FilePolarity,Negative*%
%FSLAX46Y46*%
G04 Gerber Fmt 4.6, Leading zero omitted, Abs format (unit mm)*
G04 Created by KiCad (PCBNEW 9.0.6) date 2025-12-24 16:29:09*
%MOMM*%
%LPD*%
G01*
G04 APERTURE LIST*
G04 Aperture macros list*
%AMRoundRect*
0 Rectangle with rounded corners*
0 $1 Rounding radius*
0 $2 $3 $4 $5 $6 $7 $8 $9 X,Y pos of 4 corners*
0 Add a 4 corners polygon primitive as box body*
4,1,4,$2,$3,$4,$5,$6,$7,$8,$9,$2,$3,0*
0 Add four circle primitives for the rounded corners*
1,1,$1+$1,$2,$3*
1,1,$1+$1,$4,$5*
1,1,$1+$1,$6,$7*
1,1,$1+$1,$8,$9*
0 Add four rect primitives between the rounded corners*
20,1,$1+$1,$2,$3,$4,$5,0*
20,1,$1+$1,$4,$5,$6,$7,0*
20,1,$1+$1,$6,$7,$8,$9,0*
20,1,$1+$1,$8,$9,$2,$3,0*%
G04 Aperture macros list end*
%ADD10RoundRect,0.101600X0.500000X-0.550000X0.500000X0.550000X-0.500000X0.550000X-0.500000X-0.550000X0*%
%ADD11RoundRect,0.101600X-0.550000X-0.500000X0.550000X-0.500000X0.550000X0.500000X-0.550000X0.500000X0*%
%ADD12RoundRect,0.101600X0.114300X-0.711200X0.114300X0.711200X-0.114300X0.711200X-0.114300X-0.711200X0*%
%ADD13RoundRect,0.101600X-0.500000X0.550000X-0.500000X-0.550000X0.500000X-0.550000X0.500000X0.550000X0*%
%ADD14RoundRect,0.180480X0.421120X-0.421120X0.421120X0.421120X-0.421120X0.421120X-0.421120X-0.421120X0*%
%ADD15RoundRect,0.101600X0.550000X0.500000X-0.550000X0.500000X-0.550000X-0.500000X0.550000X-0.500000X0*%
%ADD16RoundRect,0.101600X-0.711200X-0.114300X0.711200X-0.114300X0.711200X0.114300X-0.711200X0.114300X0*%
%ADD17RoundRect,0.101600X0.742462X-0.035355X-0.035355X0.742462X-0.742462X0.035355X0.035355X-0.742462X0*%
%ADD18RoundRect,0.101600X-0.035355X-0.742462X0.742462X0.035355X0.035355X0.742462X-0.742462X-0.035355X0*%
%ADD19RoundRect,0.101600X0.035355X0.742462X-0.742462X-0.035355X-0.035355X-0.742462X0.742462X0.035355X0*%
%ADD20RoundRect,0.101600X-0.315000X-0.415000X0.315000X-0.415000X0.315000X0.415000X-0.315000X0.415000X0*%
%ADD21RoundRect,0.101600X-0.698500X0.228600X-0.698500X-0.228600X0.698500X-0.228600X0.698500X0.228600X0*%
%ADD22RoundRect,0.101600X-0.698500X-0.800100X0.698500X-0.800100X0.698500X0.800100X-0.698500X0.800100X0*%
%ADD23RoundRect,0.101600X-0.673100X0.723900X-0.673100X-0.723900X0.673100X-0.723900X0.673100X0.723900X0*%
%ADD24RoundRect,0.101600X-0.952500X0.952500X-0.952500X-0.952500X0.952500X-0.952500X0.952500X0.952500X0*%
%ADD25RoundRect,0.101600X0.275000X0.600000X-0.275000X0.600000X-0.275000X-0.600000X0.275000X-0.600000X0*%
%ADD26RoundRect,0.101600X-0.742462X0.035355X0.035355X-0.742462X0.742462X-0.035355X-0.035355X0.742462X0*%
%ADD27C,2.082800*%
%ADD28RoundRect,0.180480X-0.421120X-0.421120X0.421120X-0.421120X0.421120X0.421120X-0.421120X0.421120X0*%
%ADD29RoundRect,0.101600X-0.150000X0.725000X-0.150000X-0.725000X0.150000X-0.725000X0.150000X0.725000X0*%
%ADD30RoundRect,0.101600X0.775000X-0.650000X0.775000X0.650000X-0.775000X0.650000X-0.775000X-0.650000X0*%
%ADD31RoundRect,0.101600X0.627557X-0.415425X-0.415425X0.627557X-0.627557X0.415425X0.415425X-0.627557X0*%
%ADD32RoundRect,0.101600X0.415425X0.627557X-0.627557X-0.415425X-0.415425X-0.627557X0.627557X0.415425X0*%
%ADD33C,2.133600*%
%ADD34RoundRect,0.101600X-0.415425X-0.627557X0.627557X0.415425X0.415425X0.627557X-0.627557X-0.415425X0*%
G04 APERTURE END LIST*
D10*
%TO.C,R3*%
X119965100Y-129602600D03*
X119965100Y-127902600D03*
%TD*%
D11*
%TO.C,C9*%
X126100100Y-89128600D03*
X127800100Y-89128600D03*
%TD*%
D12*
%TO.C,IC2*%
X167103100Y-105727500D03*
X167603100Y-105727500D03*
X168103100Y-105727500D03*
X168603100Y-105727500D03*
X169103100Y-105727500D03*
X169603100Y-105727500D03*
X170103100Y-105727500D03*
X170603100Y-105727500D03*
X171103100Y-105727500D03*
X171603100Y-105727500D03*
X172103100Y-105727500D03*
X172603100Y-105727500D03*
X173103100Y-105727500D03*
X173603100Y-105727500D03*
X174103100Y-105727500D03*
X174603100Y-105727500D03*
X174603100Y-92849700D03*
X174103100Y-92849700D03*
X173603100Y-92849700D03*
X173103100Y-92849700D03*
X172603100Y-92849700D03*
X172103100Y-92849700D03*
X171603100Y-92849700D03*
X171103100Y-92849700D03*
X170603100Y-92849700D03*
X170103100Y-92849700D03*
X169603100Y-92849700D03*
X169103100Y-92849700D03*
X168603100Y-92849700D03*
X168103100Y-92849700D03*
X167603100Y-92849700D03*
X167103100Y-92849700D03*
%TD*%
D11*
%TO.C,R6*%
X119761900Y-121767600D03*
X121461900Y-121767600D03*
%TD*%
D10*
%TO.C,C4*%
X125895100Y-83501600D03*
X125895100Y-81801600D03*
%TD*%
D13*
%TO.C,R4*%
X180251100Y-116853600D03*
X180251100Y-118553600D03*
%TD*%
D14*
%TO.C,D3*%
X178130900Y-91567000D03*
X176376900Y-91567000D03*
%TD*%
D15*
%TO.C,R1*%
X117601100Y-87223600D03*
X115901100Y-87223600D03*
%TD*%
D16*
%TO.C,IC3*%
X141757400Y-87283600D03*
X141757400Y-87783600D03*
X141757400Y-88283600D03*
X141757400Y-88783600D03*
X141757400Y-89283600D03*
X141757400Y-89783600D03*
X141757400Y-90283600D03*
X141757400Y-90783600D03*
X141757400Y-91283600D03*
X141757400Y-91783600D03*
X141757400Y-92283600D03*
X141757400Y-92783600D03*
X141757400Y-93283600D03*
X141757400Y-93783600D03*
X141757400Y-94283600D03*
X141757400Y-94783600D03*
X155244800Y-94783600D03*
X155244800Y-94283600D03*
X155244800Y-93783600D03*
X155244800Y-93283600D03*
X155244800Y-92783600D03*
X155244800Y-92283600D03*
X155244800Y-91783600D03*
X155244800Y-91283600D03*
X155244800Y-90783600D03*
X155244800Y-90283600D03*
X155244800Y-89783600D03*
X155244800Y-89283600D03*
X155244800Y-88783600D03*
X155244800Y-88283600D03*
X155244800Y-87783600D03*
X155244800Y-87283600D03*
%TD*%
D11*
%TO.C,C8*%
X119750100Y-104876600D03*
X121450100Y-104876600D03*
%TD*%
D17*
%TO.C,C20*%
X144276141Y-108424041D03*
X143074059Y-107221959D03*
%TD*%
D15*
%TO.C,C28*%
X125717300Y-100076000D03*
X124017300Y-100076000D03*
%TD*%
D18*
%TO.C,C10*%
X133207059Y-88332641D03*
X134409141Y-87130559D03*
%TD*%
D19*
%TO.C,C15*%
X134409141Y-127516559D03*
X133207059Y-128718641D03*
%TD*%
D20*
%TO.C,D1*%
X119171100Y-99923600D03*
X116871100Y-99923600D03*
%TD*%
D21*
%TO.C,J1*%
X118859300Y-92269000D03*
X118859300Y-92919000D03*
X118859300Y-93569000D03*
X118859300Y-94219000D03*
X118859300Y-94869000D03*
D22*
X118478300Y-90368600D03*
X118478300Y-96769400D03*
D23*
X115633500Y-90144000D03*
X115633500Y-96994000D03*
D24*
X115633500Y-92369000D03*
X115633500Y-94769000D03*
%TD*%
D18*
%TO.C,C17*%
X131556059Y-105477641D03*
X132758141Y-104275559D03*
%TD*%
D15*
%TO.C,C27*%
X139865100Y-91033600D03*
X138165100Y-91033600D03*
%TD*%
D25*
%TO.C,IC6*%
X117574100Y-102814500D03*
X116624100Y-102814500D03*
X115674100Y-102814500D03*
X115674100Y-105414700D03*
X117574100Y-105414700D03*
%TD*%
D19*
%TO.C,C7*%
X155999141Y-96147559D03*
X154797059Y-97349641D03*
%TD*%
D26*
%TO.C,C11*%
X143367059Y-117356559D03*
X144569141Y-118558641D03*
%TD*%
D27*
%TO.C,J2*%
X116751100Y-129133600D03*
X116751100Y-126593600D03*
X116751100Y-124053600D03*
%TD*%
D10*
%TO.C,R5*%
X178828700Y-88022800D03*
X178828700Y-86322800D03*
%TD*%
D19*
%TO.C,C21*%
X149991141Y-116594559D03*
X148789059Y-117796641D03*
%TD*%
D13*
%TO.C,R2*%
X116282100Y-119647600D03*
X116282100Y-121347600D03*
%TD*%
D26*
%TO.C,C25*%
X165553059Y-107577559D03*
X166755141Y-108779641D03*
%TD*%
%TO.C,C19*%
X159457059Y-97163559D03*
X160659141Y-98365641D03*
%TD*%
D28*
%TO.C,D4*%
X121831100Y-98260600D03*
X121831100Y-96506600D03*
%TD*%
D29*
%TO.C,IC5*%
X135201100Y-91068600D03*
X134701100Y-91068600D03*
X134201100Y-91068600D03*
X133701100Y-91068600D03*
X133201100Y-91068600D03*
X132701100Y-91068600D03*
X132201100Y-91068600D03*
X131701100Y-91068600D03*
X131201100Y-91068600D03*
X130701100Y-91068600D03*
X130201100Y-91068600D03*
X129701100Y-91068600D03*
X129201100Y-91068600D03*
X128701100Y-91068600D03*
X128201100Y-91068600D03*
X127701100Y-91068600D03*
X127201100Y-91068600D03*
X126701100Y-91068600D03*
X126201100Y-91068600D03*
X125701100Y-91068600D03*
X125201100Y-91068600D03*
X124701100Y-91068600D03*
X124201100Y-91068600D03*
X123701100Y-91068600D03*
X123701100Y-98618600D03*
X124201100Y-98618600D03*
X124701100Y-98618600D03*
X125201100Y-98618600D03*
X125701100Y-98618600D03*
X126201100Y-98618600D03*
X126701100Y-98618600D03*
X127201100Y-98618600D03*
X127701100Y-98618600D03*
X128201100Y-98618600D03*
X128701100Y-98618600D03*
X129201100Y-98618600D03*
X129701100Y-98618600D03*
X130201100Y-98618600D03*
X130701100Y-98618600D03*
X131201100Y-98618600D03*
X131701100Y-98618600D03*
X132201100Y-98618600D03*
X132701100Y-98618600D03*
X133201100Y-98618600D03*
X133701100Y-98618600D03*
X134201100Y-98618600D03*
X134701100Y-98618600D03*
X135201100Y-98618600D03*
%TD*%
D20*
%TO.C,D2*%
X139491100Y-129133600D03*
X137191100Y-129133600D03*
%TD*%
D13*
%TO.C,C29*%
X136602100Y-97168600D03*
X136602100Y-98868600D03*
%TD*%
D30*
%TO.C,S1*%
X116459100Y-84901600D03*
X124409100Y-84901600D03*
X116459100Y-80401600D03*
X124409100Y-80401600D03*
%TD*%
D31*
%TO.C,IC1*%
X156080052Y-117638833D03*
X156433605Y-117285280D03*
X156787158Y-116931726D03*
X157140712Y-116578173D03*
X157494265Y-116224619D03*
X157847819Y-115871066D03*
X158201372Y-115517513D03*
X158554925Y-115163959D03*
X158908479Y-114810406D03*
X159262032Y-114456852D03*
X159615585Y-114103299D03*
X159969139Y-113749746D03*
X160322692Y-113396192D03*
X160676246Y-113042639D03*
X161029799Y-112689085D03*
X161383352Y-112335532D03*
X161736906Y-111981979D03*
X162090459Y-111628425D03*
X162444013Y-111274872D03*
X162797566Y-110921319D03*
X163151119Y-110567765D03*
X163504673Y-110214212D03*
X163858226Y-109860658D03*
X164211780Y-109507105D03*
X164565333Y-109153552D03*
D32*
X164565333Y-106695648D03*
X164211780Y-106342095D03*
X163858226Y-105988542D03*
X163504673Y-105634988D03*
X163151119Y-105281435D03*
X162797566Y-104927881D03*
X162444013Y-104574328D03*
X162090459Y-104220775D03*
X161736906Y-103867221D03*
X161383352Y-103513668D03*
X161029799Y-103160115D03*
X160676246Y-102806561D03*
X160322692Y-102453008D03*
X159969139Y-102099454D03*
X159615585Y-101745901D03*
X159262032Y-101392348D03*
X158908479Y-101038794D03*
X158554925Y-100685241D03*
X158201372Y-100331687D03*
X157847819Y-99978134D03*
X157494265Y-99624581D03*
X157140712Y-99271027D03*
X156787158Y-98917474D03*
X156433605Y-98563920D03*
X156080052Y-98210367D03*
D31*
X153622148Y-98210367D03*
X153268595Y-98563920D03*
X152915042Y-98917474D03*
X152561488Y-99271027D03*
X152207935Y-99624581D03*
X151854381Y-99978134D03*
X151500828Y-100331687D03*
X151147275Y-100685241D03*
X150793721Y-101038794D03*
X150440168Y-101392348D03*
X150086615Y-101745901D03*
X149733061Y-102099454D03*
X149379508Y-102453008D03*
X149025954Y-102806561D03*
X148672401Y-103160115D03*
X148318848Y-103513668D03*
X147965294Y-103867221D03*
X147611741Y-104220775D03*
X147258187Y-104574328D03*
X146904634Y-104927881D03*
X146551081Y-105281435D03*
X146197527Y-105634988D03*
X145843974Y-105988542D03*
X145490420Y-106342095D03*
X145136867Y-106695648D03*
D32*
X145136867Y-109153552D03*
X145490420Y-109507105D03*
X145843974Y-109860658D03*
X146197527Y-110214212D03*
X146551081Y-110567765D03*
X146904634Y-110921319D03*
X147258187Y-111274872D03*
X147611741Y-111628425D03*
X147965294Y-111981979D03*
X148318848Y-112335532D03*
X148672401Y-112689085D03*
X149025954Y-113042639D03*
X149379508Y-113396192D03*
X149733061Y-113749746D03*
X150086615Y-114103299D03*
X150440168Y-114456852D03*
X150793721Y-114810406D03*
X151147275Y-115163959D03*
X151500828Y-115517513D03*
X151854381Y-115871066D03*
X152207935Y-116224619D03*
X152561488Y-116578173D03*
X152915042Y-116931726D03*
X153268595Y-117285280D03*
X153622148Y-117638833D03*
%TD*%
D13*
%TO.C,C26*%
X170511100Y-107582600D03*
X170511100Y-109282600D03*
%TD*%
D26*
%TO.C,C3*%
X160981059Y-95639559D03*
X162183141Y-96841641D03*
%TD*%
D17*
%TO.C,C13*%
X124884141Y-127575641D03*
X123682059Y-126373559D03*
%TD*%
D26*
%TO.C,C16*%
X142097059Y-118626559D03*
X143299141Y-119828641D03*
%TD*%
D27*
%TO.C,NRST0*%
X123329700Y-123317000D03*
%TD*%
D11*
%TO.C,C1*%
X119711100Y-102463600D03*
X121411100Y-102463600D03*
%TD*%
%TO.C,C2*%
X118441100Y-107543600D03*
X120141100Y-107543600D03*
%TD*%
D17*
%TO.C,C6*%
X143361741Y-104741041D03*
X142159659Y-103538959D03*
%TD*%
D33*
%TO.C,B1*%
X149631093Y-129133600D03*
X152171093Y-129133600D03*
X169951093Y-129133600D03*
X164871093Y-129133600D03*
X137947093Y-80873600D03*
X154711093Y-129133600D03*
X157251093Y-129133600D03*
X140487093Y-80873600D03*
X180251099Y-113943612D03*
X155727093Y-80873600D03*
X153187093Y-80873600D03*
X150647093Y-80873600D03*
X148107093Y-80873600D03*
X145567093Y-80873600D03*
X143027093Y-80873600D03*
X135407093Y-80873600D03*
X132867093Y-80873600D03*
X172491093Y-129133600D03*
X175031093Y-129133600D03*
X144551093Y-129133600D03*
X142011093Y-129133600D03*
X167411093Y-129133600D03*
X177571093Y-80873600D03*
X175031093Y-80873600D03*
X172491093Y-80873600D03*
X169951093Y-80873600D03*
X167411093Y-80873600D03*
X164871093Y-80873600D03*
X162331093Y-80873600D03*
X159791093Y-80873600D03*
X177571093Y-129133600D03*
X147091093Y-129133600D03*
X180251099Y-103783613D03*
X180251099Y-108863612D03*
X180251099Y-111403612D03*
X180251099Y-106323612D03*
X180251099Y-101243613D03*
X159791093Y-129133600D03*
%TD*%
D15*
%TO.C,C14*%
X118910100Y-113842800D03*
X117210100Y-113842800D03*
%TD*%
D34*
%TO.C,IC4*%
X121006867Y-117662552D03*
X121360420Y-118016105D03*
X121713974Y-118369658D03*
X122067527Y-118723212D03*
X122421081Y-119076765D03*
X122774634Y-119430319D03*
X123128187Y-119783872D03*
X123481741Y-120137425D03*
X123835294Y-120490979D03*
X124188848Y-120844532D03*
X124542401Y-121198085D03*
X124895954Y-121551639D03*
X125249508Y-121905192D03*
X125603061Y-122258746D03*
X125956615Y-122612299D03*
X126310168Y-122965852D03*
X126663721Y-123319406D03*
X127017275Y-123672959D03*
X127370828Y-124026513D03*
X127724381Y-124380066D03*
X128077935Y-124733619D03*
X128431488Y-125087173D03*
X128785042Y-125440726D03*
X129138595Y-125794280D03*
X129492148Y-126147833D03*
D31*
X131950052Y-126147833D03*
X132303605Y-125794280D03*
X132657158Y-125440726D03*
X133010712Y-125087173D03*
X133364265Y-124733619D03*
X133717819Y-124380066D03*
X134071372Y-124026513D03*
X134424925Y-123672959D03*
X134778479Y-123319406D03*
X135132032Y-122965852D03*
X135485585Y-122612299D03*
X135839139Y-122258746D03*
X136192692Y-121905192D03*
X136546246Y-121551639D03*
X136899799Y-121198085D03*
X137253352Y-120844532D03*
X137606906Y-120490979D03*
X137960459Y-120137425D03*
X138314013Y-119783872D03*
X138667566Y-119430319D03*
X139021119Y-119076765D03*
X139374673Y-118723212D03*
X139728226Y-118369658D03*
X140081780Y-118016105D03*
X140435333Y-117662552D03*
D34*
X140435333Y-115204648D03*
X140081780Y-114851095D03*
X139728226Y-114497542D03*
X139374673Y-114143988D03*
X139021119Y-113790435D03*
X138667566Y-113436881D03*
X138314013Y-113083328D03*
X137960459Y-112729775D03*
X137606906Y-112376221D03*
X137253352Y-112022668D03*
X136899799Y-111669115D03*
X136546246Y-111315561D03*
X136192692Y-110962008D03*
X135839139Y-110608454D03*
X135485585Y-110254901D03*
X135132032Y-109901348D03*
X134778479Y-109547794D03*
X134424925Y-109194241D03*
X134071372Y-108840687D03*
X133717819Y-108487134D03*
X133364265Y-108133581D03*
X133010712Y-107780027D03*
X132657158Y-107426474D03*
X132303605Y-107072920D03*
X131950052Y-106719367D03*
D31*
X129492148Y-106719367D03*
X129138595Y-107072920D03*
X128785042Y-107426474D03*
X128431488Y-107780027D03*
X128077935Y-108133581D03*
X127724381Y-108487134D03*
X127370828Y-108840687D03*
X127017275Y-109194241D03*
X126663721Y-109547794D03*
X126310168Y-109901348D03*
X125956615Y-110254901D03*
X125603061Y-110608454D03*
X125249508Y-110962008D03*
X124895954Y-111315561D03*
X124542401Y-111669115D03*
X124188848Y-112022668D03*
X123835294Y-112376221D03*
X123481741Y-112729775D03*
X123128187Y-113083328D03*
X122774634Y-113436881D03*
X122421081Y-113790435D03*
X122067527Y-114143988D03*
X121713974Y-114497542D03*
X121360420Y-114851095D03*
X121006867Y-115204648D03*
%TD*%
D13*
%TO.C,C30*%
X115735100Y-107328600D03*
X115735100Y-109028600D03*
%TD*%
D27*
%TO.C,PL3C0*%
X165138100Y-118389400D03*
%TD*%
D18*
%TO.C,C12*%
X130286059Y-104207641D03*
X131488141Y-103005559D03*
%TD*%
D10*
%TO.C,C5*%
X150914100Y-97852600D03*
X150914100Y-96152600D03*
%TD*%
D18*
%TO.C,C22*%
X153183259Y-120819241D03*
X154385341Y-119617159D03*
%TD*%
D17*
%TO.C,C18*%
X126154141Y-126305641D03*
X124952059Y-125103559D03*
%TD*%
D11*
%TO.C,C23*%
X159716100Y-117703600D03*
X161416100Y-117703600D03*
%TD*%
%TO.C,C24*%
X165354900Y-111023400D03*
X167054900Y-111023400D03*
%TD*%
M02*
