%TF.GenerationSoftware,KiCad,Pcbnew,9.0.6*%
%TF.CreationDate,2025-12-24T16:29:09-05:00*%
%TF.ProjectId,BrainFuino,42726169-6e46-4756-996e-6f2e6b696361,rev?*%
%TF.SameCoordinates,Original*%
%TF.FileFunction,Soldermask,Bot*%
%TF.FilePolarity,Negative*%
%FSLAX46Y46*%
G04 Gerber Fmt 4.6, Leading zero omitted, Abs format (unit mm)*
G04 Created by KiCad (PCBNEW 9.0.6) date 2025-12-24 16:29:09*
%MOMM*%
%LPD*%
G01*
G04 APERTURE LIST*
%ADD10C,2.082800*%
%ADD11C,3.175000*%
%ADD12C,2.133600*%
G04 APERTURE END LIST*
D10*
%TO.C,J2*%
X116751100Y-129133600D03*
X116751100Y-126593600D03*
X116751100Y-124053600D03*
%TD*%
%TO.C,NRST0*%
X123329700Y-123317000D03*
%TD*%
D11*
%TO.C,B1*%
X128041093Y-129133600D03*
X129311093Y-80873600D03*
X180111093Y-96113600D03*
X180111093Y-124053600D03*
D12*
X149631093Y-129133600D03*
X152171093Y-129133600D03*
X169951093Y-129133600D03*
X164871093Y-129133600D03*
X137947093Y-80873600D03*
X154711093Y-129133600D03*
X157251093Y-129133600D03*
X140487093Y-80873600D03*
X180251099Y-113943612D03*
X155727093Y-80873600D03*
X153187093Y-80873600D03*
X150647093Y-80873600D03*
X148107093Y-80873600D03*
X145567093Y-80873600D03*
X143027093Y-80873600D03*
X135407093Y-80873600D03*
X132867093Y-80873600D03*
X172491093Y-129133600D03*
X175031093Y-129133600D03*
X144551093Y-129133600D03*
X142011093Y-129133600D03*
X167411093Y-129133600D03*
X177571093Y-80873600D03*
X175031093Y-80873600D03*
X172491093Y-80873600D03*
X169951093Y-80873600D03*
X167411093Y-80873600D03*
X164871093Y-80873600D03*
X162331093Y-80873600D03*
X159791093Y-80873600D03*
X177571093Y-129133600D03*
X147091093Y-129133600D03*
X180251099Y-103783613D03*
X180251099Y-108863612D03*
X180251099Y-111403612D03*
X180251099Y-106323612D03*
X180251099Y-101243613D03*
X159791093Y-129133600D03*
%TD*%
D10*
%TO.C,PL3C0*%
X165138100Y-118389400D03*
%TD*%
M02*
