%TF.GenerationSoftware,KiCad,Pcbnew,9.0.6*%
%TF.CreationDate,2026-02-22T20:48:50-08:00*%
%TF.ProjectId,BrainFuino,42726169-6e46-4756-996e-6f2e6b696361,rev?*%
%TF.SameCoordinates,Original*%
%TF.FileFunction,Legend,Bot*%
%TF.FilePolarity,Positive*%
%FSLAX46Y46*%
G04 Gerber Fmt 4.6, Leading zero omitted, Abs format (unit mm)*
G04 Created by KiCad (PCBNEW 9.0.6) date 2026-02-22 20:48:50*
%MOMM*%
%LPD*%
G01*
G04 APERTURE LIST*
%ADD10C,0.160000*%
%ADD11C,0.000000*%
%ADD12C,0.650000*%
%ADD13O,2.100000X1.000000*%
%ADD14O,1.600000X1.000000*%
%ADD15R,1.700000X1.700000*%
%ADD16C,1.700000*%
%ADD17C,1.879600*%
%ADD18C,3.175000*%
%ADD19C,1.930400*%
G04 APERTURE END LIST*
D10*
X159000000Y-84148704D02*
X128428059Y-84148704D01*
X159000000Y-100500000D02*
X128132400Y-100500000D01*
X127460700Y-124295738D02*
X128460700Y-124295738D01*
X128127367Y-123390977D02*
X127317843Y-123390977D01*
X127317843Y-123390977D02*
X127222605Y-123438596D01*
X127222605Y-123438596D02*
X127174986Y-123486215D01*
X127174986Y-123486215D02*
X127127367Y-123581453D01*
X127127367Y-123581453D02*
X127127367Y-123724310D01*
X127127367Y-123724310D02*
X127174986Y-123819548D01*
X127508320Y-123390977D02*
X127460700Y-123486215D01*
X127460700Y-123486215D02*
X127460700Y-123676691D01*
X127460700Y-123676691D02*
X127508320Y-123771929D01*
X127508320Y-123771929D02*
X127555939Y-123819548D01*
X127555939Y-123819548D02*
X127651177Y-123867167D01*
X127651177Y-123867167D02*
X127936891Y-123867167D01*
X127936891Y-123867167D02*
X128032129Y-123819548D01*
X128032129Y-123819548D02*
X128079748Y-123771929D01*
X128079748Y-123771929D02*
X128127367Y-123676691D01*
X128127367Y-123676691D02*
X128127367Y-123486215D01*
X128127367Y-123486215D02*
X128079748Y-123390977D01*
X128127367Y-122914786D02*
X127460700Y-122914786D01*
X128032129Y-122914786D02*
X128079748Y-122867167D01*
X128079748Y-122867167D02*
X128127367Y-122771929D01*
X128127367Y-122771929D02*
X128127367Y-122629072D01*
X128127367Y-122629072D02*
X128079748Y-122533834D01*
X128079748Y-122533834D02*
X127984510Y-122486215D01*
X127984510Y-122486215D02*
X127460700Y-122486215D01*
X127460700Y-121581453D02*
X127984510Y-121581453D01*
X127984510Y-121581453D02*
X128079748Y-121629072D01*
X128079748Y-121629072D02*
X128127367Y-121724310D01*
X128127367Y-121724310D02*
X128127367Y-121914786D01*
X128127367Y-121914786D02*
X128079748Y-122010024D01*
X127508320Y-121581453D02*
X127460700Y-121676691D01*
X127460700Y-121676691D02*
X127460700Y-121914786D01*
X127460700Y-121914786D02*
X127508320Y-122010024D01*
X127508320Y-122010024D02*
X127603558Y-122057643D01*
X127603558Y-122057643D02*
X127698796Y-122057643D01*
X127698796Y-122057643D02*
X127794034Y-122010024D01*
X127794034Y-122010024D02*
X127841653Y-121914786D01*
X127841653Y-121914786D02*
X127841653Y-121676691D01*
X127841653Y-121676691D02*
X127889272Y-121581453D01*
X127508320Y-120676691D02*
X127460700Y-120771929D01*
X127460700Y-120771929D02*
X127460700Y-120962405D01*
X127460700Y-120962405D02*
X127508320Y-121057643D01*
X127508320Y-121057643D02*
X127555939Y-121105262D01*
X127555939Y-121105262D02*
X127651177Y-121152881D01*
X127651177Y-121152881D02*
X127936891Y-121152881D01*
X127936891Y-121152881D02*
X128032129Y-121105262D01*
X128032129Y-121105262D02*
X128079748Y-121057643D01*
X128079748Y-121057643D02*
X128127367Y-120962405D01*
X128127367Y-120962405D02*
X128127367Y-120771929D01*
X128127367Y-120771929D02*
X128079748Y-120676691D01*
X127460700Y-120248119D02*
X128127367Y-120248119D01*
X128460700Y-120248119D02*
X128413081Y-120295738D01*
X128413081Y-120295738D02*
X128365462Y-120248119D01*
X128365462Y-120248119D02*
X128413081Y-120200500D01*
X128413081Y-120200500D02*
X128460700Y-120248119D01*
X128460700Y-120248119D02*
X128365462Y-120248119D01*
X127460700Y-119629072D02*
X127508320Y-119724310D01*
X127508320Y-119724310D02*
X127555939Y-119771929D01*
X127555939Y-119771929D02*
X127651177Y-119819548D01*
X127651177Y-119819548D02*
X127936891Y-119819548D01*
X127936891Y-119819548D02*
X128032129Y-119771929D01*
X128032129Y-119771929D02*
X128079748Y-119724310D01*
X128079748Y-119724310D02*
X128127367Y-119629072D01*
X128127367Y-119629072D02*
X128127367Y-119486215D01*
X128127367Y-119486215D02*
X128079748Y-119390977D01*
X128079748Y-119390977D02*
X128032129Y-119343358D01*
X128032129Y-119343358D02*
X127936891Y-119295739D01*
X127936891Y-119295739D02*
X127651177Y-119295739D01*
X127651177Y-119295739D02*
X127555939Y-119343358D01*
X127555939Y-119343358D02*
X127508320Y-119390977D01*
X127508320Y-119390977D02*
X127460700Y-119486215D01*
X127460700Y-119486215D02*
X127460700Y-119629072D01*
X132656641Y-109759355D02*
X132656641Y-108759355D01*
X132656641Y-108759355D02*
X132323308Y-109473640D01*
X132323308Y-109473640D02*
X131989975Y-108759355D01*
X131989975Y-108759355D02*
X131989975Y-109759355D01*
X131085213Y-109759355D02*
X131085213Y-109235545D01*
X131085213Y-109235545D02*
X131132832Y-109140307D01*
X131132832Y-109140307D02*
X131228070Y-109092688D01*
X131228070Y-109092688D02*
X131418546Y-109092688D01*
X131418546Y-109092688D02*
X131513784Y-109140307D01*
X131085213Y-109711736D02*
X131180451Y-109759355D01*
X131180451Y-109759355D02*
X131418546Y-109759355D01*
X131418546Y-109759355D02*
X131513784Y-109711736D01*
X131513784Y-109711736D02*
X131561403Y-109616497D01*
X131561403Y-109616497D02*
X131561403Y-109521259D01*
X131561403Y-109521259D02*
X131513784Y-109426021D01*
X131513784Y-109426021D02*
X131418546Y-109378402D01*
X131418546Y-109378402D02*
X131180451Y-109378402D01*
X131180451Y-109378402D02*
X131085213Y-109330783D01*
X130180451Y-109759355D02*
X130180451Y-108759355D01*
X130180451Y-109711736D02*
X130275689Y-109759355D01*
X130275689Y-109759355D02*
X130466165Y-109759355D01*
X130466165Y-109759355D02*
X130561403Y-109711736D01*
X130561403Y-109711736D02*
X130609022Y-109664116D01*
X130609022Y-109664116D02*
X130656641Y-109568878D01*
X130656641Y-109568878D02*
X130656641Y-109283164D01*
X130656641Y-109283164D02*
X130609022Y-109187926D01*
X130609022Y-109187926D02*
X130561403Y-109140307D01*
X130561403Y-109140307D02*
X130466165Y-109092688D01*
X130466165Y-109092688D02*
X130275689Y-109092688D01*
X130275689Y-109092688D02*
X130180451Y-109140307D01*
X129323308Y-109711736D02*
X129418546Y-109759355D01*
X129418546Y-109759355D02*
X129609022Y-109759355D01*
X129609022Y-109759355D02*
X129704260Y-109711736D01*
X129704260Y-109711736D02*
X129751879Y-109616497D01*
X129751879Y-109616497D02*
X129751879Y-109235545D01*
X129751879Y-109235545D02*
X129704260Y-109140307D01*
X129704260Y-109140307D02*
X129609022Y-109092688D01*
X129609022Y-109092688D02*
X129418546Y-109092688D01*
X129418546Y-109092688D02*
X129323308Y-109140307D01*
X129323308Y-109140307D02*
X129275689Y-109235545D01*
X129275689Y-109235545D02*
X129275689Y-109330783D01*
X129275689Y-109330783D02*
X129751879Y-109426021D01*
X128085212Y-109759355D02*
X128085212Y-108759355D01*
X128085212Y-109140307D02*
X127989974Y-109092688D01*
X127989974Y-109092688D02*
X127799498Y-109092688D01*
X127799498Y-109092688D02*
X127704260Y-109140307D01*
X127704260Y-109140307D02*
X127656641Y-109187926D01*
X127656641Y-109187926D02*
X127609022Y-109283164D01*
X127609022Y-109283164D02*
X127609022Y-109568878D01*
X127609022Y-109568878D02*
X127656641Y-109664116D01*
X127656641Y-109664116D02*
X127704260Y-109711736D01*
X127704260Y-109711736D02*
X127799498Y-109759355D01*
X127799498Y-109759355D02*
X127989974Y-109759355D01*
X127989974Y-109759355D02*
X128085212Y-109711736D01*
X127275688Y-109092688D02*
X127037593Y-109759355D01*
X126799498Y-109092688D02*
X127037593Y-109759355D01*
X127037593Y-109759355D02*
X127132831Y-109997450D01*
X127132831Y-109997450D02*
X127180450Y-110045069D01*
X127180450Y-110045069D02*
X127275688Y-110092688D01*
X125656640Y-109759355D02*
X125656640Y-108759355D01*
X124751879Y-109092688D02*
X124751879Y-109902212D01*
X124751879Y-109902212D02*
X124799498Y-109997450D01*
X124799498Y-109997450D02*
X124847117Y-110045069D01*
X124847117Y-110045069D02*
X124942355Y-110092688D01*
X124942355Y-110092688D02*
X125085212Y-110092688D01*
X125085212Y-110092688D02*
X125180450Y-110045069D01*
X124751879Y-109711736D02*
X124847117Y-109759355D01*
X124847117Y-109759355D02*
X125037593Y-109759355D01*
X125037593Y-109759355D02*
X125132831Y-109711736D01*
X125132831Y-109711736D02*
X125180450Y-109664116D01*
X125180450Y-109664116D02*
X125228069Y-109568878D01*
X125228069Y-109568878D02*
X125228069Y-109283164D01*
X125228069Y-109283164D02*
X125180450Y-109187926D01*
X125180450Y-109187926D02*
X125132831Y-109140307D01*
X125132831Y-109140307D02*
X125037593Y-109092688D01*
X125037593Y-109092688D02*
X124847117Y-109092688D01*
X124847117Y-109092688D02*
X124751879Y-109140307D01*
X124275688Y-109092688D02*
X124275688Y-109759355D01*
X124275688Y-109187926D02*
X124228069Y-109140307D01*
X124228069Y-109140307D02*
X124132831Y-109092688D01*
X124132831Y-109092688D02*
X123989974Y-109092688D01*
X123989974Y-109092688D02*
X123894736Y-109140307D01*
X123894736Y-109140307D02*
X123847117Y-109235545D01*
X123847117Y-109235545D02*
X123847117Y-109759355D01*
X122942355Y-109759355D02*
X122942355Y-109235545D01*
X122942355Y-109235545D02*
X122989974Y-109140307D01*
X122989974Y-109140307D02*
X123085212Y-109092688D01*
X123085212Y-109092688D02*
X123275688Y-109092688D01*
X123275688Y-109092688D02*
X123370926Y-109140307D01*
X122942355Y-109711736D02*
X123037593Y-109759355D01*
X123037593Y-109759355D02*
X123275688Y-109759355D01*
X123275688Y-109759355D02*
X123370926Y-109711736D01*
X123370926Y-109711736D02*
X123418545Y-109616497D01*
X123418545Y-109616497D02*
X123418545Y-109521259D01*
X123418545Y-109521259D02*
X123370926Y-109426021D01*
X123370926Y-109426021D02*
X123275688Y-109378402D01*
X123275688Y-109378402D02*
X123037593Y-109378402D01*
X123037593Y-109378402D02*
X122942355Y-109330783D01*
X122037593Y-109711736D02*
X122132831Y-109759355D01*
X122132831Y-109759355D02*
X122323307Y-109759355D01*
X122323307Y-109759355D02*
X122418545Y-109711736D01*
X122418545Y-109711736D02*
X122466164Y-109664116D01*
X122466164Y-109664116D02*
X122513783Y-109568878D01*
X122513783Y-109568878D02*
X122513783Y-109283164D01*
X122513783Y-109283164D02*
X122466164Y-109187926D01*
X122466164Y-109187926D02*
X122418545Y-109140307D01*
X122418545Y-109140307D02*
X122323307Y-109092688D01*
X122323307Y-109092688D02*
X122132831Y-109092688D01*
X122132831Y-109092688D02*
X122037593Y-109140307D01*
X121609021Y-109759355D02*
X121609021Y-109092688D01*
X121609021Y-108759355D02*
X121656640Y-108806974D01*
X121656640Y-108806974D02*
X121609021Y-108854593D01*
X121609021Y-108854593D02*
X121561402Y-108806974D01*
X121561402Y-108806974D02*
X121609021Y-108759355D01*
X121609021Y-108759355D02*
X121609021Y-108854593D01*
X120989974Y-109759355D02*
X121085212Y-109711736D01*
X121085212Y-109711736D02*
X121132831Y-109664116D01*
X121132831Y-109664116D02*
X121180450Y-109568878D01*
X121180450Y-109568878D02*
X121180450Y-109283164D01*
X121180450Y-109283164D02*
X121132831Y-109187926D01*
X121132831Y-109187926D02*
X121085212Y-109140307D01*
X121085212Y-109140307D02*
X120989974Y-109092688D01*
X120989974Y-109092688D02*
X120847117Y-109092688D01*
X120847117Y-109092688D02*
X120751879Y-109140307D01*
X120751879Y-109140307D02*
X120704260Y-109187926D01*
X120704260Y-109187926D02*
X120656641Y-109283164D01*
X120656641Y-109283164D02*
X120656641Y-109568878D01*
X120656641Y-109568878D02*
X120704260Y-109664116D01*
X120704260Y-109664116D02*
X120751879Y-109711736D01*
X120751879Y-109711736D02*
X120847117Y-109759355D01*
X120847117Y-109759355D02*
X120989974Y-109759355D01*
X132228070Y-111369299D02*
X132228070Y-110845489D01*
X132228070Y-110845489D02*
X132275689Y-110750251D01*
X132275689Y-110750251D02*
X132370927Y-110702632D01*
X132370927Y-110702632D02*
X132561403Y-110702632D01*
X132561403Y-110702632D02*
X132656641Y-110750251D01*
X132228070Y-111321680D02*
X132323308Y-111369299D01*
X132323308Y-111369299D02*
X132561403Y-111369299D01*
X132561403Y-111369299D02*
X132656641Y-111321680D01*
X132656641Y-111321680D02*
X132704260Y-111226441D01*
X132704260Y-111226441D02*
X132704260Y-111131203D01*
X132704260Y-111131203D02*
X132656641Y-111035965D01*
X132656641Y-111035965D02*
X132561403Y-110988346D01*
X132561403Y-110988346D02*
X132323308Y-110988346D01*
X132323308Y-110988346D02*
X132228070Y-110940727D01*
X131751879Y-110702632D02*
X131751879Y-111369299D01*
X131751879Y-110797870D02*
X131704260Y-110750251D01*
X131704260Y-110750251D02*
X131609022Y-110702632D01*
X131609022Y-110702632D02*
X131466165Y-110702632D01*
X131466165Y-110702632D02*
X131370927Y-110750251D01*
X131370927Y-110750251D02*
X131323308Y-110845489D01*
X131323308Y-110845489D02*
X131323308Y-111369299D01*
X130418546Y-111369299D02*
X130418546Y-110369299D01*
X130418546Y-111321680D02*
X130513784Y-111369299D01*
X130513784Y-111369299D02*
X130704260Y-111369299D01*
X130704260Y-111369299D02*
X130799498Y-111321680D01*
X130799498Y-111321680D02*
X130847117Y-111274060D01*
X130847117Y-111274060D02*
X130894736Y-111178822D01*
X130894736Y-111178822D02*
X130894736Y-110893108D01*
X130894736Y-110893108D02*
X130847117Y-110797870D01*
X130847117Y-110797870D02*
X130799498Y-110750251D01*
X130799498Y-110750251D02*
X130704260Y-110702632D01*
X130704260Y-110702632D02*
X130513784Y-110702632D01*
X130513784Y-110702632D02*
X130418546Y-110750251D01*
X129180450Y-110845489D02*
X128847117Y-110845489D01*
X128704260Y-111369299D02*
X129180450Y-111369299D01*
X129180450Y-111369299D02*
X129180450Y-110369299D01*
X129180450Y-110369299D02*
X128704260Y-110369299D01*
X127847117Y-111369299D02*
X127847117Y-110369299D01*
X127847117Y-111321680D02*
X127942355Y-111369299D01*
X127942355Y-111369299D02*
X128132831Y-111369299D01*
X128132831Y-111369299D02*
X128228069Y-111321680D01*
X128228069Y-111321680D02*
X128275688Y-111274060D01*
X128275688Y-111274060D02*
X128323307Y-111178822D01*
X128323307Y-111178822D02*
X128323307Y-110893108D01*
X128323307Y-110893108D02*
X128275688Y-110797870D01*
X128275688Y-110797870D02*
X128228069Y-110750251D01*
X128228069Y-110750251D02*
X128132831Y-110702632D01*
X128132831Y-110702632D02*
X127942355Y-110702632D01*
X127942355Y-110702632D02*
X127847117Y-110750251D01*
X126942355Y-110702632D02*
X126942355Y-111369299D01*
X127370926Y-110702632D02*
X127370926Y-111226441D01*
X127370926Y-111226441D02*
X127323307Y-111321680D01*
X127323307Y-111321680D02*
X127228069Y-111369299D01*
X127228069Y-111369299D02*
X127085212Y-111369299D01*
X127085212Y-111369299D02*
X126989974Y-111321680D01*
X126989974Y-111321680D02*
X126942355Y-111274060D01*
X126037593Y-111369299D02*
X126037593Y-110845489D01*
X126037593Y-110845489D02*
X126085212Y-110750251D01*
X126085212Y-110750251D02*
X126180450Y-110702632D01*
X126180450Y-110702632D02*
X126370926Y-110702632D01*
X126370926Y-110702632D02*
X126466164Y-110750251D01*
X126037593Y-111321680D02*
X126132831Y-111369299D01*
X126132831Y-111369299D02*
X126370926Y-111369299D01*
X126370926Y-111369299D02*
X126466164Y-111321680D01*
X126466164Y-111321680D02*
X126513783Y-111226441D01*
X126513783Y-111226441D02*
X126513783Y-111131203D01*
X126513783Y-111131203D02*
X126466164Y-111035965D01*
X126466164Y-111035965D02*
X126370926Y-110988346D01*
X126370926Y-110988346D02*
X126132831Y-110988346D01*
X126132831Y-110988346D02*
X126037593Y-110940727D01*
X125561402Y-111369299D02*
X125561402Y-110702632D01*
X125561402Y-110893108D02*
X125513783Y-110797870D01*
X125513783Y-110797870D02*
X125466164Y-110750251D01*
X125466164Y-110750251D02*
X125370926Y-110702632D01*
X125370926Y-110702632D02*
X125275688Y-110702632D01*
X124513783Y-111369299D02*
X124513783Y-110369299D01*
X124513783Y-111321680D02*
X124609021Y-111369299D01*
X124609021Y-111369299D02*
X124799497Y-111369299D01*
X124799497Y-111369299D02*
X124894735Y-111321680D01*
X124894735Y-111321680D02*
X124942354Y-111274060D01*
X124942354Y-111274060D02*
X124989973Y-111178822D01*
X124989973Y-111178822D02*
X124989973Y-110893108D01*
X124989973Y-110893108D02*
X124942354Y-110797870D01*
X124942354Y-110797870D02*
X124894735Y-110750251D01*
X124894735Y-110750251D02*
X124799497Y-110702632D01*
X124799497Y-110702632D02*
X124609021Y-110702632D01*
X124609021Y-110702632D02*
X124513783Y-110750251D01*
X123894735Y-111369299D02*
X123989973Y-111321680D01*
X123989973Y-111321680D02*
X124037592Y-111274060D01*
X124037592Y-111274060D02*
X124085211Y-111178822D01*
X124085211Y-111178822D02*
X124085211Y-110893108D01*
X124085211Y-110893108D02*
X124037592Y-110797870D01*
X124037592Y-110797870D02*
X123989973Y-110750251D01*
X123989973Y-110750251D02*
X123894735Y-110702632D01*
X123894735Y-110702632D02*
X123751878Y-110702632D01*
X123751878Y-110702632D02*
X123656640Y-110750251D01*
X123656640Y-110750251D02*
X123609021Y-110797870D01*
X123609021Y-110797870D02*
X123561402Y-110893108D01*
X123561402Y-110893108D02*
X123561402Y-111178822D01*
X123561402Y-111178822D02*
X123609021Y-111274060D01*
X123609021Y-111274060D02*
X123656640Y-111321680D01*
X123656640Y-111321680D02*
X123751878Y-111369299D01*
X123751878Y-111369299D02*
X123894735Y-111369299D01*
X121799497Y-111274060D02*
X121847116Y-111321680D01*
X121847116Y-111321680D02*
X121989973Y-111369299D01*
X121989973Y-111369299D02*
X122085211Y-111369299D01*
X122085211Y-111369299D02*
X122228068Y-111321680D01*
X122228068Y-111321680D02*
X122323306Y-111226441D01*
X122323306Y-111226441D02*
X122370925Y-111131203D01*
X122370925Y-111131203D02*
X122418544Y-110940727D01*
X122418544Y-110940727D02*
X122418544Y-110797870D01*
X122418544Y-110797870D02*
X122370925Y-110607394D01*
X122370925Y-110607394D02*
X122323306Y-110512156D01*
X122323306Y-110512156D02*
X122228068Y-110416918D01*
X122228068Y-110416918D02*
X122085211Y-110369299D01*
X122085211Y-110369299D02*
X121989973Y-110369299D01*
X121989973Y-110369299D02*
X121847116Y-110416918D01*
X121847116Y-110416918D02*
X121799497Y-110464537D01*
X121228068Y-111369299D02*
X121323306Y-111321680D01*
X121323306Y-111321680D02*
X121370925Y-111274060D01*
X121370925Y-111274060D02*
X121418544Y-111178822D01*
X121418544Y-111178822D02*
X121418544Y-110893108D01*
X121418544Y-110893108D02*
X121370925Y-110797870D01*
X121370925Y-110797870D02*
X121323306Y-110750251D01*
X121323306Y-110750251D02*
X121228068Y-110702632D01*
X121228068Y-110702632D02*
X121085211Y-110702632D01*
X121085211Y-110702632D02*
X120989973Y-110750251D01*
X120989973Y-110750251D02*
X120942354Y-110797870D01*
X120942354Y-110797870D02*
X120894735Y-110893108D01*
X120894735Y-110893108D02*
X120894735Y-111178822D01*
X120894735Y-111178822D02*
X120942354Y-111274060D01*
X120942354Y-111274060D02*
X120989973Y-111321680D01*
X120989973Y-111321680D02*
X121085211Y-111369299D01*
X121085211Y-111369299D02*
X121228068Y-111369299D01*
X120466163Y-111369299D02*
X120466163Y-110702632D01*
X120466163Y-110893108D02*
X120418544Y-110797870D01*
X120418544Y-110797870D02*
X120370925Y-110750251D01*
X120370925Y-110750251D02*
X120275687Y-110702632D01*
X120275687Y-110702632D02*
X120180449Y-110702632D01*
X119847115Y-110702632D02*
X119847115Y-111702632D01*
X119847115Y-110750251D02*
X119751877Y-110702632D01*
X119751877Y-110702632D02*
X119561401Y-110702632D01*
X119561401Y-110702632D02*
X119466163Y-110750251D01*
X119466163Y-110750251D02*
X119418544Y-110797870D01*
X119418544Y-110797870D02*
X119370925Y-110893108D01*
X119370925Y-110893108D02*
X119370925Y-111178822D01*
X119370925Y-111178822D02*
X119418544Y-111274060D01*
X119418544Y-111274060D02*
X119466163Y-111321680D01*
X119466163Y-111321680D02*
X119561401Y-111369299D01*
X119561401Y-111369299D02*
X119751877Y-111369299D01*
X119751877Y-111369299D02*
X119847115Y-111321680D01*
X118561401Y-111321680D02*
X118656639Y-111369299D01*
X118656639Y-111369299D02*
X118847115Y-111369299D01*
X118847115Y-111369299D02*
X118942353Y-111321680D01*
X118942353Y-111321680D02*
X118989972Y-111226441D01*
X118989972Y-111226441D02*
X118989972Y-110845489D01*
X118989972Y-110845489D02*
X118942353Y-110750251D01*
X118942353Y-110750251D02*
X118847115Y-110702632D01*
X118847115Y-110702632D02*
X118656639Y-110702632D01*
X118656639Y-110702632D02*
X118561401Y-110750251D01*
X118561401Y-110750251D02*
X118513782Y-110845489D01*
X118513782Y-110845489D02*
X118513782Y-110940727D01*
X118513782Y-110940727D02*
X118989972Y-111035965D01*
X118085210Y-110702632D02*
X118085210Y-111369299D01*
X118085210Y-110797870D02*
X118037591Y-110750251D01*
X118037591Y-110750251D02*
X117942353Y-110702632D01*
X117942353Y-110702632D02*
X117799496Y-110702632D01*
X117799496Y-110702632D02*
X117704258Y-110750251D01*
X117704258Y-110750251D02*
X117656639Y-110845489D01*
X117656639Y-110845489D02*
X117656639Y-111369299D01*
X118132829Y-110464537D02*
X118085210Y-110416918D01*
X118085210Y-110416918D02*
X117989972Y-110369299D01*
X117989972Y-110369299D02*
X117799496Y-110464537D01*
X117799496Y-110464537D02*
X117704258Y-110416918D01*
X117704258Y-110416918D02*
X117656639Y-110369299D01*
X117037591Y-111369299D02*
X117132829Y-111321680D01*
X117132829Y-111321680D02*
X117180448Y-111274060D01*
X117180448Y-111274060D02*
X117228067Y-111178822D01*
X117228067Y-111178822D02*
X117228067Y-110893108D01*
X117228067Y-110893108D02*
X117180448Y-110797870D01*
X117180448Y-110797870D02*
X117132829Y-110750251D01*
X117132829Y-110750251D02*
X117037591Y-110702632D01*
X117037591Y-110702632D02*
X116894734Y-110702632D01*
X116894734Y-110702632D02*
X116799496Y-110750251D01*
X116799496Y-110750251D02*
X116751877Y-110797870D01*
X116751877Y-110797870D02*
X116704258Y-110893108D01*
X116704258Y-110893108D02*
X116704258Y-111178822D01*
X116704258Y-111178822D02*
X116751877Y-111274060D01*
X116751877Y-111274060D02*
X116799496Y-111321680D01*
X116799496Y-111321680D02*
X116894734Y-111369299D01*
X116894734Y-111369299D02*
X117037591Y-111369299D01*
X158485617Y-85524441D02*
X158342760Y-85572060D01*
X158342760Y-85572060D02*
X158295141Y-85619679D01*
X158295141Y-85619679D02*
X158247522Y-85714917D01*
X158247522Y-85714917D02*
X158247522Y-85857774D01*
X158247522Y-85857774D02*
X158295141Y-85953012D01*
X158295141Y-85953012D02*
X158342760Y-86000632D01*
X158342760Y-86000632D02*
X158437998Y-86048251D01*
X158437998Y-86048251D02*
X158818950Y-86048251D01*
X158818950Y-86048251D02*
X158818950Y-85048251D01*
X158818950Y-85048251D02*
X158485617Y-85048251D01*
X158485617Y-85048251D02*
X158390379Y-85095870D01*
X158390379Y-85095870D02*
X158342760Y-85143489D01*
X158342760Y-85143489D02*
X158295141Y-85238727D01*
X158295141Y-85238727D02*
X158295141Y-85333965D01*
X158295141Y-85333965D02*
X158342760Y-85429203D01*
X158342760Y-85429203D02*
X158390379Y-85476822D01*
X158390379Y-85476822D02*
X158485617Y-85524441D01*
X158485617Y-85524441D02*
X158818950Y-85524441D01*
X157628474Y-85048251D02*
X157437998Y-85048251D01*
X157437998Y-85048251D02*
X157342760Y-85095870D01*
X157342760Y-85095870D02*
X157247522Y-85191108D01*
X157247522Y-85191108D02*
X157199903Y-85381584D01*
X157199903Y-85381584D02*
X157199903Y-85714917D01*
X157199903Y-85714917D02*
X157247522Y-85905393D01*
X157247522Y-85905393D02*
X157342760Y-86000632D01*
X157342760Y-86000632D02*
X157437998Y-86048251D01*
X157437998Y-86048251D02*
X157628474Y-86048251D01*
X157628474Y-86048251D02*
X157723712Y-86000632D01*
X157723712Y-86000632D02*
X157818950Y-85905393D01*
X157818950Y-85905393D02*
X157866569Y-85714917D01*
X157866569Y-85714917D02*
X157866569Y-85381584D01*
X157866569Y-85381584D02*
X157818950Y-85191108D01*
X157818950Y-85191108D02*
X157723712Y-85095870D01*
X157723712Y-85095870D02*
X157628474Y-85048251D01*
X156818950Y-85762536D02*
X156342760Y-85762536D01*
X156914188Y-86048251D02*
X156580855Y-85048251D01*
X156580855Y-85048251D02*
X156247522Y-86048251D01*
X155342760Y-86048251D02*
X155676093Y-85572060D01*
X155914188Y-86048251D02*
X155914188Y-85048251D01*
X155914188Y-85048251D02*
X155533236Y-85048251D01*
X155533236Y-85048251D02*
X155437998Y-85095870D01*
X155437998Y-85095870D02*
X155390379Y-85143489D01*
X155390379Y-85143489D02*
X155342760Y-85238727D01*
X155342760Y-85238727D02*
X155342760Y-85381584D01*
X155342760Y-85381584D02*
X155390379Y-85476822D01*
X155390379Y-85476822D02*
X155437998Y-85524441D01*
X155437998Y-85524441D02*
X155533236Y-85572060D01*
X155533236Y-85572060D02*
X155914188Y-85572060D01*
X154914188Y-86048251D02*
X154914188Y-85048251D01*
X154914188Y-85048251D02*
X154676093Y-85048251D01*
X154676093Y-85048251D02*
X154533236Y-85095870D01*
X154533236Y-85095870D02*
X154437998Y-85191108D01*
X154437998Y-85191108D02*
X154390379Y-85286346D01*
X154390379Y-85286346D02*
X154342760Y-85476822D01*
X154342760Y-85476822D02*
X154342760Y-85619679D01*
X154342760Y-85619679D02*
X154390379Y-85810155D01*
X154390379Y-85810155D02*
X154437998Y-85905393D01*
X154437998Y-85905393D02*
X154533236Y-86000632D01*
X154533236Y-86000632D02*
X154676093Y-86048251D01*
X154676093Y-86048251D02*
X154914188Y-86048251D01*
X153152283Y-86048251D02*
X153152283Y-85048251D01*
X153152283Y-85048251D02*
X152818950Y-85762536D01*
X152818950Y-85762536D02*
X152485617Y-85048251D01*
X152485617Y-85048251D02*
X152485617Y-86048251D01*
X151818950Y-85048251D02*
X151628474Y-85048251D01*
X151628474Y-85048251D02*
X151533236Y-85095870D01*
X151533236Y-85095870D02*
X151437998Y-85191108D01*
X151437998Y-85191108D02*
X151390379Y-85381584D01*
X151390379Y-85381584D02*
X151390379Y-85714917D01*
X151390379Y-85714917D02*
X151437998Y-85905393D01*
X151437998Y-85905393D02*
X151533236Y-86000632D01*
X151533236Y-86000632D02*
X151628474Y-86048251D01*
X151628474Y-86048251D02*
X151818950Y-86048251D01*
X151818950Y-86048251D02*
X151914188Y-86000632D01*
X151914188Y-86000632D02*
X152009426Y-85905393D01*
X152009426Y-85905393D02*
X152057045Y-85714917D01*
X152057045Y-85714917D02*
X152057045Y-85381584D01*
X152057045Y-85381584D02*
X152009426Y-85191108D01*
X152009426Y-85191108D02*
X151914188Y-85095870D01*
X151914188Y-85095870D02*
X151818950Y-85048251D01*
X150961807Y-86048251D02*
X150961807Y-85048251D01*
X150961807Y-85048251D02*
X150723712Y-85048251D01*
X150723712Y-85048251D02*
X150580855Y-85095870D01*
X150580855Y-85095870D02*
X150485617Y-85191108D01*
X150485617Y-85191108D02*
X150437998Y-85286346D01*
X150437998Y-85286346D02*
X150390379Y-85476822D01*
X150390379Y-85476822D02*
X150390379Y-85619679D01*
X150390379Y-85619679D02*
X150437998Y-85810155D01*
X150437998Y-85810155D02*
X150485617Y-85905393D01*
X150485617Y-85905393D02*
X150580855Y-86000632D01*
X150580855Y-86000632D02*
X150723712Y-86048251D01*
X150723712Y-86048251D02*
X150961807Y-86048251D01*
X149961807Y-85524441D02*
X149628474Y-85524441D01*
X149485617Y-86048251D02*
X149961807Y-86048251D01*
X149961807Y-86048251D02*
X149961807Y-85048251D01*
X149961807Y-85048251D02*
X149485617Y-85048251D01*
X148580855Y-86048251D02*
X149057045Y-86048251D01*
X149057045Y-86048251D02*
X149057045Y-85048251D01*
X158533236Y-87991528D02*
X158771331Y-87991528D01*
X158771331Y-87991528D02*
X158771331Y-86562956D01*
X158771331Y-86562956D02*
X158533236Y-86562956D01*
X158152283Y-87277242D02*
X157390379Y-87277242D01*
X157009426Y-87991528D02*
X156771331Y-87991528D01*
X156771331Y-87991528D02*
X156771331Y-86562956D01*
X156771331Y-86562956D02*
X157009426Y-86562956D01*
X156247521Y-87277242D02*
X155485617Y-87277242D01*
X155866569Y-87658195D02*
X155866569Y-86896290D01*
X155009426Y-87562956D02*
X154961807Y-87610576D01*
X154961807Y-87610576D02*
X155009426Y-87658195D01*
X155009426Y-87658195D02*
X155057045Y-87610576D01*
X155057045Y-87610576D02*
X155009426Y-87562956D01*
X155009426Y-87562956D02*
X155009426Y-87658195D01*
X153199903Y-87658195D02*
X153533236Y-87182004D01*
X153771331Y-87658195D02*
X153771331Y-86658195D01*
X153771331Y-86658195D02*
X153390379Y-86658195D01*
X153390379Y-86658195D02*
X153295141Y-86705814D01*
X153295141Y-86705814D02*
X153247522Y-86753433D01*
X153247522Y-86753433D02*
X153199903Y-86848671D01*
X153199903Y-86848671D02*
X153199903Y-86991528D01*
X153199903Y-86991528D02*
X153247522Y-87086766D01*
X153247522Y-87086766D02*
X153295141Y-87134385D01*
X153295141Y-87134385D02*
X153390379Y-87182004D01*
X153390379Y-87182004D02*
X153771331Y-87182004D01*
X152390379Y-87610576D02*
X152485617Y-87658195D01*
X152485617Y-87658195D02*
X152676093Y-87658195D01*
X152676093Y-87658195D02*
X152771331Y-87610576D01*
X152771331Y-87610576D02*
X152818950Y-87515337D01*
X152818950Y-87515337D02*
X152818950Y-87134385D01*
X152818950Y-87134385D02*
X152771331Y-87039147D01*
X152771331Y-87039147D02*
X152676093Y-86991528D01*
X152676093Y-86991528D02*
X152485617Y-86991528D01*
X152485617Y-86991528D02*
X152390379Y-87039147D01*
X152390379Y-87039147D02*
X152342760Y-87134385D01*
X152342760Y-87134385D02*
X152342760Y-87229623D01*
X152342760Y-87229623D02*
X152818950Y-87324861D01*
X152009426Y-86991528D02*
X151771331Y-87658195D01*
X151771331Y-87658195D02*
X151533236Y-86991528D01*
X149866569Y-87658195D02*
X150437997Y-87658195D01*
X150152283Y-87658195D02*
X150152283Y-86658195D01*
X150152283Y-86658195D02*
X150247521Y-86801052D01*
X150247521Y-86801052D02*
X150342759Y-86896290D01*
X150342759Y-86896290D02*
X150437997Y-86943909D01*
X149437997Y-87562956D02*
X149390378Y-87610576D01*
X149390378Y-87610576D02*
X149437997Y-87658195D01*
X149437997Y-87658195D02*
X149485616Y-87610576D01*
X149485616Y-87610576D02*
X149437997Y-87562956D01*
X149437997Y-87562956D02*
X149437997Y-87658195D01*
X148437998Y-87658195D02*
X149009426Y-87658195D01*
X148723712Y-87658195D02*
X148723712Y-86658195D01*
X148723712Y-86658195D02*
X148818950Y-86801052D01*
X148818950Y-86801052D02*
X148914188Y-86896290D01*
X148914188Y-86896290D02*
X149009426Y-86943909D01*
X158818950Y-89172900D02*
X158771331Y-89220520D01*
X158771331Y-89220520D02*
X158818950Y-89268139D01*
X158818950Y-89268139D02*
X158866569Y-89220520D01*
X158866569Y-89220520D02*
X158818950Y-89172900D01*
X158818950Y-89172900D02*
X158818950Y-89268139D01*
X158342760Y-89172900D02*
X158295141Y-89220520D01*
X158295141Y-89220520D02*
X158342760Y-89268139D01*
X158342760Y-89268139D02*
X158390379Y-89220520D01*
X158390379Y-89220520D02*
X158342760Y-89172900D01*
X158342760Y-89172900D02*
X158342760Y-89268139D01*
X157866570Y-89172900D02*
X157818951Y-89220520D01*
X157818951Y-89220520D02*
X157866570Y-89268139D01*
X157866570Y-89268139D02*
X157914189Y-89220520D01*
X157914189Y-89220520D02*
X157866570Y-89172900D01*
X157866570Y-89172900D02*
X157866570Y-89268139D01*
X157390380Y-89172900D02*
X157342761Y-89220520D01*
X157342761Y-89220520D02*
X157390380Y-89268139D01*
X157390380Y-89268139D02*
X157437999Y-89220520D01*
X157437999Y-89220520D02*
X157390380Y-89172900D01*
X157390380Y-89172900D02*
X157390380Y-89268139D01*
X156914190Y-89172900D02*
X156866571Y-89220520D01*
X156866571Y-89220520D02*
X156914190Y-89268139D01*
X156914190Y-89268139D02*
X156961809Y-89220520D01*
X156961809Y-89220520D02*
X156914190Y-89172900D01*
X156914190Y-89172900D02*
X156914190Y-89268139D01*
X156438000Y-89172900D02*
X156390381Y-89220520D01*
X156390381Y-89220520D02*
X156438000Y-89268139D01*
X156438000Y-89268139D02*
X156485619Y-89220520D01*
X156485619Y-89220520D02*
X156438000Y-89172900D01*
X156438000Y-89172900D02*
X156438000Y-89268139D01*
X155961810Y-89172900D02*
X155914191Y-89220520D01*
X155914191Y-89220520D02*
X155961810Y-89268139D01*
X155961810Y-89268139D02*
X156009429Y-89220520D01*
X156009429Y-89220520D02*
X155961810Y-89172900D01*
X155961810Y-89172900D02*
X155961810Y-89268139D01*
X155485620Y-89172900D02*
X155438001Y-89220520D01*
X155438001Y-89220520D02*
X155485620Y-89268139D01*
X155485620Y-89268139D02*
X155533239Y-89220520D01*
X155533239Y-89220520D02*
X155485620Y-89172900D01*
X155485620Y-89172900D02*
X155485620Y-89268139D01*
X155009430Y-89172900D02*
X154961811Y-89220520D01*
X154961811Y-89220520D02*
X155009430Y-89268139D01*
X155009430Y-89268139D02*
X155057049Y-89220520D01*
X155057049Y-89220520D02*
X155009430Y-89172900D01*
X155009430Y-89172900D02*
X155009430Y-89268139D01*
X154533240Y-89172900D02*
X154485621Y-89220520D01*
X154485621Y-89220520D02*
X154533240Y-89268139D01*
X154533240Y-89268139D02*
X154580859Y-89220520D01*
X154580859Y-89220520D02*
X154533240Y-89172900D01*
X154533240Y-89172900D02*
X154533240Y-89268139D01*
X154057050Y-89172900D02*
X154009431Y-89220520D01*
X154009431Y-89220520D02*
X154057050Y-89268139D01*
X154057050Y-89268139D02*
X154104669Y-89220520D01*
X154104669Y-89220520D02*
X154057050Y-89172900D01*
X154057050Y-89172900D02*
X154057050Y-89268139D01*
X153580860Y-89172900D02*
X153533241Y-89220520D01*
X153533241Y-89220520D02*
X153580860Y-89268139D01*
X153580860Y-89268139D02*
X153628479Y-89220520D01*
X153628479Y-89220520D02*
X153580860Y-89172900D01*
X153580860Y-89172900D02*
X153580860Y-89268139D01*
X153104670Y-89172900D02*
X153057051Y-89220520D01*
X153057051Y-89220520D02*
X153104670Y-89268139D01*
X153104670Y-89268139D02*
X153152289Y-89220520D01*
X153152289Y-89220520D02*
X153104670Y-89172900D01*
X153104670Y-89172900D02*
X153104670Y-89268139D01*
X152628480Y-89172900D02*
X152580861Y-89220520D01*
X152580861Y-89220520D02*
X152628480Y-89268139D01*
X152628480Y-89268139D02*
X152676099Y-89220520D01*
X152676099Y-89220520D02*
X152628480Y-89172900D01*
X152628480Y-89172900D02*
X152628480Y-89268139D01*
X152152290Y-89172900D02*
X152104671Y-89220520D01*
X152104671Y-89220520D02*
X152152290Y-89268139D01*
X152152290Y-89268139D02*
X152199909Y-89220520D01*
X152199909Y-89220520D02*
X152152290Y-89172900D01*
X152152290Y-89172900D02*
X152152290Y-89268139D01*
X151676100Y-89172900D02*
X151628481Y-89220520D01*
X151628481Y-89220520D02*
X151676100Y-89268139D01*
X151676100Y-89268139D02*
X151723719Y-89220520D01*
X151723719Y-89220520D02*
X151676100Y-89172900D01*
X151676100Y-89172900D02*
X151676100Y-89268139D01*
X151199910Y-89172900D02*
X151152291Y-89220520D01*
X151152291Y-89220520D02*
X151199910Y-89268139D01*
X151199910Y-89268139D02*
X151247529Y-89220520D01*
X151247529Y-89220520D02*
X151199910Y-89172900D01*
X151199910Y-89172900D02*
X151199910Y-89268139D01*
X150723720Y-89172900D02*
X150676101Y-89220520D01*
X150676101Y-89220520D02*
X150723720Y-89268139D01*
X150723720Y-89268139D02*
X150771339Y-89220520D01*
X150771339Y-89220520D02*
X150723720Y-89172900D01*
X150723720Y-89172900D02*
X150723720Y-89268139D01*
X150247530Y-89172900D02*
X150199911Y-89220520D01*
X150199911Y-89220520D02*
X150247530Y-89268139D01*
X150247530Y-89268139D02*
X150295149Y-89220520D01*
X150295149Y-89220520D02*
X150247530Y-89172900D01*
X150247530Y-89172900D02*
X150247530Y-89268139D01*
X149771340Y-89172900D02*
X149723721Y-89220520D01*
X149723721Y-89220520D02*
X149771340Y-89268139D01*
X149771340Y-89268139D02*
X149818959Y-89220520D01*
X149818959Y-89220520D02*
X149771340Y-89172900D01*
X149771340Y-89172900D02*
X149771340Y-89268139D01*
X149295150Y-89172900D02*
X149247531Y-89220520D01*
X149247531Y-89220520D02*
X149295150Y-89268139D01*
X149295150Y-89268139D02*
X149342769Y-89220520D01*
X149342769Y-89220520D02*
X149295150Y-89172900D01*
X149295150Y-89172900D02*
X149295150Y-89268139D01*
X148818960Y-89172900D02*
X148771341Y-89220520D01*
X148771341Y-89220520D02*
X148818960Y-89268139D01*
X148818960Y-89268139D02*
X148866579Y-89220520D01*
X148866579Y-89220520D02*
X148818960Y-89172900D01*
X148818960Y-89172900D02*
X148818960Y-89268139D01*
X148342770Y-89172900D02*
X148295151Y-89220520D01*
X148295151Y-89220520D02*
X148342770Y-89268139D01*
X148342770Y-89268139D02*
X148390389Y-89220520D01*
X148390389Y-89220520D02*
X148342770Y-89172900D01*
X148342770Y-89172900D02*
X148342770Y-89268139D01*
X147866580Y-89172900D02*
X147818961Y-89220520D01*
X147818961Y-89220520D02*
X147866580Y-89268139D01*
X147866580Y-89268139D02*
X147914199Y-89220520D01*
X147914199Y-89220520D02*
X147866580Y-89172900D01*
X147866580Y-89172900D02*
X147866580Y-89268139D01*
X147390390Y-89172900D02*
X147342771Y-89220520D01*
X147342771Y-89220520D02*
X147390390Y-89268139D01*
X147390390Y-89268139D02*
X147438009Y-89220520D01*
X147438009Y-89220520D02*
X147390390Y-89172900D01*
X147390390Y-89172900D02*
X147390390Y-89268139D01*
X146914200Y-89172900D02*
X146866581Y-89220520D01*
X146866581Y-89220520D02*
X146914200Y-89268139D01*
X146914200Y-89268139D02*
X146961819Y-89220520D01*
X146961819Y-89220520D02*
X146914200Y-89172900D01*
X146914200Y-89172900D02*
X146914200Y-89268139D01*
X146438010Y-89172900D02*
X146390391Y-89220520D01*
X146390391Y-89220520D02*
X146438010Y-89268139D01*
X146438010Y-89268139D02*
X146485629Y-89220520D01*
X146485629Y-89220520D02*
X146438010Y-89172900D01*
X146438010Y-89172900D02*
X146438010Y-89268139D01*
X145961820Y-89172900D02*
X145914201Y-89220520D01*
X145914201Y-89220520D02*
X145961820Y-89268139D01*
X145961820Y-89268139D02*
X146009439Y-89220520D01*
X146009439Y-89220520D02*
X145961820Y-89172900D01*
X145961820Y-89172900D02*
X145961820Y-89268139D01*
X145485630Y-89172900D02*
X145438011Y-89220520D01*
X145438011Y-89220520D02*
X145485630Y-89268139D01*
X145485630Y-89268139D02*
X145533249Y-89220520D01*
X145533249Y-89220520D02*
X145485630Y-89172900D01*
X145485630Y-89172900D02*
X145485630Y-89268139D01*
X145009440Y-89172900D02*
X144961821Y-89220520D01*
X144961821Y-89220520D02*
X145009440Y-89268139D01*
X145009440Y-89268139D02*
X145057059Y-89220520D01*
X145057059Y-89220520D02*
X145009440Y-89172900D01*
X145009440Y-89172900D02*
X145009440Y-89268139D01*
X144533250Y-89172900D02*
X144485631Y-89220520D01*
X144485631Y-89220520D02*
X144533250Y-89268139D01*
X144533250Y-89268139D02*
X144580869Y-89220520D01*
X144580869Y-89220520D02*
X144533250Y-89172900D01*
X144533250Y-89172900D02*
X144533250Y-89268139D01*
X144057060Y-89172900D02*
X144009441Y-89220520D01*
X144009441Y-89220520D02*
X144057060Y-89268139D01*
X144057060Y-89268139D02*
X144104679Y-89220520D01*
X144104679Y-89220520D02*
X144057060Y-89172900D01*
X144057060Y-89172900D02*
X144057060Y-89268139D01*
X143580870Y-89172900D02*
X143533251Y-89220520D01*
X143533251Y-89220520D02*
X143580870Y-89268139D01*
X143580870Y-89268139D02*
X143628489Y-89220520D01*
X143628489Y-89220520D02*
X143580870Y-89172900D01*
X143580870Y-89172900D02*
X143580870Y-89268139D01*
X143104680Y-89172900D02*
X143057061Y-89220520D01*
X143057061Y-89220520D02*
X143104680Y-89268139D01*
X143104680Y-89268139D02*
X143152299Y-89220520D01*
X143152299Y-89220520D02*
X143104680Y-89172900D01*
X143104680Y-89172900D02*
X143104680Y-89268139D01*
X142628490Y-89172900D02*
X142580871Y-89220520D01*
X142580871Y-89220520D02*
X142628490Y-89268139D01*
X142628490Y-89268139D02*
X142676109Y-89220520D01*
X142676109Y-89220520D02*
X142628490Y-89172900D01*
X142628490Y-89172900D02*
X142628490Y-89268139D01*
X142152300Y-89172900D02*
X142104681Y-89220520D01*
X142104681Y-89220520D02*
X142152300Y-89268139D01*
X142152300Y-89268139D02*
X142199919Y-89220520D01*
X142199919Y-89220520D02*
X142152300Y-89172900D01*
X142152300Y-89172900D02*
X142152300Y-89268139D01*
X141676110Y-89172900D02*
X141628491Y-89220520D01*
X141628491Y-89220520D02*
X141676110Y-89268139D01*
X141676110Y-89268139D02*
X141723729Y-89220520D01*
X141723729Y-89220520D02*
X141676110Y-89172900D01*
X141676110Y-89172900D02*
X141676110Y-89268139D01*
X141199920Y-89172900D02*
X141152301Y-89220520D01*
X141152301Y-89220520D02*
X141199920Y-89268139D01*
X141199920Y-89268139D02*
X141247539Y-89220520D01*
X141247539Y-89220520D02*
X141199920Y-89172900D01*
X141199920Y-89172900D02*
X141199920Y-89268139D01*
X140723730Y-89172900D02*
X140676111Y-89220520D01*
X140676111Y-89220520D02*
X140723730Y-89268139D01*
X140723730Y-89268139D02*
X140771349Y-89220520D01*
X140771349Y-89220520D02*
X140723730Y-89172900D01*
X140723730Y-89172900D02*
X140723730Y-89268139D01*
X140247540Y-89172900D02*
X140199921Y-89220520D01*
X140199921Y-89220520D02*
X140247540Y-89268139D01*
X140247540Y-89268139D02*
X140295159Y-89220520D01*
X140295159Y-89220520D02*
X140247540Y-89172900D01*
X140247540Y-89172900D02*
X140247540Y-89268139D01*
X139771350Y-89172900D02*
X139723731Y-89220520D01*
X139723731Y-89220520D02*
X139771350Y-89268139D01*
X139771350Y-89268139D02*
X139818969Y-89220520D01*
X139818969Y-89220520D02*
X139771350Y-89172900D01*
X139771350Y-89172900D02*
X139771350Y-89268139D01*
X139295160Y-89172900D02*
X139247541Y-89220520D01*
X139247541Y-89220520D02*
X139295160Y-89268139D01*
X139295160Y-89268139D02*
X139342779Y-89220520D01*
X139342779Y-89220520D02*
X139295160Y-89172900D01*
X139295160Y-89172900D02*
X139295160Y-89268139D01*
X138818970Y-89172900D02*
X138771351Y-89220520D01*
X138771351Y-89220520D02*
X138818970Y-89268139D01*
X138818970Y-89268139D02*
X138866589Y-89220520D01*
X138866589Y-89220520D02*
X138818970Y-89172900D01*
X138818970Y-89172900D02*
X138818970Y-89268139D01*
X138342780Y-89172900D02*
X138295161Y-89220520D01*
X138295161Y-89220520D02*
X138342780Y-89268139D01*
X138342780Y-89268139D02*
X138390399Y-89220520D01*
X138390399Y-89220520D02*
X138342780Y-89172900D01*
X138342780Y-89172900D02*
X138342780Y-89268139D01*
X137866590Y-89172900D02*
X137818971Y-89220520D01*
X137818971Y-89220520D02*
X137866590Y-89268139D01*
X137866590Y-89268139D02*
X137914209Y-89220520D01*
X137914209Y-89220520D02*
X137866590Y-89172900D01*
X137866590Y-89172900D02*
X137866590Y-89268139D01*
X137390400Y-89172900D02*
X137342781Y-89220520D01*
X137342781Y-89220520D02*
X137390400Y-89268139D01*
X137390400Y-89268139D02*
X137438019Y-89220520D01*
X137438019Y-89220520D02*
X137390400Y-89172900D01*
X137390400Y-89172900D02*
X137390400Y-89268139D01*
X136914210Y-89172900D02*
X136866591Y-89220520D01*
X136866591Y-89220520D02*
X136914210Y-89268139D01*
X136914210Y-89268139D02*
X136961829Y-89220520D01*
X136961829Y-89220520D02*
X136914210Y-89172900D01*
X136914210Y-89172900D02*
X136914210Y-89268139D01*
X136438020Y-89172900D02*
X136390401Y-89220520D01*
X136390401Y-89220520D02*
X136438020Y-89268139D01*
X136438020Y-89268139D02*
X136485639Y-89220520D01*
X136485639Y-89220520D02*
X136438020Y-89172900D01*
X136438020Y-89172900D02*
X136438020Y-89268139D01*
X135961830Y-89172900D02*
X135914211Y-89220520D01*
X135914211Y-89220520D02*
X135961830Y-89268139D01*
X135961830Y-89268139D02*
X136009449Y-89220520D01*
X136009449Y-89220520D02*
X135961830Y-89172900D01*
X135961830Y-89172900D02*
X135961830Y-89268139D01*
X135485640Y-89172900D02*
X135438021Y-89220520D01*
X135438021Y-89220520D02*
X135485640Y-89268139D01*
X135485640Y-89268139D02*
X135533259Y-89220520D01*
X135533259Y-89220520D02*
X135485640Y-89172900D01*
X135485640Y-89172900D02*
X135485640Y-89268139D01*
X135009450Y-89172900D02*
X134961831Y-89220520D01*
X134961831Y-89220520D02*
X135009450Y-89268139D01*
X135009450Y-89268139D02*
X135057069Y-89220520D01*
X135057069Y-89220520D02*
X135009450Y-89172900D01*
X135009450Y-89172900D02*
X135009450Y-89268139D01*
X134533260Y-89172900D02*
X134485641Y-89220520D01*
X134485641Y-89220520D02*
X134533260Y-89268139D01*
X134533260Y-89268139D02*
X134580879Y-89220520D01*
X134580879Y-89220520D02*
X134533260Y-89172900D01*
X134533260Y-89172900D02*
X134533260Y-89268139D01*
X134057070Y-89172900D02*
X134009451Y-89220520D01*
X134009451Y-89220520D02*
X134057070Y-89268139D01*
X134057070Y-89268139D02*
X134104689Y-89220520D01*
X134104689Y-89220520D02*
X134057070Y-89172900D01*
X134057070Y-89172900D02*
X134057070Y-89268139D01*
X133580880Y-89172900D02*
X133533261Y-89220520D01*
X133533261Y-89220520D02*
X133580880Y-89268139D01*
X133580880Y-89268139D02*
X133628499Y-89220520D01*
X133628499Y-89220520D02*
X133580880Y-89172900D01*
X133580880Y-89172900D02*
X133580880Y-89268139D01*
X133104690Y-89172900D02*
X133057071Y-89220520D01*
X133057071Y-89220520D02*
X133104690Y-89268139D01*
X133104690Y-89268139D02*
X133152309Y-89220520D01*
X133152309Y-89220520D02*
X133104690Y-89172900D01*
X133104690Y-89172900D02*
X133104690Y-89268139D01*
X132628500Y-89172900D02*
X132580881Y-89220520D01*
X132580881Y-89220520D02*
X132628500Y-89268139D01*
X132628500Y-89268139D02*
X132676119Y-89220520D01*
X132676119Y-89220520D02*
X132628500Y-89172900D01*
X132628500Y-89172900D02*
X132628500Y-89268139D01*
X132152310Y-89172900D02*
X132104691Y-89220520D01*
X132104691Y-89220520D02*
X132152310Y-89268139D01*
X132152310Y-89268139D02*
X132199929Y-89220520D01*
X132199929Y-89220520D02*
X132152310Y-89172900D01*
X132152310Y-89172900D02*
X132152310Y-89268139D01*
X131676120Y-89172900D02*
X131628501Y-89220520D01*
X131628501Y-89220520D02*
X131676120Y-89268139D01*
X131676120Y-89268139D02*
X131723739Y-89220520D01*
X131723739Y-89220520D02*
X131676120Y-89172900D01*
X131676120Y-89172900D02*
X131676120Y-89268139D01*
X131199930Y-89172900D02*
X131152311Y-89220520D01*
X131152311Y-89220520D02*
X131199930Y-89268139D01*
X131199930Y-89268139D02*
X131247549Y-89220520D01*
X131247549Y-89220520D02*
X131199930Y-89172900D01*
X131199930Y-89172900D02*
X131199930Y-89268139D01*
X130723740Y-89172900D02*
X130676121Y-89220520D01*
X130676121Y-89220520D02*
X130723740Y-89268139D01*
X130723740Y-89268139D02*
X130771359Y-89220520D01*
X130771359Y-89220520D02*
X130723740Y-89172900D01*
X130723740Y-89172900D02*
X130723740Y-89268139D01*
X130247550Y-89172900D02*
X130199931Y-89220520D01*
X130199931Y-89220520D02*
X130247550Y-89268139D01*
X130247550Y-89268139D02*
X130295169Y-89220520D01*
X130295169Y-89220520D02*
X130247550Y-89172900D01*
X130247550Y-89172900D02*
X130247550Y-89268139D01*
X129771360Y-89172900D02*
X129723741Y-89220520D01*
X129723741Y-89220520D02*
X129771360Y-89268139D01*
X129771360Y-89268139D02*
X129818979Y-89220520D01*
X129818979Y-89220520D02*
X129771360Y-89172900D01*
X129771360Y-89172900D02*
X129771360Y-89268139D01*
X129295170Y-89172900D02*
X129247551Y-89220520D01*
X129247551Y-89220520D02*
X129295170Y-89268139D01*
X129295170Y-89268139D02*
X129342789Y-89220520D01*
X129342789Y-89220520D02*
X129295170Y-89172900D01*
X129295170Y-89172900D02*
X129295170Y-89268139D01*
X128818980Y-89172900D02*
X128771361Y-89220520D01*
X128771361Y-89220520D02*
X128818980Y-89268139D01*
X128818980Y-89268139D02*
X128866599Y-89220520D01*
X128866599Y-89220520D02*
X128818980Y-89172900D01*
X128818980Y-89172900D02*
X128818980Y-89268139D01*
X128342790Y-89172900D02*
X128295171Y-89220520D01*
X128295171Y-89220520D02*
X128342790Y-89268139D01*
X128342790Y-89268139D02*
X128390409Y-89220520D01*
X128390409Y-89220520D02*
X128342790Y-89172900D01*
X128342790Y-89172900D02*
X128342790Y-89268139D01*
X158628474Y-89878083D02*
X158437998Y-89878083D01*
X158437998Y-89878083D02*
X158342760Y-89925702D01*
X158342760Y-89925702D02*
X158247522Y-90020940D01*
X158247522Y-90020940D02*
X158199903Y-90211416D01*
X158199903Y-90211416D02*
X158199903Y-90544749D01*
X158199903Y-90544749D02*
X158247522Y-90735225D01*
X158247522Y-90735225D02*
X158342760Y-90830464D01*
X158342760Y-90830464D02*
X158437998Y-90878083D01*
X158437998Y-90878083D02*
X158628474Y-90878083D01*
X158628474Y-90878083D02*
X158723712Y-90830464D01*
X158723712Y-90830464D02*
X158818950Y-90735225D01*
X158818950Y-90735225D02*
X158866569Y-90544749D01*
X158866569Y-90544749D02*
X158866569Y-90211416D01*
X158866569Y-90211416D02*
X158818950Y-90020940D01*
X158818950Y-90020940D02*
X158723712Y-89925702D01*
X158723712Y-89925702D02*
X158628474Y-89878083D01*
X157771331Y-90878083D02*
X157771331Y-89878083D01*
X157771331Y-89878083D02*
X157390379Y-89878083D01*
X157390379Y-89878083D02*
X157295141Y-89925702D01*
X157295141Y-89925702D02*
X157247522Y-89973321D01*
X157247522Y-89973321D02*
X157199903Y-90068559D01*
X157199903Y-90068559D02*
X157199903Y-90211416D01*
X157199903Y-90211416D02*
X157247522Y-90306654D01*
X157247522Y-90306654D02*
X157295141Y-90354273D01*
X157295141Y-90354273D02*
X157390379Y-90401892D01*
X157390379Y-90401892D02*
X157771331Y-90401892D01*
X156771331Y-90354273D02*
X156437998Y-90354273D01*
X156295141Y-90878083D02*
X156771331Y-90878083D01*
X156771331Y-90878083D02*
X156771331Y-89878083D01*
X156771331Y-89878083D02*
X156295141Y-89878083D01*
X155866569Y-90878083D02*
X155866569Y-89878083D01*
X155866569Y-89878083D02*
X155295141Y-90878083D01*
X155295141Y-90878083D02*
X155295141Y-89878083D01*
X154104664Y-90830464D02*
X153961807Y-90878083D01*
X153961807Y-90878083D02*
X153723712Y-90878083D01*
X153723712Y-90878083D02*
X153628474Y-90830464D01*
X153628474Y-90830464D02*
X153580855Y-90782844D01*
X153580855Y-90782844D02*
X153533236Y-90687606D01*
X153533236Y-90687606D02*
X153533236Y-90592368D01*
X153533236Y-90592368D02*
X153580855Y-90497130D01*
X153580855Y-90497130D02*
X153628474Y-90449511D01*
X153628474Y-90449511D02*
X153723712Y-90401892D01*
X153723712Y-90401892D02*
X153914188Y-90354273D01*
X153914188Y-90354273D02*
X154009426Y-90306654D01*
X154009426Y-90306654D02*
X154057045Y-90259035D01*
X154057045Y-90259035D02*
X154104664Y-90163797D01*
X154104664Y-90163797D02*
X154104664Y-90068559D01*
X154104664Y-90068559D02*
X154057045Y-89973321D01*
X154057045Y-89973321D02*
X154009426Y-89925702D01*
X154009426Y-89925702D02*
X153914188Y-89878083D01*
X153914188Y-89878083D02*
X153676093Y-89878083D01*
X153676093Y-89878083D02*
X153533236Y-89925702D01*
X152914188Y-89878083D02*
X152723712Y-89878083D01*
X152723712Y-89878083D02*
X152628474Y-89925702D01*
X152628474Y-89925702D02*
X152533236Y-90020940D01*
X152533236Y-90020940D02*
X152485617Y-90211416D01*
X152485617Y-90211416D02*
X152485617Y-90544749D01*
X152485617Y-90544749D02*
X152533236Y-90735225D01*
X152533236Y-90735225D02*
X152628474Y-90830464D01*
X152628474Y-90830464D02*
X152723712Y-90878083D01*
X152723712Y-90878083D02*
X152914188Y-90878083D01*
X152914188Y-90878083D02*
X153009426Y-90830464D01*
X153009426Y-90830464D02*
X153104664Y-90735225D01*
X153104664Y-90735225D02*
X153152283Y-90544749D01*
X153152283Y-90544749D02*
X153152283Y-90211416D01*
X153152283Y-90211416D02*
X153104664Y-90020940D01*
X153104664Y-90020940D02*
X153009426Y-89925702D01*
X153009426Y-89925702D02*
X152914188Y-89878083D01*
X152057045Y-89878083D02*
X152057045Y-90687606D01*
X152057045Y-90687606D02*
X152009426Y-90782844D01*
X152009426Y-90782844D02*
X151961807Y-90830464D01*
X151961807Y-90830464D02*
X151866569Y-90878083D01*
X151866569Y-90878083D02*
X151676093Y-90878083D01*
X151676093Y-90878083D02*
X151580855Y-90830464D01*
X151580855Y-90830464D02*
X151533236Y-90782844D01*
X151533236Y-90782844D02*
X151485617Y-90687606D01*
X151485617Y-90687606D02*
X151485617Y-89878083D01*
X150437998Y-90878083D02*
X150771331Y-90401892D01*
X151009426Y-90878083D02*
X151009426Y-89878083D01*
X151009426Y-89878083D02*
X150628474Y-89878083D01*
X150628474Y-89878083D02*
X150533236Y-89925702D01*
X150533236Y-89925702D02*
X150485617Y-89973321D01*
X150485617Y-89973321D02*
X150437998Y-90068559D01*
X150437998Y-90068559D02*
X150437998Y-90211416D01*
X150437998Y-90211416D02*
X150485617Y-90306654D01*
X150485617Y-90306654D02*
X150533236Y-90354273D01*
X150533236Y-90354273D02*
X150628474Y-90401892D01*
X150628474Y-90401892D02*
X151009426Y-90401892D01*
X149437998Y-90782844D02*
X149485617Y-90830464D01*
X149485617Y-90830464D02*
X149628474Y-90878083D01*
X149628474Y-90878083D02*
X149723712Y-90878083D01*
X149723712Y-90878083D02*
X149866569Y-90830464D01*
X149866569Y-90830464D02*
X149961807Y-90735225D01*
X149961807Y-90735225D02*
X150009426Y-90639987D01*
X150009426Y-90639987D02*
X150057045Y-90449511D01*
X150057045Y-90449511D02*
X150057045Y-90306654D01*
X150057045Y-90306654D02*
X150009426Y-90116178D01*
X150009426Y-90116178D02*
X149961807Y-90020940D01*
X149961807Y-90020940D02*
X149866569Y-89925702D01*
X149866569Y-89925702D02*
X149723712Y-89878083D01*
X149723712Y-89878083D02*
X149628474Y-89878083D01*
X149628474Y-89878083D02*
X149485617Y-89925702D01*
X149485617Y-89925702D02*
X149437998Y-89973321D01*
X149009426Y-90354273D02*
X148676093Y-90354273D01*
X148533236Y-90878083D02*
X149009426Y-90878083D01*
X149009426Y-90878083D02*
X149009426Y-89878083D01*
X149009426Y-89878083D02*
X148533236Y-89878083D01*
X147342759Y-90354273D02*
X147009426Y-90354273D01*
X146866569Y-90878083D02*
X147342759Y-90878083D01*
X147342759Y-90878083D02*
X147342759Y-89878083D01*
X147342759Y-89878083D02*
X146866569Y-89878083D01*
X145961807Y-90878083D02*
X146437997Y-90878083D01*
X146437997Y-90878083D02*
X146437997Y-89878083D01*
X145628473Y-90354273D02*
X145295140Y-90354273D01*
X145152283Y-90878083D02*
X145628473Y-90878083D01*
X145628473Y-90878083D02*
X145628473Y-89878083D01*
X145628473Y-89878083D02*
X145152283Y-89878083D01*
X144152283Y-90782844D02*
X144199902Y-90830464D01*
X144199902Y-90830464D02*
X144342759Y-90878083D01*
X144342759Y-90878083D02*
X144437997Y-90878083D01*
X144437997Y-90878083D02*
X144580854Y-90830464D01*
X144580854Y-90830464D02*
X144676092Y-90735225D01*
X144676092Y-90735225D02*
X144723711Y-90639987D01*
X144723711Y-90639987D02*
X144771330Y-90449511D01*
X144771330Y-90449511D02*
X144771330Y-90306654D01*
X144771330Y-90306654D02*
X144723711Y-90116178D01*
X144723711Y-90116178D02*
X144676092Y-90020940D01*
X144676092Y-90020940D02*
X144580854Y-89925702D01*
X144580854Y-89925702D02*
X144437997Y-89878083D01*
X144437997Y-89878083D02*
X144342759Y-89878083D01*
X144342759Y-89878083D02*
X144199902Y-89925702D01*
X144199902Y-89925702D02*
X144152283Y-89973321D01*
X143866568Y-89878083D02*
X143295140Y-89878083D01*
X143580854Y-90878083D02*
X143580854Y-89878083D01*
X142390378Y-90878083D02*
X142723711Y-90401892D01*
X142961806Y-90878083D02*
X142961806Y-89878083D01*
X142961806Y-89878083D02*
X142580854Y-89878083D01*
X142580854Y-89878083D02*
X142485616Y-89925702D01*
X142485616Y-89925702D02*
X142437997Y-89973321D01*
X142437997Y-89973321D02*
X142390378Y-90068559D01*
X142390378Y-90068559D02*
X142390378Y-90211416D01*
X142390378Y-90211416D02*
X142437997Y-90306654D01*
X142437997Y-90306654D02*
X142485616Y-90354273D01*
X142485616Y-90354273D02*
X142580854Y-90401892D01*
X142580854Y-90401892D02*
X142961806Y-90401892D01*
X141771330Y-89878083D02*
X141580854Y-89878083D01*
X141580854Y-89878083D02*
X141485616Y-89925702D01*
X141485616Y-89925702D02*
X141390378Y-90020940D01*
X141390378Y-90020940D02*
X141342759Y-90211416D01*
X141342759Y-90211416D02*
X141342759Y-90544749D01*
X141342759Y-90544749D02*
X141390378Y-90735225D01*
X141390378Y-90735225D02*
X141485616Y-90830464D01*
X141485616Y-90830464D02*
X141580854Y-90878083D01*
X141580854Y-90878083D02*
X141771330Y-90878083D01*
X141771330Y-90878083D02*
X141866568Y-90830464D01*
X141866568Y-90830464D02*
X141961806Y-90735225D01*
X141961806Y-90735225D02*
X142009425Y-90544749D01*
X142009425Y-90544749D02*
X142009425Y-90211416D01*
X142009425Y-90211416D02*
X141961806Y-90020940D01*
X141961806Y-90020940D02*
X141866568Y-89925702D01*
X141866568Y-89925702D02*
X141771330Y-89878083D01*
X140914187Y-90878083D02*
X140914187Y-89878083D01*
X140914187Y-89878083D02*
X140342759Y-90878083D01*
X140342759Y-90878083D02*
X140342759Y-89878083D01*
X139866568Y-90878083D02*
X139866568Y-89878083D01*
X138818950Y-90782844D02*
X138866569Y-90830464D01*
X138866569Y-90830464D02*
X139009426Y-90878083D01*
X139009426Y-90878083D02*
X139104664Y-90878083D01*
X139104664Y-90878083D02*
X139247521Y-90830464D01*
X139247521Y-90830464D02*
X139342759Y-90735225D01*
X139342759Y-90735225D02*
X139390378Y-90639987D01*
X139390378Y-90639987D02*
X139437997Y-90449511D01*
X139437997Y-90449511D02*
X139437997Y-90306654D01*
X139437997Y-90306654D02*
X139390378Y-90116178D01*
X139390378Y-90116178D02*
X139342759Y-90020940D01*
X139342759Y-90020940D02*
X139247521Y-89925702D01*
X139247521Y-89925702D02*
X139104664Y-89878083D01*
X139104664Y-89878083D02*
X139009426Y-89878083D01*
X139009426Y-89878083D02*
X138866569Y-89925702D01*
X138866569Y-89925702D02*
X138818950Y-89973321D01*
X138437997Y-90830464D02*
X138295140Y-90878083D01*
X138295140Y-90878083D02*
X138057045Y-90878083D01*
X138057045Y-90878083D02*
X137961807Y-90830464D01*
X137961807Y-90830464D02*
X137914188Y-90782844D01*
X137914188Y-90782844D02*
X137866569Y-90687606D01*
X137866569Y-90687606D02*
X137866569Y-90592368D01*
X137866569Y-90592368D02*
X137914188Y-90497130D01*
X137914188Y-90497130D02*
X137961807Y-90449511D01*
X137961807Y-90449511D02*
X138057045Y-90401892D01*
X138057045Y-90401892D02*
X138247521Y-90354273D01*
X138247521Y-90354273D02*
X138342759Y-90306654D01*
X138342759Y-90306654D02*
X138390378Y-90259035D01*
X138390378Y-90259035D02*
X138437997Y-90163797D01*
X138437997Y-90163797D02*
X138437997Y-90068559D01*
X138437997Y-90068559D02*
X138390378Y-89973321D01*
X138390378Y-89973321D02*
X138342759Y-89925702D01*
X138342759Y-89925702D02*
X138247521Y-89878083D01*
X138247521Y-89878083D02*
X138009426Y-89878083D01*
X138009426Y-89878083D02*
X137866569Y-89925702D01*
X158818950Y-92488027D02*
X158818950Y-91488027D01*
X158818950Y-91488027D02*
X158437998Y-91488027D01*
X158437998Y-91488027D02*
X158342760Y-91535646D01*
X158342760Y-91535646D02*
X158295141Y-91583265D01*
X158295141Y-91583265D02*
X158247522Y-91678503D01*
X158247522Y-91678503D02*
X158247522Y-91821360D01*
X158247522Y-91821360D02*
X158295141Y-91916598D01*
X158295141Y-91916598D02*
X158342760Y-91964217D01*
X158342760Y-91964217D02*
X158437998Y-92011836D01*
X158437998Y-92011836D02*
X158818950Y-92011836D01*
X157247522Y-92488027D02*
X157580855Y-92011836D01*
X157818950Y-92488027D02*
X157818950Y-91488027D01*
X157818950Y-91488027D02*
X157437998Y-91488027D01*
X157437998Y-91488027D02*
X157342760Y-91535646D01*
X157342760Y-91535646D02*
X157295141Y-91583265D01*
X157295141Y-91583265D02*
X157247522Y-91678503D01*
X157247522Y-91678503D02*
X157247522Y-91821360D01*
X157247522Y-91821360D02*
X157295141Y-91916598D01*
X157295141Y-91916598D02*
X157342760Y-91964217D01*
X157342760Y-91964217D02*
X157437998Y-92011836D01*
X157437998Y-92011836D02*
X157818950Y-92011836D01*
X156628474Y-91488027D02*
X156437998Y-91488027D01*
X156437998Y-91488027D02*
X156342760Y-91535646D01*
X156342760Y-91535646D02*
X156247522Y-91630884D01*
X156247522Y-91630884D02*
X156199903Y-91821360D01*
X156199903Y-91821360D02*
X156199903Y-92154693D01*
X156199903Y-92154693D02*
X156247522Y-92345169D01*
X156247522Y-92345169D02*
X156342760Y-92440408D01*
X156342760Y-92440408D02*
X156437998Y-92488027D01*
X156437998Y-92488027D02*
X156628474Y-92488027D01*
X156628474Y-92488027D02*
X156723712Y-92440408D01*
X156723712Y-92440408D02*
X156818950Y-92345169D01*
X156818950Y-92345169D02*
X156866569Y-92154693D01*
X156866569Y-92154693D02*
X156866569Y-91821360D01*
X156866569Y-91821360D02*
X156818950Y-91630884D01*
X156818950Y-91630884D02*
X156723712Y-91535646D01*
X156723712Y-91535646D02*
X156628474Y-91488027D01*
X155914188Y-91488027D02*
X155342760Y-91488027D01*
X155628474Y-92488027D02*
X155628474Y-91488027D01*
X154818950Y-91488027D02*
X154628474Y-91488027D01*
X154628474Y-91488027D02*
X154533236Y-91535646D01*
X154533236Y-91535646D02*
X154437998Y-91630884D01*
X154437998Y-91630884D02*
X154390379Y-91821360D01*
X154390379Y-91821360D02*
X154390379Y-92154693D01*
X154390379Y-92154693D02*
X154437998Y-92345169D01*
X154437998Y-92345169D02*
X154533236Y-92440408D01*
X154533236Y-92440408D02*
X154628474Y-92488027D01*
X154628474Y-92488027D02*
X154818950Y-92488027D01*
X154818950Y-92488027D02*
X154914188Y-92440408D01*
X154914188Y-92440408D02*
X155009426Y-92345169D01*
X155009426Y-92345169D02*
X155057045Y-92154693D01*
X155057045Y-92154693D02*
X155057045Y-91821360D01*
X155057045Y-91821360D02*
X155009426Y-91630884D01*
X155009426Y-91630884D02*
X154914188Y-91535646D01*
X154914188Y-91535646D02*
X154818950Y-91488027D01*
X154104664Y-91488027D02*
X153533236Y-91488027D01*
X153818950Y-92488027D02*
X153818950Y-91488027D01*
X153009426Y-92011836D02*
X153009426Y-92488027D01*
X153342759Y-91488027D02*
X153009426Y-92011836D01*
X153009426Y-92011836D02*
X152676093Y-91488027D01*
X152342759Y-92488027D02*
X152342759Y-91488027D01*
X152342759Y-91488027D02*
X151961807Y-91488027D01*
X151961807Y-91488027D02*
X151866569Y-91535646D01*
X151866569Y-91535646D02*
X151818950Y-91583265D01*
X151818950Y-91583265D02*
X151771331Y-91678503D01*
X151771331Y-91678503D02*
X151771331Y-91821360D01*
X151771331Y-91821360D02*
X151818950Y-91916598D01*
X151818950Y-91916598D02*
X151866569Y-91964217D01*
X151866569Y-91964217D02*
X151961807Y-92011836D01*
X151961807Y-92011836D02*
X152342759Y-92011836D01*
X151342759Y-92488027D02*
X151342759Y-91488027D01*
X150866569Y-92488027D02*
X150866569Y-91488027D01*
X150866569Y-91488027D02*
X150295141Y-92488027D01*
X150295141Y-92488027D02*
X150295141Y-91488027D01*
X149295141Y-91535646D02*
X149390379Y-91488027D01*
X149390379Y-91488027D02*
X149533236Y-91488027D01*
X149533236Y-91488027D02*
X149676093Y-91535646D01*
X149676093Y-91535646D02*
X149771331Y-91630884D01*
X149771331Y-91630884D02*
X149818950Y-91726122D01*
X149818950Y-91726122D02*
X149866569Y-91916598D01*
X149866569Y-91916598D02*
X149866569Y-92059455D01*
X149866569Y-92059455D02*
X149818950Y-92249931D01*
X149818950Y-92249931D02*
X149771331Y-92345169D01*
X149771331Y-92345169D02*
X149676093Y-92440408D01*
X149676093Y-92440408D02*
X149533236Y-92488027D01*
X149533236Y-92488027D02*
X149437998Y-92488027D01*
X149437998Y-92488027D02*
X149295141Y-92440408D01*
X149295141Y-92440408D02*
X149247522Y-92392788D01*
X149247522Y-92392788D02*
X149247522Y-92059455D01*
X149247522Y-92059455D02*
X149437998Y-92059455D01*
X148057045Y-92488027D02*
X148057045Y-91488027D01*
X148057045Y-91488027D02*
X147676093Y-91488027D01*
X147676093Y-91488027D02*
X147580855Y-91535646D01*
X147580855Y-91535646D02*
X147533236Y-91583265D01*
X147533236Y-91583265D02*
X147485617Y-91678503D01*
X147485617Y-91678503D02*
X147485617Y-91821360D01*
X147485617Y-91821360D02*
X147533236Y-91916598D01*
X147533236Y-91916598D02*
X147580855Y-91964217D01*
X147580855Y-91964217D02*
X147676093Y-92011836D01*
X147676093Y-92011836D02*
X148057045Y-92011836D01*
X146580855Y-92488027D02*
X147057045Y-92488027D01*
X147057045Y-92488027D02*
X147057045Y-91488027D01*
X146295140Y-92202312D02*
X145818950Y-92202312D01*
X146390378Y-92488027D02*
X146057045Y-91488027D01*
X146057045Y-91488027D02*
X145723712Y-92488027D01*
X145533235Y-91488027D02*
X144961807Y-91488027D01*
X145247521Y-92488027D02*
X145247521Y-91488027D01*
X144295140Y-91964217D02*
X144628473Y-91964217D01*
X144628473Y-92488027D02*
X144628473Y-91488027D01*
X144628473Y-91488027D02*
X144152283Y-91488027D01*
X143580854Y-91488027D02*
X143390378Y-91488027D01*
X143390378Y-91488027D02*
X143295140Y-91535646D01*
X143295140Y-91535646D02*
X143199902Y-91630884D01*
X143199902Y-91630884D02*
X143152283Y-91821360D01*
X143152283Y-91821360D02*
X143152283Y-92154693D01*
X143152283Y-92154693D02*
X143199902Y-92345169D01*
X143199902Y-92345169D02*
X143295140Y-92440408D01*
X143295140Y-92440408D02*
X143390378Y-92488027D01*
X143390378Y-92488027D02*
X143580854Y-92488027D01*
X143580854Y-92488027D02*
X143676092Y-92440408D01*
X143676092Y-92440408D02*
X143771330Y-92345169D01*
X143771330Y-92345169D02*
X143818949Y-92154693D01*
X143818949Y-92154693D02*
X143818949Y-91821360D01*
X143818949Y-91821360D02*
X143771330Y-91630884D01*
X143771330Y-91630884D02*
X143676092Y-91535646D01*
X143676092Y-91535646D02*
X143580854Y-91488027D01*
X142152283Y-92488027D02*
X142485616Y-92011836D01*
X142723711Y-92488027D02*
X142723711Y-91488027D01*
X142723711Y-91488027D02*
X142342759Y-91488027D01*
X142342759Y-91488027D02*
X142247521Y-91535646D01*
X142247521Y-91535646D02*
X142199902Y-91583265D01*
X142199902Y-91583265D02*
X142152283Y-91678503D01*
X142152283Y-91678503D02*
X142152283Y-91821360D01*
X142152283Y-91821360D02*
X142199902Y-91916598D01*
X142199902Y-91916598D02*
X142247521Y-91964217D01*
X142247521Y-91964217D02*
X142342759Y-92011836D01*
X142342759Y-92011836D02*
X142723711Y-92011836D01*
X141723711Y-92488027D02*
X141723711Y-91488027D01*
X141723711Y-91488027D02*
X141390378Y-92202312D01*
X141390378Y-92202312D02*
X141057045Y-91488027D01*
X141057045Y-91488027D02*
X141057045Y-92488027D01*
X158818950Y-94002732D02*
X158771331Y-94050352D01*
X158771331Y-94050352D02*
X158818950Y-94097971D01*
X158818950Y-94097971D02*
X158866569Y-94050352D01*
X158866569Y-94050352D02*
X158818950Y-94002732D01*
X158818950Y-94002732D02*
X158818950Y-94097971D01*
X158342760Y-94002732D02*
X158295141Y-94050352D01*
X158295141Y-94050352D02*
X158342760Y-94097971D01*
X158342760Y-94097971D02*
X158390379Y-94050352D01*
X158390379Y-94050352D02*
X158342760Y-94002732D01*
X158342760Y-94002732D02*
X158342760Y-94097971D01*
X157866570Y-94002732D02*
X157818951Y-94050352D01*
X157818951Y-94050352D02*
X157866570Y-94097971D01*
X157866570Y-94097971D02*
X157914189Y-94050352D01*
X157914189Y-94050352D02*
X157866570Y-94002732D01*
X157866570Y-94002732D02*
X157866570Y-94097971D01*
X157390380Y-94002732D02*
X157342761Y-94050352D01*
X157342761Y-94050352D02*
X157390380Y-94097971D01*
X157390380Y-94097971D02*
X157437999Y-94050352D01*
X157437999Y-94050352D02*
X157390380Y-94002732D01*
X157390380Y-94002732D02*
X157390380Y-94097971D01*
X156914190Y-94002732D02*
X156866571Y-94050352D01*
X156866571Y-94050352D02*
X156914190Y-94097971D01*
X156914190Y-94097971D02*
X156961809Y-94050352D01*
X156961809Y-94050352D02*
X156914190Y-94002732D01*
X156914190Y-94002732D02*
X156914190Y-94097971D01*
X156438000Y-94002732D02*
X156390381Y-94050352D01*
X156390381Y-94050352D02*
X156438000Y-94097971D01*
X156438000Y-94097971D02*
X156485619Y-94050352D01*
X156485619Y-94050352D02*
X156438000Y-94002732D01*
X156438000Y-94002732D02*
X156438000Y-94097971D01*
X155961810Y-94002732D02*
X155914191Y-94050352D01*
X155914191Y-94050352D02*
X155961810Y-94097971D01*
X155961810Y-94097971D02*
X156009429Y-94050352D01*
X156009429Y-94050352D02*
X155961810Y-94002732D01*
X155961810Y-94002732D02*
X155961810Y-94097971D01*
X155485620Y-94002732D02*
X155438001Y-94050352D01*
X155438001Y-94050352D02*
X155485620Y-94097971D01*
X155485620Y-94097971D02*
X155533239Y-94050352D01*
X155533239Y-94050352D02*
X155485620Y-94002732D01*
X155485620Y-94002732D02*
X155485620Y-94097971D01*
X155009430Y-94002732D02*
X154961811Y-94050352D01*
X154961811Y-94050352D02*
X155009430Y-94097971D01*
X155009430Y-94097971D02*
X155057049Y-94050352D01*
X155057049Y-94050352D02*
X155009430Y-94002732D01*
X155009430Y-94002732D02*
X155009430Y-94097971D01*
X154533240Y-94002732D02*
X154485621Y-94050352D01*
X154485621Y-94050352D02*
X154533240Y-94097971D01*
X154533240Y-94097971D02*
X154580859Y-94050352D01*
X154580859Y-94050352D02*
X154533240Y-94002732D01*
X154533240Y-94002732D02*
X154533240Y-94097971D01*
X154057050Y-94002732D02*
X154009431Y-94050352D01*
X154009431Y-94050352D02*
X154057050Y-94097971D01*
X154057050Y-94097971D02*
X154104669Y-94050352D01*
X154104669Y-94050352D02*
X154057050Y-94002732D01*
X154057050Y-94002732D02*
X154057050Y-94097971D01*
X153580860Y-94002732D02*
X153533241Y-94050352D01*
X153533241Y-94050352D02*
X153580860Y-94097971D01*
X153580860Y-94097971D02*
X153628479Y-94050352D01*
X153628479Y-94050352D02*
X153580860Y-94002732D01*
X153580860Y-94002732D02*
X153580860Y-94097971D01*
X153104670Y-94002732D02*
X153057051Y-94050352D01*
X153057051Y-94050352D02*
X153104670Y-94097971D01*
X153104670Y-94097971D02*
X153152289Y-94050352D01*
X153152289Y-94050352D02*
X153104670Y-94002732D01*
X153104670Y-94002732D02*
X153104670Y-94097971D01*
X152628480Y-94002732D02*
X152580861Y-94050352D01*
X152580861Y-94050352D02*
X152628480Y-94097971D01*
X152628480Y-94097971D02*
X152676099Y-94050352D01*
X152676099Y-94050352D02*
X152628480Y-94002732D01*
X152628480Y-94002732D02*
X152628480Y-94097971D01*
X152152290Y-94002732D02*
X152104671Y-94050352D01*
X152104671Y-94050352D02*
X152152290Y-94097971D01*
X152152290Y-94097971D02*
X152199909Y-94050352D01*
X152199909Y-94050352D02*
X152152290Y-94002732D01*
X152152290Y-94002732D02*
X152152290Y-94097971D01*
X151676100Y-94002732D02*
X151628481Y-94050352D01*
X151628481Y-94050352D02*
X151676100Y-94097971D01*
X151676100Y-94097971D02*
X151723719Y-94050352D01*
X151723719Y-94050352D02*
X151676100Y-94002732D01*
X151676100Y-94002732D02*
X151676100Y-94097971D01*
X151199910Y-94002732D02*
X151152291Y-94050352D01*
X151152291Y-94050352D02*
X151199910Y-94097971D01*
X151199910Y-94097971D02*
X151247529Y-94050352D01*
X151247529Y-94050352D02*
X151199910Y-94002732D01*
X151199910Y-94002732D02*
X151199910Y-94097971D01*
X150723720Y-94002732D02*
X150676101Y-94050352D01*
X150676101Y-94050352D02*
X150723720Y-94097971D01*
X150723720Y-94097971D02*
X150771339Y-94050352D01*
X150771339Y-94050352D02*
X150723720Y-94002732D01*
X150723720Y-94002732D02*
X150723720Y-94097971D01*
X150247530Y-94002732D02*
X150199911Y-94050352D01*
X150199911Y-94050352D02*
X150247530Y-94097971D01*
X150247530Y-94097971D02*
X150295149Y-94050352D01*
X150295149Y-94050352D02*
X150247530Y-94002732D01*
X150247530Y-94002732D02*
X150247530Y-94097971D01*
X149771340Y-94002732D02*
X149723721Y-94050352D01*
X149723721Y-94050352D02*
X149771340Y-94097971D01*
X149771340Y-94097971D02*
X149818959Y-94050352D01*
X149818959Y-94050352D02*
X149771340Y-94002732D01*
X149771340Y-94002732D02*
X149771340Y-94097971D01*
X149295150Y-94002732D02*
X149247531Y-94050352D01*
X149247531Y-94050352D02*
X149295150Y-94097971D01*
X149295150Y-94097971D02*
X149342769Y-94050352D01*
X149342769Y-94050352D02*
X149295150Y-94002732D01*
X149295150Y-94002732D02*
X149295150Y-94097971D01*
X148818960Y-94002732D02*
X148771341Y-94050352D01*
X148771341Y-94050352D02*
X148818960Y-94097971D01*
X148818960Y-94097971D02*
X148866579Y-94050352D01*
X148866579Y-94050352D02*
X148818960Y-94002732D01*
X148818960Y-94002732D02*
X148818960Y-94097971D01*
X148342770Y-94002732D02*
X148295151Y-94050352D01*
X148295151Y-94050352D02*
X148342770Y-94097971D01*
X148342770Y-94097971D02*
X148390389Y-94050352D01*
X148390389Y-94050352D02*
X148342770Y-94002732D01*
X148342770Y-94002732D02*
X148342770Y-94097971D01*
X147866580Y-94002732D02*
X147818961Y-94050352D01*
X147818961Y-94050352D02*
X147866580Y-94097971D01*
X147866580Y-94097971D02*
X147914199Y-94050352D01*
X147914199Y-94050352D02*
X147866580Y-94002732D01*
X147866580Y-94002732D02*
X147866580Y-94097971D01*
X147390390Y-94002732D02*
X147342771Y-94050352D01*
X147342771Y-94050352D02*
X147390390Y-94097971D01*
X147390390Y-94097971D02*
X147438009Y-94050352D01*
X147438009Y-94050352D02*
X147390390Y-94002732D01*
X147390390Y-94002732D02*
X147390390Y-94097971D01*
X146914200Y-94002732D02*
X146866581Y-94050352D01*
X146866581Y-94050352D02*
X146914200Y-94097971D01*
X146914200Y-94097971D02*
X146961819Y-94050352D01*
X146961819Y-94050352D02*
X146914200Y-94002732D01*
X146914200Y-94002732D02*
X146914200Y-94097971D01*
X146438010Y-94002732D02*
X146390391Y-94050352D01*
X146390391Y-94050352D02*
X146438010Y-94097971D01*
X146438010Y-94097971D02*
X146485629Y-94050352D01*
X146485629Y-94050352D02*
X146438010Y-94002732D01*
X146438010Y-94002732D02*
X146438010Y-94097971D01*
X145961820Y-94002732D02*
X145914201Y-94050352D01*
X145914201Y-94050352D02*
X145961820Y-94097971D01*
X145961820Y-94097971D02*
X146009439Y-94050352D01*
X146009439Y-94050352D02*
X145961820Y-94002732D01*
X145961820Y-94002732D02*
X145961820Y-94097971D01*
X145485630Y-94002732D02*
X145438011Y-94050352D01*
X145438011Y-94050352D02*
X145485630Y-94097971D01*
X145485630Y-94097971D02*
X145533249Y-94050352D01*
X145533249Y-94050352D02*
X145485630Y-94002732D01*
X145485630Y-94002732D02*
X145485630Y-94097971D01*
X145009440Y-94002732D02*
X144961821Y-94050352D01*
X144961821Y-94050352D02*
X145009440Y-94097971D01*
X145009440Y-94097971D02*
X145057059Y-94050352D01*
X145057059Y-94050352D02*
X145009440Y-94002732D01*
X145009440Y-94002732D02*
X145009440Y-94097971D01*
X144533250Y-94002732D02*
X144485631Y-94050352D01*
X144485631Y-94050352D02*
X144533250Y-94097971D01*
X144533250Y-94097971D02*
X144580869Y-94050352D01*
X144580869Y-94050352D02*
X144533250Y-94002732D01*
X144533250Y-94002732D02*
X144533250Y-94097971D01*
X144057060Y-94002732D02*
X144009441Y-94050352D01*
X144009441Y-94050352D02*
X144057060Y-94097971D01*
X144057060Y-94097971D02*
X144104679Y-94050352D01*
X144104679Y-94050352D02*
X144057060Y-94002732D01*
X144057060Y-94002732D02*
X144057060Y-94097971D01*
X143580870Y-94002732D02*
X143533251Y-94050352D01*
X143533251Y-94050352D02*
X143580870Y-94097971D01*
X143580870Y-94097971D02*
X143628489Y-94050352D01*
X143628489Y-94050352D02*
X143580870Y-94002732D01*
X143580870Y-94002732D02*
X143580870Y-94097971D01*
X143104680Y-94002732D02*
X143057061Y-94050352D01*
X143057061Y-94050352D02*
X143104680Y-94097971D01*
X143104680Y-94097971D02*
X143152299Y-94050352D01*
X143152299Y-94050352D02*
X143104680Y-94002732D01*
X143104680Y-94002732D02*
X143104680Y-94097971D01*
X142628490Y-94002732D02*
X142580871Y-94050352D01*
X142580871Y-94050352D02*
X142628490Y-94097971D01*
X142628490Y-94097971D02*
X142676109Y-94050352D01*
X142676109Y-94050352D02*
X142628490Y-94002732D01*
X142628490Y-94002732D02*
X142628490Y-94097971D01*
X142152300Y-94002732D02*
X142104681Y-94050352D01*
X142104681Y-94050352D02*
X142152300Y-94097971D01*
X142152300Y-94097971D02*
X142199919Y-94050352D01*
X142199919Y-94050352D02*
X142152300Y-94002732D01*
X142152300Y-94002732D02*
X142152300Y-94097971D01*
X141676110Y-94002732D02*
X141628491Y-94050352D01*
X141628491Y-94050352D02*
X141676110Y-94097971D01*
X141676110Y-94097971D02*
X141723729Y-94050352D01*
X141723729Y-94050352D02*
X141676110Y-94002732D01*
X141676110Y-94002732D02*
X141676110Y-94097971D01*
X141199920Y-94002732D02*
X141152301Y-94050352D01*
X141152301Y-94050352D02*
X141199920Y-94097971D01*
X141199920Y-94097971D02*
X141247539Y-94050352D01*
X141247539Y-94050352D02*
X141199920Y-94002732D01*
X141199920Y-94002732D02*
X141199920Y-94097971D01*
X140723730Y-94002732D02*
X140676111Y-94050352D01*
X140676111Y-94050352D02*
X140723730Y-94097971D01*
X140723730Y-94097971D02*
X140771349Y-94050352D01*
X140771349Y-94050352D02*
X140723730Y-94002732D01*
X140723730Y-94002732D02*
X140723730Y-94097971D01*
X140247540Y-94002732D02*
X140199921Y-94050352D01*
X140199921Y-94050352D02*
X140247540Y-94097971D01*
X140247540Y-94097971D02*
X140295159Y-94050352D01*
X140295159Y-94050352D02*
X140247540Y-94002732D01*
X140247540Y-94002732D02*
X140247540Y-94097971D01*
X139771350Y-94002732D02*
X139723731Y-94050352D01*
X139723731Y-94050352D02*
X139771350Y-94097971D01*
X139771350Y-94097971D02*
X139818969Y-94050352D01*
X139818969Y-94050352D02*
X139771350Y-94002732D01*
X139771350Y-94002732D02*
X139771350Y-94097971D01*
X139295160Y-94002732D02*
X139247541Y-94050352D01*
X139247541Y-94050352D02*
X139295160Y-94097971D01*
X139295160Y-94097971D02*
X139342779Y-94050352D01*
X139342779Y-94050352D02*
X139295160Y-94002732D01*
X139295160Y-94002732D02*
X139295160Y-94097971D01*
X138818970Y-94002732D02*
X138771351Y-94050352D01*
X138771351Y-94050352D02*
X138818970Y-94097971D01*
X138818970Y-94097971D02*
X138866589Y-94050352D01*
X138866589Y-94050352D02*
X138818970Y-94002732D01*
X138818970Y-94002732D02*
X138818970Y-94097971D01*
X138342780Y-94002732D02*
X138295161Y-94050352D01*
X138295161Y-94050352D02*
X138342780Y-94097971D01*
X138342780Y-94097971D02*
X138390399Y-94050352D01*
X138390399Y-94050352D02*
X138342780Y-94002732D01*
X138342780Y-94002732D02*
X138342780Y-94097971D01*
X137866590Y-94002732D02*
X137818971Y-94050352D01*
X137818971Y-94050352D02*
X137866590Y-94097971D01*
X137866590Y-94097971D02*
X137914209Y-94050352D01*
X137914209Y-94050352D02*
X137866590Y-94002732D01*
X137866590Y-94002732D02*
X137866590Y-94097971D01*
X137390400Y-94002732D02*
X137342781Y-94050352D01*
X137342781Y-94050352D02*
X137390400Y-94097971D01*
X137390400Y-94097971D02*
X137438019Y-94050352D01*
X137438019Y-94050352D02*
X137390400Y-94002732D01*
X137390400Y-94002732D02*
X137390400Y-94097971D01*
X136914210Y-94002732D02*
X136866591Y-94050352D01*
X136866591Y-94050352D02*
X136914210Y-94097971D01*
X136914210Y-94097971D02*
X136961829Y-94050352D01*
X136961829Y-94050352D02*
X136914210Y-94002732D01*
X136914210Y-94002732D02*
X136914210Y-94097971D01*
X136438020Y-94002732D02*
X136390401Y-94050352D01*
X136390401Y-94050352D02*
X136438020Y-94097971D01*
X136438020Y-94097971D02*
X136485639Y-94050352D01*
X136485639Y-94050352D02*
X136438020Y-94002732D01*
X136438020Y-94002732D02*
X136438020Y-94097971D01*
X135961830Y-94002732D02*
X135914211Y-94050352D01*
X135914211Y-94050352D02*
X135961830Y-94097971D01*
X135961830Y-94097971D02*
X136009449Y-94050352D01*
X136009449Y-94050352D02*
X135961830Y-94002732D01*
X135961830Y-94002732D02*
X135961830Y-94097971D01*
X135485640Y-94002732D02*
X135438021Y-94050352D01*
X135438021Y-94050352D02*
X135485640Y-94097971D01*
X135485640Y-94097971D02*
X135533259Y-94050352D01*
X135533259Y-94050352D02*
X135485640Y-94002732D01*
X135485640Y-94002732D02*
X135485640Y-94097971D01*
X135009450Y-94002732D02*
X134961831Y-94050352D01*
X134961831Y-94050352D02*
X135009450Y-94097971D01*
X135009450Y-94097971D02*
X135057069Y-94050352D01*
X135057069Y-94050352D02*
X135009450Y-94002732D01*
X135009450Y-94002732D02*
X135009450Y-94097971D01*
X134533260Y-94002732D02*
X134485641Y-94050352D01*
X134485641Y-94050352D02*
X134533260Y-94097971D01*
X134533260Y-94097971D02*
X134580879Y-94050352D01*
X134580879Y-94050352D02*
X134533260Y-94002732D01*
X134533260Y-94002732D02*
X134533260Y-94097971D01*
X134057070Y-94002732D02*
X134009451Y-94050352D01*
X134009451Y-94050352D02*
X134057070Y-94097971D01*
X134057070Y-94097971D02*
X134104689Y-94050352D01*
X134104689Y-94050352D02*
X134057070Y-94002732D01*
X134057070Y-94002732D02*
X134057070Y-94097971D01*
X133580880Y-94002732D02*
X133533261Y-94050352D01*
X133533261Y-94050352D02*
X133580880Y-94097971D01*
X133580880Y-94097971D02*
X133628499Y-94050352D01*
X133628499Y-94050352D02*
X133580880Y-94002732D01*
X133580880Y-94002732D02*
X133580880Y-94097971D01*
X133104690Y-94002732D02*
X133057071Y-94050352D01*
X133057071Y-94050352D02*
X133104690Y-94097971D01*
X133104690Y-94097971D02*
X133152309Y-94050352D01*
X133152309Y-94050352D02*
X133104690Y-94002732D01*
X133104690Y-94002732D02*
X133104690Y-94097971D01*
X132628500Y-94002732D02*
X132580881Y-94050352D01*
X132580881Y-94050352D02*
X132628500Y-94097971D01*
X132628500Y-94097971D02*
X132676119Y-94050352D01*
X132676119Y-94050352D02*
X132628500Y-94002732D01*
X132628500Y-94002732D02*
X132628500Y-94097971D01*
X132152310Y-94002732D02*
X132104691Y-94050352D01*
X132104691Y-94050352D02*
X132152310Y-94097971D01*
X132152310Y-94097971D02*
X132199929Y-94050352D01*
X132199929Y-94050352D02*
X132152310Y-94002732D01*
X132152310Y-94002732D02*
X132152310Y-94097971D01*
X131676120Y-94002732D02*
X131628501Y-94050352D01*
X131628501Y-94050352D02*
X131676120Y-94097971D01*
X131676120Y-94097971D02*
X131723739Y-94050352D01*
X131723739Y-94050352D02*
X131676120Y-94002732D01*
X131676120Y-94002732D02*
X131676120Y-94097971D01*
X131199930Y-94002732D02*
X131152311Y-94050352D01*
X131152311Y-94050352D02*
X131199930Y-94097971D01*
X131199930Y-94097971D02*
X131247549Y-94050352D01*
X131247549Y-94050352D02*
X131199930Y-94002732D01*
X131199930Y-94002732D02*
X131199930Y-94097971D01*
X130723740Y-94002732D02*
X130676121Y-94050352D01*
X130676121Y-94050352D02*
X130723740Y-94097971D01*
X130723740Y-94097971D02*
X130771359Y-94050352D01*
X130771359Y-94050352D02*
X130723740Y-94002732D01*
X130723740Y-94002732D02*
X130723740Y-94097971D01*
X130247550Y-94002732D02*
X130199931Y-94050352D01*
X130199931Y-94050352D02*
X130247550Y-94097971D01*
X130247550Y-94097971D02*
X130295169Y-94050352D01*
X130295169Y-94050352D02*
X130247550Y-94002732D01*
X130247550Y-94002732D02*
X130247550Y-94097971D01*
X129771360Y-94002732D02*
X129723741Y-94050352D01*
X129723741Y-94050352D02*
X129771360Y-94097971D01*
X129771360Y-94097971D02*
X129818979Y-94050352D01*
X129818979Y-94050352D02*
X129771360Y-94002732D01*
X129771360Y-94002732D02*
X129771360Y-94097971D01*
X129295170Y-94002732D02*
X129247551Y-94050352D01*
X129247551Y-94050352D02*
X129295170Y-94097971D01*
X129295170Y-94097971D02*
X129342789Y-94050352D01*
X129342789Y-94050352D02*
X129295170Y-94002732D01*
X129295170Y-94002732D02*
X129295170Y-94097971D01*
X128818980Y-94002732D02*
X128771361Y-94050352D01*
X128771361Y-94050352D02*
X128818980Y-94097971D01*
X128818980Y-94097971D02*
X128866599Y-94050352D01*
X128866599Y-94050352D02*
X128818980Y-94002732D01*
X128818980Y-94002732D02*
X128818980Y-94097971D01*
X128342790Y-94002732D02*
X128295171Y-94050352D01*
X128295171Y-94050352D02*
X128342790Y-94097971D01*
X128342790Y-94097971D02*
X128390409Y-94050352D01*
X128390409Y-94050352D02*
X128342790Y-94002732D01*
X128342790Y-94002732D02*
X128342790Y-94097971D01*
X158390379Y-95041248D02*
X158390379Y-95850772D01*
X158390379Y-95850772D02*
X158437998Y-95946010D01*
X158437998Y-95946010D02*
X158485617Y-95993629D01*
X158485617Y-95993629D02*
X158580855Y-96041248D01*
X158580855Y-96041248D02*
X158723712Y-96041248D01*
X158723712Y-96041248D02*
X158818950Y-95993629D01*
X158390379Y-95660296D02*
X158485617Y-95707915D01*
X158485617Y-95707915D02*
X158676093Y-95707915D01*
X158676093Y-95707915D02*
X158771331Y-95660296D01*
X158771331Y-95660296D02*
X158818950Y-95612676D01*
X158818950Y-95612676D02*
X158866569Y-95517438D01*
X158866569Y-95517438D02*
X158866569Y-95231724D01*
X158866569Y-95231724D02*
X158818950Y-95136486D01*
X158818950Y-95136486D02*
X158771331Y-95088867D01*
X158771331Y-95088867D02*
X158676093Y-95041248D01*
X158676093Y-95041248D02*
X158485617Y-95041248D01*
X158485617Y-95041248D02*
X158390379Y-95088867D01*
X157914188Y-95707915D02*
X157914188Y-95041248D01*
X157914188Y-94707915D02*
X157961807Y-94755534D01*
X157961807Y-94755534D02*
X157914188Y-94803153D01*
X157914188Y-94803153D02*
X157866569Y-94755534D01*
X157866569Y-94755534D02*
X157914188Y-94707915D01*
X157914188Y-94707915D02*
X157914188Y-94803153D01*
X157580855Y-95041248D02*
X157199903Y-95041248D01*
X157437998Y-94707915D02*
X157437998Y-95565057D01*
X157437998Y-95565057D02*
X157390379Y-95660296D01*
X157390379Y-95660296D02*
X157295141Y-95707915D01*
X157295141Y-95707915D02*
X157199903Y-95707915D01*
X156866569Y-95707915D02*
X156866569Y-94707915D01*
X156437998Y-95707915D02*
X156437998Y-95184105D01*
X156437998Y-95184105D02*
X156485617Y-95088867D01*
X156485617Y-95088867D02*
X156580855Y-95041248D01*
X156580855Y-95041248D02*
X156723712Y-95041248D01*
X156723712Y-95041248D02*
X156818950Y-95088867D01*
X156818950Y-95088867D02*
X156866569Y-95136486D01*
X155533236Y-95041248D02*
X155533236Y-95707915D01*
X155961807Y-95041248D02*
X155961807Y-95565057D01*
X155961807Y-95565057D02*
X155914188Y-95660296D01*
X155914188Y-95660296D02*
X155818950Y-95707915D01*
X155818950Y-95707915D02*
X155676093Y-95707915D01*
X155676093Y-95707915D02*
X155580855Y-95660296D01*
X155580855Y-95660296D02*
X155533236Y-95612676D01*
X155057045Y-95707915D02*
X155057045Y-94707915D01*
X155057045Y-95088867D02*
X154961807Y-95041248D01*
X154961807Y-95041248D02*
X154771331Y-95041248D01*
X154771331Y-95041248D02*
X154676093Y-95088867D01*
X154676093Y-95088867D02*
X154628474Y-95136486D01*
X154628474Y-95136486D02*
X154580855Y-95231724D01*
X154580855Y-95231724D02*
X154580855Y-95517438D01*
X154580855Y-95517438D02*
X154628474Y-95612676D01*
X154628474Y-95612676D02*
X154676093Y-95660296D01*
X154676093Y-95660296D02*
X154771331Y-95707915D01*
X154771331Y-95707915D02*
X154961807Y-95707915D01*
X154961807Y-95707915D02*
X155057045Y-95660296D01*
X154152283Y-95612676D02*
X154104664Y-95660296D01*
X154104664Y-95660296D02*
X154152283Y-95707915D01*
X154152283Y-95707915D02*
X154199902Y-95660296D01*
X154199902Y-95660296D02*
X154152283Y-95612676D01*
X154152283Y-95612676D02*
X154152283Y-95707915D01*
X153247522Y-95660296D02*
X153342760Y-95707915D01*
X153342760Y-95707915D02*
X153533236Y-95707915D01*
X153533236Y-95707915D02*
X153628474Y-95660296D01*
X153628474Y-95660296D02*
X153676093Y-95612676D01*
X153676093Y-95612676D02*
X153723712Y-95517438D01*
X153723712Y-95517438D02*
X153723712Y-95231724D01*
X153723712Y-95231724D02*
X153676093Y-95136486D01*
X153676093Y-95136486D02*
X153628474Y-95088867D01*
X153628474Y-95088867D02*
X153533236Y-95041248D01*
X153533236Y-95041248D02*
X153342760Y-95041248D01*
X153342760Y-95041248D02*
X153247522Y-95088867D01*
X152676093Y-95707915D02*
X152771331Y-95660296D01*
X152771331Y-95660296D02*
X152818950Y-95612676D01*
X152818950Y-95612676D02*
X152866569Y-95517438D01*
X152866569Y-95517438D02*
X152866569Y-95231724D01*
X152866569Y-95231724D02*
X152818950Y-95136486D01*
X152818950Y-95136486D02*
X152771331Y-95088867D01*
X152771331Y-95088867D02*
X152676093Y-95041248D01*
X152676093Y-95041248D02*
X152533236Y-95041248D01*
X152533236Y-95041248D02*
X152437998Y-95088867D01*
X152437998Y-95088867D02*
X152390379Y-95136486D01*
X152390379Y-95136486D02*
X152342760Y-95231724D01*
X152342760Y-95231724D02*
X152342760Y-95517438D01*
X152342760Y-95517438D02*
X152390379Y-95612676D01*
X152390379Y-95612676D02*
X152437998Y-95660296D01*
X152437998Y-95660296D02*
X152533236Y-95707915D01*
X152533236Y-95707915D02*
X152676093Y-95707915D01*
X151914188Y-95707915D02*
X151914188Y-95041248D01*
X151914188Y-95136486D02*
X151866569Y-95088867D01*
X151866569Y-95088867D02*
X151771331Y-95041248D01*
X151771331Y-95041248D02*
X151628474Y-95041248D01*
X151628474Y-95041248D02*
X151533236Y-95088867D01*
X151533236Y-95088867D02*
X151485617Y-95184105D01*
X151485617Y-95184105D02*
X151485617Y-95707915D01*
X151485617Y-95184105D02*
X151437998Y-95088867D01*
X151437998Y-95088867D02*
X151342760Y-95041248D01*
X151342760Y-95041248D02*
X151199903Y-95041248D01*
X151199903Y-95041248D02*
X151104664Y-95088867D01*
X151104664Y-95088867D02*
X151057045Y-95184105D01*
X151057045Y-95184105D02*
X151057045Y-95707915D01*
X149866570Y-94660296D02*
X150723712Y-95946010D01*
X149533236Y-95707915D02*
X149533236Y-94707915D01*
X149437998Y-95326962D02*
X149152284Y-95707915D01*
X149152284Y-95041248D02*
X149533236Y-95422200D01*
X148295141Y-95041248D02*
X148295141Y-95707915D01*
X148723712Y-95041248D02*
X148723712Y-95565057D01*
X148723712Y-95565057D02*
X148676093Y-95660296D01*
X148676093Y-95660296D02*
X148580855Y-95707915D01*
X148580855Y-95707915D02*
X148437998Y-95707915D01*
X148437998Y-95707915D02*
X148342760Y-95660296D01*
X148342760Y-95660296D02*
X148295141Y-95612676D01*
X147390379Y-95707915D02*
X147390379Y-95184105D01*
X147390379Y-95184105D02*
X147437998Y-95088867D01*
X147437998Y-95088867D02*
X147533236Y-95041248D01*
X147533236Y-95041248D02*
X147723712Y-95041248D01*
X147723712Y-95041248D02*
X147818950Y-95088867D01*
X147390379Y-95660296D02*
X147485617Y-95707915D01*
X147485617Y-95707915D02*
X147723712Y-95707915D01*
X147723712Y-95707915D02*
X147818950Y-95660296D01*
X147818950Y-95660296D02*
X147866569Y-95565057D01*
X147866569Y-95565057D02*
X147866569Y-95469819D01*
X147866569Y-95469819D02*
X147818950Y-95374581D01*
X147818950Y-95374581D02*
X147723712Y-95326962D01*
X147723712Y-95326962D02*
X147485617Y-95326962D01*
X147485617Y-95326962D02*
X147390379Y-95279343D01*
X146961807Y-95660296D02*
X146866569Y-95707915D01*
X146866569Y-95707915D02*
X146676093Y-95707915D01*
X146676093Y-95707915D02*
X146580855Y-95660296D01*
X146580855Y-95660296D02*
X146533236Y-95565057D01*
X146533236Y-95565057D02*
X146533236Y-95517438D01*
X146533236Y-95517438D02*
X146580855Y-95422200D01*
X146580855Y-95422200D02*
X146676093Y-95374581D01*
X146676093Y-95374581D02*
X146818950Y-95374581D01*
X146818950Y-95374581D02*
X146914188Y-95326962D01*
X146914188Y-95326962D02*
X146961807Y-95231724D01*
X146961807Y-95231724D02*
X146961807Y-95184105D01*
X146961807Y-95184105D02*
X146914188Y-95088867D01*
X146914188Y-95088867D02*
X146818950Y-95041248D01*
X146818950Y-95041248D02*
X146676093Y-95041248D01*
X146676093Y-95041248D02*
X146580855Y-95088867D01*
X146104664Y-95707915D02*
X146104664Y-94707915D01*
X145676093Y-95707915D02*
X145676093Y-95184105D01*
X145676093Y-95184105D02*
X145723712Y-95088867D01*
X145723712Y-95088867D02*
X145818950Y-95041248D01*
X145818950Y-95041248D02*
X145961807Y-95041248D01*
X145961807Y-95041248D02*
X146057045Y-95088867D01*
X146057045Y-95088867D02*
X146104664Y-95136486D01*
X145199902Y-95707915D02*
X145199902Y-95041248D01*
X145199902Y-94707915D02*
X145247521Y-94755534D01*
X145247521Y-94755534D02*
X145199902Y-94803153D01*
X145199902Y-94803153D02*
X145152283Y-94755534D01*
X145152283Y-94755534D02*
X145199902Y-94707915D01*
X145199902Y-94707915D02*
X145199902Y-94803153D01*
X144580855Y-95707915D02*
X144676093Y-95660296D01*
X144676093Y-95660296D02*
X144723712Y-95612676D01*
X144723712Y-95612676D02*
X144771331Y-95517438D01*
X144771331Y-95517438D02*
X144771331Y-95231724D01*
X144771331Y-95231724D02*
X144723712Y-95136486D01*
X144723712Y-95136486D02*
X144676093Y-95088867D01*
X144676093Y-95088867D02*
X144580855Y-95041248D01*
X144580855Y-95041248D02*
X144437998Y-95041248D01*
X144437998Y-95041248D02*
X144342760Y-95088867D01*
X144342760Y-95088867D02*
X144295141Y-95136486D01*
X144295141Y-95136486D02*
X144247522Y-95231724D01*
X144247522Y-95231724D02*
X144247522Y-95517438D01*
X144247522Y-95517438D02*
X144295141Y-95612676D01*
X144295141Y-95612676D02*
X144342760Y-95660296D01*
X144342760Y-95660296D02*
X144437998Y-95707915D01*
X144437998Y-95707915D02*
X144580855Y-95707915D01*
X143104665Y-94660296D02*
X143961807Y-95946010D01*
X142771331Y-95707915D02*
X142771331Y-94707915D01*
X142771331Y-95088867D02*
X142676093Y-95041248D01*
X142676093Y-95041248D02*
X142485617Y-95041248D01*
X142485617Y-95041248D02*
X142390379Y-95088867D01*
X142390379Y-95088867D02*
X142342760Y-95136486D01*
X142342760Y-95136486D02*
X142295141Y-95231724D01*
X142295141Y-95231724D02*
X142295141Y-95517438D01*
X142295141Y-95517438D02*
X142342760Y-95612676D01*
X142342760Y-95612676D02*
X142390379Y-95660296D01*
X142390379Y-95660296D02*
X142485617Y-95707915D01*
X142485617Y-95707915D02*
X142676093Y-95707915D01*
X142676093Y-95707915D02*
X142771331Y-95660296D01*
X142009426Y-95041248D02*
X141628474Y-95041248D01*
X141866569Y-95707915D02*
X141866569Y-94850772D01*
X141866569Y-94850772D02*
X141818950Y-94755534D01*
X141818950Y-94755534D02*
X141723712Y-94707915D01*
X141723712Y-94707915D02*
X141628474Y-94707915D01*
X158818950Y-97222620D02*
X158771331Y-97270240D01*
X158771331Y-97270240D02*
X158818950Y-97317859D01*
X158818950Y-97317859D02*
X158866569Y-97270240D01*
X158866569Y-97270240D02*
X158818950Y-97222620D01*
X158818950Y-97222620D02*
X158818950Y-97317859D01*
X158342760Y-97222620D02*
X158295141Y-97270240D01*
X158295141Y-97270240D02*
X158342760Y-97317859D01*
X158342760Y-97317859D02*
X158390379Y-97270240D01*
X158390379Y-97270240D02*
X158342760Y-97222620D01*
X158342760Y-97222620D02*
X158342760Y-97317859D01*
X157866570Y-97222620D02*
X157818951Y-97270240D01*
X157818951Y-97270240D02*
X157866570Y-97317859D01*
X157866570Y-97317859D02*
X157914189Y-97270240D01*
X157914189Y-97270240D02*
X157866570Y-97222620D01*
X157866570Y-97222620D02*
X157866570Y-97317859D01*
X157390380Y-97222620D02*
X157342761Y-97270240D01*
X157342761Y-97270240D02*
X157390380Y-97317859D01*
X157390380Y-97317859D02*
X157437999Y-97270240D01*
X157437999Y-97270240D02*
X157390380Y-97222620D01*
X157390380Y-97222620D02*
X157390380Y-97317859D01*
X156914190Y-97222620D02*
X156866571Y-97270240D01*
X156866571Y-97270240D02*
X156914190Y-97317859D01*
X156914190Y-97317859D02*
X156961809Y-97270240D01*
X156961809Y-97270240D02*
X156914190Y-97222620D01*
X156914190Y-97222620D02*
X156914190Y-97317859D01*
X156438000Y-97222620D02*
X156390381Y-97270240D01*
X156390381Y-97270240D02*
X156438000Y-97317859D01*
X156438000Y-97317859D02*
X156485619Y-97270240D01*
X156485619Y-97270240D02*
X156438000Y-97222620D01*
X156438000Y-97222620D02*
X156438000Y-97317859D01*
X155961810Y-97222620D02*
X155914191Y-97270240D01*
X155914191Y-97270240D02*
X155961810Y-97317859D01*
X155961810Y-97317859D02*
X156009429Y-97270240D01*
X156009429Y-97270240D02*
X155961810Y-97222620D01*
X155961810Y-97222620D02*
X155961810Y-97317859D01*
X155485620Y-97222620D02*
X155438001Y-97270240D01*
X155438001Y-97270240D02*
X155485620Y-97317859D01*
X155485620Y-97317859D02*
X155533239Y-97270240D01*
X155533239Y-97270240D02*
X155485620Y-97222620D01*
X155485620Y-97222620D02*
X155485620Y-97317859D01*
X155009430Y-97222620D02*
X154961811Y-97270240D01*
X154961811Y-97270240D02*
X155009430Y-97317859D01*
X155009430Y-97317859D02*
X155057049Y-97270240D01*
X155057049Y-97270240D02*
X155009430Y-97222620D01*
X155009430Y-97222620D02*
X155009430Y-97317859D01*
X154533240Y-97222620D02*
X154485621Y-97270240D01*
X154485621Y-97270240D02*
X154533240Y-97317859D01*
X154533240Y-97317859D02*
X154580859Y-97270240D01*
X154580859Y-97270240D02*
X154533240Y-97222620D01*
X154533240Y-97222620D02*
X154533240Y-97317859D01*
X154057050Y-97222620D02*
X154009431Y-97270240D01*
X154009431Y-97270240D02*
X154057050Y-97317859D01*
X154057050Y-97317859D02*
X154104669Y-97270240D01*
X154104669Y-97270240D02*
X154057050Y-97222620D01*
X154057050Y-97222620D02*
X154057050Y-97317859D01*
X153580860Y-97222620D02*
X153533241Y-97270240D01*
X153533241Y-97270240D02*
X153580860Y-97317859D01*
X153580860Y-97317859D02*
X153628479Y-97270240D01*
X153628479Y-97270240D02*
X153580860Y-97222620D01*
X153580860Y-97222620D02*
X153580860Y-97317859D01*
X153104670Y-97222620D02*
X153057051Y-97270240D01*
X153057051Y-97270240D02*
X153104670Y-97317859D01*
X153104670Y-97317859D02*
X153152289Y-97270240D01*
X153152289Y-97270240D02*
X153104670Y-97222620D01*
X153104670Y-97222620D02*
X153104670Y-97317859D01*
X152628480Y-97222620D02*
X152580861Y-97270240D01*
X152580861Y-97270240D02*
X152628480Y-97317859D01*
X152628480Y-97317859D02*
X152676099Y-97270240D01*
X152676099Y-97270240D02*
X152628480Y-97222620D01*
X152628480Y-97222620D02*
X152628480Y-97317859D01*
X152152290Y-97222620D02*
X152104671Y-97270240D01*
X152104671Y-97270240D02*
X152152290Y-97317859D01*
X152152290Y-97317859D02*
X152199909Y-97270240D01*
X152199909Y-97270240D02*
X152152290Y-97222620D01*
X152152290Y-97222620D02*
X152152290Y-97317859D01*
X151676100Y-97222620D02*
X151628481Y-97270240D01*
X151628481Y-97270240D02*
X151676100Y-97317859D01*
X151676100Y-97317859D02*
X151723719Y-97270240D01*
X151723719Y-97270240D02*
X151676100Y-97222620D01*
X151676100Y-97222620D02*
X151676100Y-97317859D01*
X151199910Y-97222620D02*
X151152291Y-97270240D01*
X151152291Y-97270240D02*
X151199910Y-97317859D01*
X151199910Y-97317859D02*
X151247529Y-97270240D01*
X151247529Y-97270240D02*
X151199910Y-97222620D01*
X151199910Y-97222620D02*
X151199910Y-97317859D01*
X150723720Y-97222620D02*
X150676101Y-97270240D01*
X150676101Y-97270240D02*
X150723720Y-97317859D01*
X150723720Y-97317859D02*
X150771339Y-97270240D01*
X150771339Y-97270240D02*
X150723720Y-97222620D01*
X150723720Y-97222620D02*
X150723720Y-97317859D01*
X150247530Y-97222620D02*
X150199911Y-97270240D01*
X150199911Y-97270240D02*
X150247530Y-97317859D01*
X150247530Y-97317859D02*
X150295149Y-97270240D01*
X150295149Y-97270240D02*
X150247530Y-97222620D01*
X150247530Y-97222620D02*
X150247530Y-97317859D01*
X149771340Y-97222620D02*
X149723721Y-97270240D01*
X149723721Y-97270240D02*
X149771340Y-97317859D01*
X149771340Y-97317859D02*
X149818959Y-97270240D01*
X149818959Y-97270240D02*
X149771340Y-97222620D01*
X149771340Y-97222620D02*
X149771340Y-97317859D01*
X149295150Y-97222620D02*
X149247531Y-97270240D01*
X149247531Y-97270240D02*
X149295150Y-97317859D01*
X149295150Y-97317859D02*
X149342769Y-97270240D01*
X149342769Y-97270240D02*
X149295150Y-97222620D01*
X149295150Y-97222620D02*
X149295150Y-97317859D01*
X148818960Y-97222620D02*
X148771341Y-97270240D01*
X148771341Y-97270240D02*
X148818960Y-97317859D01*
X148818960Y-97317859D02*
X148866579Y-97270240D01*
X148866579Y-97270240D02*
X148818960Y-97222620D01*
X148818960Y-97222620D02*
X148818960Y-97317859D01*
X148342770Y-97222620D02*
X148295151Y-97270240D01*
X148295151Y-97270240D02*
X148342770Y-97317859D01*
X148342770Y-97317859D02*
X148390389Y-97270240D01*
X148390389Y-97270240D02*
X148342770Y-97222620D01*
X148342770Y-97222620D02*
X148342770Y-97317859D01*
X147866580Y-97222620D02*
X147818961Y-97270240D01*
X147818961Y-97270240D02*
X147866580Y-97317859D01*
X147866580Y-97317859D02*
X147914199Y-97270240D01*
X147914199Y-97270240D02*
X147866580Y-97222620D01*
X147866580Y-97222620D02*
X147866580Y-97317859D01*
X147390390Y-97222620D02*
X147342771Y-97270240D01*
X147342771Y-97270240D02*
X147390390Y-97317859D01*
X147390390Y-97317859D02*
X147438009Y-97270240D01*
X147438009Y-97270240D02*
X147390390Y-97222620D01*
X147390390Y-97222620D02*
X147390390Y-97317859D01*
X146914200Y-97222620D02*
X146866581Y-97270240D01*
X146866581Y-97270240D02*
X146914200Y-97317859D01*
X146914200Y-97317859D02*
X146961819Y-97270240D01*
X146961819Y-97270240D02*
X146914200Y-97222620D01*
X146914200Y-97222620D02*
X146914200Y-97317859D01*
X146438010Y-97222620D02*
X146390391Y-97270240D01*
X146390391Y-97270240D02*
X146438010Y-97317859D01*
X146438010Y-97317859D02*
X146485629Y-97270240D01*
X146485629Y-97270240D02*
X146438010Y-97222620D01*
X146438010Y-97222620D02*
X146438010Y-97317859D01*
X145961820Y-97222620D02*
X145914201Y-97270240D01*
X145914201Y-97270240D02*
X145961820Y-97317859D01*
X145961820Y-97317859D02*
X146009439Y-97270240D01*
X146009439Y-97270240D02*
X145961820Y-97222620D01*
X145961820Y-97222620D02*
X145961820Y-97317859D01*
X145485630Y-97222620D02*
X145438011Y-97270240D01*
X145438011Y-97270240D02*
X145485630Y-97317859D01*
X145485630Y-97317859D02*
X145533249Y-97270240D01*
X145533249Y-97270240D02*
X145485630Y-97222620D01*
X145485630Y-97222620D02*
X145485630Y-97317859D01*
X145009440Y-97222620D02*
X144961821Y-97270240D01*
X144961821Y-97270240D02*
X145009440Y-97317859D01*
X145009440Y-97317859D02*
X145057059Y-97270240D01*
X145057059Y-97270240D02*
X145009440Y-97222620D01*
X145009440Y-97222620D02*
X145009440Y-97317859D01*
X144533250Y-97222620D02*
X144485631Y-97270240D01*
X144485631Y-97270240D02*
X144533250Y-97317859D01*
X144533250Y-97317859D02*
X144580869Y-97270240D01*
X144580869Y-97270240D02*
X144533250Y-97222620D01*
X144533250Y-97222620D02*
X144533250Y-97317859D01*
X144057060Y-97222620D02*
X144009441Y-97270240D01*
X144009441Y-97270240D02*
X144057060Y-97317859D01*
X144057060Y-97317859D02*
X144104679Y-97270240D01*
X144104679Y-97270240D02*
X144057060Y-97222620D01*
X144057060Y-97222620D02*
X144057060Y-97317859D01*
X143580870Y-97222620D02*
X143533251Y-97270240D01*
X143533251Y-97270240D02*
X143580870Y-97317859D01*
X143580870Y-97317859D02*
X143628489Y-97270240D01*
X143628489Y-97270240D02*
X143580870Y-97222620D01*
X143580870Y-97222620D02*
X143580870Y-97317859D01*
X143104680Y-97222620D02*
X143057061Y-97270240D01*
X143057061Y-97270240D02*
X143104680Y-97317859D01*
X143104680Y-97317859D02*
X143152299Y-97270240D01*
X143152299Y-97270240D02*
X143104680Y-97222620D01*
X143104680Y-97222620D02*
X143104680Y-97317859D01*
X142628490Y-97222620D02*
X142580871Y-97270240D01*
X142580871Y-97270240D02*
X142628490Y-97317859D01*
X142628490Y-97317859D02*
X142676109Y-97270240D01*
X142676109Y-97270240D02*
X142628490Y-97222620D01*
X142628490Y-97222620D02*
X142628490Y-97317859D01*
X142152300Y-97222620D02*
X142104681Y-97270240D01*
X142104681Y-97270240D02*
X142152300Y-97317859D01*
X142152300Y-97317859D02*
X142199919Y-97270240D01*
X142199919Y-97270240D02*
X142152300Y-97222620D01*
X142152300Y-97222620D02*
X142152300Y-97317859D01*
X141676110Y-97222620D02*
X141628491Y-97270240D01*
X141628491Y-97270240D02*
X141676110Y-97317859D01*
X141676110Y-97317859D02*
X141723729Y-97270240D01*
X141723729Y-97270240D02*
X141676110Y-97222620D01*
X141676110Y-97222620D02*
X141676110Y-97317859D01*
X141199920Y-97222620D02*
X141152301Y-97270240D01*
X141152301Y-97270240D02*
X141199920Y-97317859D01*
X141199920Y-97317859D02*
X141247539Y-97270240D01*
X141247539Y-97270240D02*
X141199920Y-97222620D01*
X141199920Y-97222620D02*
X141199920Y-97317859D01*
X140723730Y-97222620D02*
X140676111Y-97270240D01*
X140676111Y-97270240D02*
X140723730Y-97317859D01*
X140723730Y-97317859D02*
X140771349Y-97270240D01*
X140771349Y-97270240D02*
X140723730Y-97222620D01*
X140723730Y-97222620D02*
X140723730Y-97317859D01*
X140247540Y-97222620D02*
X140199921Y-97270240D01*
X140199921Y-97270240D02*
X140247540Y-97317859D01*
X140247540Y-97317859D02*
X140295159Y-97270240D01*
X140295159Y-97270240D02*
X140247540Y-97222620D01*
X140247540Y-97222620D02*
X140247540Y-97317859D01*
X139771350Y-97222620D02*
X139723731Y-97270240D01*
X139723731Y-97270240D02*
X139771350Y-97317859D01*
X139771350Y-97317859D02*
X139818969Y-97270240D01*
X139818969Y-97270240D02*
X139771350Y-97222620D01*
X139771350Y-97222620D02*
X139771350Y-97317859D01*
X139295160Y-97222620D02*
X139247541Y-97270240D01*
X139247541Y-97270240D02*
X139295160Y-97317859D01*
X139295160Y-97317859D02*
X139342779Y-97270240D01*
X139342779Y-97270240D02*
X139295160Y-97222620D01*
X139295160Y-97222620D02*
X139295160Y-97317859D01*
X138818970Y-97222620D02*
X138771351Y-97270240D01*
X138771351Y-97270240D02*
X138818970Y-97317859D01*
X138818970Y-97317859D02*
X138866589Y-97270240D01*
X138866589Y-97270240D02*
X138818970Y-97222620D01*
X138818970Y-97222620D02*
X138818970Y-97317859D01*
X138342780Y-97222620D02*
X138295161Y-97270240D01*
X138295161Y-97270240D02*
X138342780Y-97317859D01*
X138342780Y-97317859D02*
X138390399Y-97270240D01*
X138390399Y-97270240D02*
X138342780Y-97222620D01*
X138342780Y-97222620D02*
X138342780Y-97317859D01*
X137866590Y-97222620D02*
X137818971Y-97270240D01*
X137818971Y-97270240D02*
X137866590Y-97317859D01*
X137866590Y-97317859D02*
X137914209Y-97270240D01*
X137914209Y-97270240D02*
X137866590Y-97222620D01*
X137866590Y-97222620D02*
X137866590Y-97317859D01*
X137390400Y-97222620D02*
X137342781Y-97270240D01*
X137342781Y-97270240D02*
X137390400Y-97317859D01*
X137390400Y-97317859D02*
X137438019Y-97270240D01*
X137438019Y-97270240D02*
X137390400Y-97222620D01*
X137390400Y-97222620D02*
X137390400Y-97317859D01*
X136914210Y-97222620D02*
X136866591Y-97270240D01*
X136866591Y-97270240D02*
X136914210Y-97317859D01*
X136914210Y-97317859D02*
X136961829Y-97270240D01*
X136961829Y-97270240D02*
X136914210Y-97222620D01*
X136914210Y-97222620D02*
X136914210Y-97317859D01*
X158390379Y-98927803D02*
X158390379Y-98403993D01*
X158390379Y-98403993D02*
X158437998Y-98308755D01*
X158437998Y-98308755D02*
X158533236Y-98261136D01*
X158533236Y-98261136D02*
X158723712Y-98261136D01*
X158723712Y-98261136D02*
X158818950Y-98308755D01*
X158390379Y-98880184D02*
X158485617Y-98927803D01*
X158485617Y-98927803D02*
X158723712Y-98927803D01*
X158723712Y-98927803D02*
X158818950Y-98880184D01*
X158818950Y-98880184D02*
X158866569Y-98784945D01*
X158866569Y-98784945D02*
X158866569Y-98689707D01*
X158866569Y-98689707D02*
X158818950Y-98594469D01*
X158818950Y-98594469D02*
X158723712Y-98546850D01*
X158723712Y-98546850D02*
X158485617Y-98546850D01*
X158485617Y-98546850D02*
X158390379Y-98499231D01*
X157914188Y-98927803D02*
X157914188Y-98261136D01*
X157914188Y-98451612D02*
X157866569Y-98356374D01*
X157866569Y-98356374D02*
X157818950Y-98308755D01*
X157818950Y-98308755D02*
X157723712Y-98261136D01*
X157723712Y-98261136D02*
X157628474Y-98261136D01*
X156866569Y-98880184D02*
X156961807Y-98927803D01*
X156961807Y-98927803D02*
X157152283Y-98927803D01*
X157152283Y-98927803D02*
X157247521Y-98880184D01*
X157247521Y-98880184D02*
X157295140Y-98832564D01*
X157295140Y-98832564D02*
X157342759Y-98737326D01*
X157342759Y-98737326D02*
X157342759Y-98451612D01*
X157342759Y-98451612D02*
X157295140Y-98356374D01*
X157295140Y-98356374D02*
X157247521Y-98308755D01*
X157247521Y-98308755D02*
X157152283Y-98261136D01*
X157152283Y-98261136D02*
X156961807Y-98261136D01*
X156961807Y-98261136D02*
X156866569Y-98308755D01*
X156437997Y-98927803D02*
X156437997Y-97927803D01*
X156009426Y-98927803D02*
X156009426Y-98403993D01*
X156009426Y-98403993D02*
X156057045Y-98308755D01*
X156057045Y-98308755D02*
X156152283Y-98261136D01*
X156152283Y-98261136D02*
X156295140Y-98261136D01*
X156295140Y-98261136D02*
X156390378Y-98308755D01*
X156390378Y-98308755D02*
X156437997Y-98356374D01*
X155533235Y-98927803D02*
X155533235Y-98261136D01*
X155533235Y-97927803D02*
X155580854Y-97975422D01*
X155580854Y-97975422D02*
X155533235Y-98023041D01*
X155533235Y-98023041D02*
X155485616Y-97975422D01*
X155485616Y-97975422D02*
X155533235Y-97927803D01*
X155533235Y-97927803D02*
X155533235Y-98023041D01*
X155057045Y-98927803D02*
X155057045Y-97927803D01*
X155057045Y-98308755D02*
X154961807Y-98261136D01*
X154961807Y-98261136D02*
X154771331Y-98261136D01*
X154771331Y-98261136D02*
X154676093Y-98308755D01*
X154676093Y-98308755D02*
X154628474Y-98356374D01*
X154628474Y-98356374D02*
X154580855Y-98451612D01*
X154580855Y-98451612D02*
X154580855Y-98737326D01*
X154580855Y-98737326D02*
X154628474Y-98832564D01*
X154628474Y-98832564D02*
X154676093Y-98880184D01*
X154676093Y-98880184D02*
X154771331Y-98927803D01*
X154771331Y-98927803D02*
X154961807Y-98927803D01*
X154961807Y-98927803D02*
X155057045Y-98880184D01*
X153723712Y-98927803D02*
X153723712Y-98403993D01*
X153723712Y-98403993D02*
X153771331Y-98308755D01*
X153771331Y-98308755D02*
X153866569Y-98261136D01*
X153866569Y-98261136D02*
X154057045Y-98261136D01*
X154057045Y-98261136D02*
X154152283Y-98308755D01*
X153723712Y-98880184D02*
X153818950Y-98927803D01*
X153818950Y-98927803D02*
X154057045Y-98927803D01*
X154057045Y-98927803D02*
X154152283Y-98880184D01*
X154152283Y-98880184D02*
X154199902Y-98784945D01*
X154199902Y-98784945D02*
X154199902Y-98689707D01*
X154199902Y-98689707D02*
X154152283Y-98594469D01*
X154152283Y-98594469D02*
X154057045Y-98546850D01*
X154057045Y-98546850D02*
X153818950Y-98546850D01*
X153818950Y-98546850D02*
X153723712Y-98499231D01*
X153104664Y-98927803D02*
X153199902Y-98880184D01*
X153199902Y-98880184D02*
X153247521Y-98784945D01*
X153247521Y-98784945D02*
X153247521Y-97927803D01*
X152295140Y-98927803D02*
X152295140Y-97927803D01*
X152295140Y-98880184D02*
X152390378Y-98927803D01*
X152390378Y-98927803D02*
X152580854Y-98927803D01*
X152580854Y-98927803D02*
X152676092Y-98880184D01*
X152676092Y-98880184D02*
X152723711Y-98832564D01*
X152723711Y-98832564D02*
X152771330Y-98737326D01*
X152771330Y-98737326D02*
X152771330Y-98451612D01*
X152771330Y-98451612D02*
X152723711Y-98356374D01*
X152723711Y-98356374D02*
X152676092Y-98308755D01*
X152676092Y-98308755D02*
X152580854Y-98261136D01*
X152580854Y-98261136D02*
X152390378Y-98261136D01*
X152390378Y-98261136D02*
X152295140Y-98308755D01*
X151818949Y-98832564D02*
X151771330Y-98880184D01*
X151771330Y-98880184D02*
X151818949Y-98927803D01*
X151818949Y-98927803D02*
X151866568Y-98880184D01*
X151866568Y-98880184D02*
X151818949Y-98832564D01*
X151818949Y-98832564D02*
X151818949Y-98927803D01*
X151485616Y-98261136D02*
X151104664Y-98261136D01*
X151342759Y-97927803D02*
X151342759Y-98784945D01*
X151342759Y-98784945D02*
X151295140Y-98880184D01*
X151295140Y-98880184D02*
X151199902Y-98927803D01*
X151199902Y-98927803D02*
X151104664Y-98927803D01*
X150628473Y-98927803D02*
X150723711Y-98880184D01*
X150723711Y-98880184D02*
X150771330Y-98832564D01*
X150771330Y-98832564D02*
X150818949Y-98737326D01*
X150818949Y-98737326D02*
X150818949Y-98451612D01*
X150818949Y-98451612D02*
X150771330Y-98356374D01*
X150771330Y-98356374D02*
X150723711Y-98308755D01*
X150723711Y-98308755D02*
X150628473Y-98261136D01*
X150628473Y-98261136D02*
X150485616Y-98261136D01*
X150485616Y-98261136D02*
X150390378Y-98308755D01*
X150390378Y-98308755D02*
X150342759Y-98356374D01*
X150342759Y-98356374D02*
X150295140Y-98451612D01*
X150295140Y-98451612D02*
X150295140Y-98737326D01*
X150295140Y-98737326D02*
X150342759Y-98832564D01*
X150342759Y-98832564D02*
X150390378Y-98880184D01*
X150390378Y-98880184D02*
X150485616Y-98927803D01*
X150485616Y-98927803D02*
X150628473Y-98927803D01*
X149866568Y-98261136D02*
X149866568Y-99261136D01*
X149866568Y-98308755D02*
X149771330Y-98261136D01*
X149771330Y-98261136D02*
X149580854Y-98261136D01*
X149580854Y-98261136D02*
X149485616Y-98308755D01*
X149485616Y-98308755D02*
X149437997Y-98356374D01*
X149437997Y-98356374D02*
X149390378Y-98451612D01*
X149390378Y-98451612D02*
X149390378Y-98737326D01*
X149390378Y-98737326D02*
X149437997Y-98832564D01*
X149437997Y-98832564D02*
X149485616Y-98880184D01*
X149485616Y-98880184D02*
X149580854Y-98927803D01*
X149580854Y-98927803D02*
X149771330Y-98927803D01*
X149771330Y-98927803D02*
X149866568Y-98880184D01*
X148247521Y-97880184D02*
X149104663Y-99165898D01*
X147914187Y-98927803D02*
X147914187Y-97927803D01*
X147914187Y-98308755D02*
X147818949Y-98261136D01*
X147818949Y-98261136D02*
X147628473Y-98261136D01*
X147628473Y-98261136D02*
X147533235Y-98308755D01*
X147533235Y-98308755D02*
X147485616Y-98356374D01*
X147485616Y-98356374D02*
X147437997Y-98451612D01*
X147437997Y-98451612D02*
X147437997Y-98737326D01*
X147437997Y-98737326D02*
X147485616Y-98832564D01*
X147485616Y-98832564D02*
X147533235Y-98880184D01*
X147533235Y-98880184D02*
X147628473Y-98927803D01*
X147628473Y-98927803D02*
X147818949Y-98927803D01*
X147818949Y-98927803D02*
X147914187Y-98880184D01*
X147009425Y-98927803D02*
X147009425Y-98261136D01*
X147009425Y-98451612D02*
X146961806Y-98356374D01*
X146961806Y-98356374D02*
X146914187Y-98308755D01*
X146914187Y-98308755D02*
X146818949Y-98261136D01*
X146818949Y-98261136D02*
X146723711Y-98261136D01*
X145961806Y-98927803D02*
X145961806Y-98403993D01*
X145961806Y-98403993D02*
X146009425Y-98308755D01*
X146009425Y-98308755D02*
X146104663Y-98261136D01*
X146104663Y-98261136D02*
X146295139Y-98261136D01*
X146295139Y-98261136D02*
X146390377Y-98308755D01*
X145961806Y-98880184D02*
X146057044Y-98927803D01*
X146057044Y-98927803D02*
X146295139Y-98927803D01*
X146295139Y-98927803D02*
X146390377Y-98880184D01*
X146390377Y-98880184D02*
X146437996Y-98784945D01*
X146437996Y-98784945D02*
X146437996Y-98689707D01*
X146437996Y-98689707D02*
X146390377Y-98594469D01*
X146390377Y-98594469D02*
X146295139Y-98546850D01*
X146295139Y-98546850D02*
X146057044Y-98546850D01*
X146057044Y-98546850D02*
X145961806Y-98499231D01*
X145485615Y-98927803D02*
X145485615Y-98261136D01*
X145485615Y-97927803D02*
X145533234Y-97975422D01*
X145533234Y-97975422D02*
X145485615Y-98023041D01*
X145485615Y-98023041D02*
X145437996Y-97975422D01*
X145437996Y-97975422D02*
X145485615Y-97927803D01*
X145485615Y-97927803D02*
X145485615Y-98023041D01*
X145009425Y-98261136D02*
X145009425Y-98927803D01*
X145009425Y-98356374D02*
X144961806Y-98308755D01*
X144961806Y-98308755D02*
X144866568Y-98261136D01*
X144866568Y-98261136D02*
X144723711Y-98261136D01*
X144723711Y-98261136D02*
X144628473Y-98308755D01*
X144628473Y-98308755D02*
X144580854Y-98403993D01*
X144580854Y-98403993D02*
X144580854Y-98927803D01*
X144247520Y-98261136D02*
X143866568Y-98261136D01*
X144104663Y-98927803D02*
X144104663Y-98070660D01*
X144104663Y-98070660D02*
X144057044Y-97975422D01*
X144057044Y-97975422D02*
X143961806Y-97927803D01*
X143961806Y-97927803D02*
X143866568Y-97927803D01*
X143104663Y-98261136D02*
X143104663Y-98927803D01*
X143533234Y-98261136D02*
X143533234Y-98784945D01*
X143533234Y-98784945D02*
X143485615Y-98880184D01*
X143485615Y-98880184D02*
X143390377Y-98927803D01*
X143390377Y-98927803D02*
X143247520Y-98927803D01*
X143247520Y-98927803D02*
X143152282Y-98880184D01*
X143152282Y-98880184D02*
X143104663Y-98832564D01*
X142628472Y-98927803D02*
X142628472Y-98261136D01*
X142628472Y-97927803D02*
X142676091Y-97975422D01*
X142676091Y-97975422D02*
X142628472Y-98023041D01*
X142628472Y-98023041D02*
X142580853Y-97975422D01*
X142580853Y-97975422D02*
X142628472Y-97927803D01*
X142628472Y-97927803D02*
X142628472Y-98023041D01*
X142152282Y-98261136D02*
X142152282Y-98927803D01*
X142152282Y-98356374D02*
X142104663Y-98308755D01*
X142104663Y-98308755D02*
X142009425Y-98261136D01*
X142009425Y-98261136D02*
X141866568Y-98261136D01*
X141866568Y-98261136D02*
X141771330Y-98308755D01*
X141771330Y-98308755D02*
X141723711Y-98403993D01*
X141723711Y-98403993D02*
X141723711Y-98927803D01*
X141104663Y-98927803D02*
X141199901Y-98880184D01*
X141199901Y-98880184D02*
X141247520Y-98832564D01*
X141247520Y-98832564D02*
X141295139Y-98737326D01*
X141295139Y-98737326D02*
X141295139Y-98451612D01*
X141295139Y-98451612D02*
X141247520Y-98356374D01*
X141247520Y-98356374D02*
X141199901Y-98308755D01*
X141199901Y-98308755D02*
X141104663Y-98261136D01*
X141104663Y-98261136D02*
X140961806Y-98261136D01*
X140961806Y-98261136D02*
X140866568Y-98308755D01*
X140866568Y-98308755D02*
X140818949Y-98356374D01*
X140818949Y-98356374D02*
X140771330Y-98451612D01*
X140771330Y-98451612D02*
X140771330Y-98737326D01*
X140771330Y-98737326D02*
X140818949Y-98832564D01*
X140818949Y-98832564D02*
X140866568Y-98880184D01*
X140866568Y-98880184D02*
X140961806Y-98927803D01*
X140961806Y-98927803D02*
X141104663Y-98927803D01*
D11*
%TO.C,*%
G36*
X178053244Y-124178378D02*
G01*
X178053244Y-131523783D01*
X176920541Y-131523783D01*
X175787838Y-131523783D01*
X175787838Y-125135605D01*
X175787838Y-118747428D01*
X174346142Y-118768443D01*
X172904446Y-118789459D01*
X172904520Y-117811216D01*
X172904595Y-116832972D01*
X175478919Y-116832972D01*
X178053244Y-116832972D01*
X178053244Y-124178378D01*
G37*
G36*
X172435876Y-113337207D02*
G01*
X173185512Y-113386573D01*
X173851736Y-113475612D01*
X174342478Y-113575217D01*
X175364610Y-113854461D01*
X176367370Y-114220809D01*
X177313858Y-114659884D01*
X178167178Y-115157305D01*
X179141086Y-115862170D01*
X180113541Y-116723467D01*
X180985477Y-117677687D01*
X181758955Y-118727108D01*
X182436035Y-119874008D01*
X182543034Y-120078563D01*
X182661918Y-120319832D01*
X182734611Y-120506587D01*
X182772298Y-120679252D01*
X182786160Y-120878251D01*
X182787383Y-121144008D01*
X182784765Y-121741351D01*
X182482312Y-121031573D01*
X182203606Y-120418236D01*
X181644223Y-119380309D01*
X181021542Y-118446216D01*
X180758563Y-118113587D01*
X180380465Y-117678800D01*
X179958618Y-117228740D01*
X179523937Y-116795136D01*
X179107336Y-116409720D01*
X178739730Y-116104220D01*
X178633327Y-116024058D01*
X178376606Y-115838481D01*
X178102611Y-115648607D01*
X177837040Y-115471400D01*
X177605588Y-115323822D01*
X177433953Y-115222836D01*
X177347830Y-115185405D01*
X177301917Y-115168924D01*
X177163640Y-115099207D01*
X176975048Y-114993454D01*
X176846362Y-114922011D01*
X176551528Y-114773546D01*
X176268379Y-114646532D01*
X176102688Y-114578056D01*
X175891544Y-114489439D01*
X175753514Y-114429827D01*
X175741704Y-114424750D01*
X175595386Y-114372055D01*
X175367259Y-114298672D01*
X175101352Y-114218844D01*
X175097303Y-114217672D01*
X173867998Y-113929929D01*
X172635162Y-113778028D01*
X171396302Y-113762074D01*
X170148926Y-113882170D01*
X168890539Y-114138420D01*
X167618649Y-114530928D01*
X167587081Y-114542822D01*
X167382654Y-114630202D01*
X167091130Y-114764812D01*
X166740404Y-114932835D01*
X166358369Y-115120459D01*
X165972920Y-115313867D01*
X165611952Y-115499246D01*
X165303359Y-115662779D01*
X165075035Y-115790654D01*
X164672109Y-116041678D01*
X164139684Y-116401768D01*
X163554986Y-116821569D01*
X162942991Y-117282228D01*
X162328680Y-117764890D01*
X161737029Y-118250702D01*
X161193018Y-118720810D01*
X160941300Y-118951488D01*
X160594749Y-119280604D01*
X160193699Y-119670019D01*
X159758844Y-120099028D01*
X159310883Y-120546927D01*
X158870510Y-120993010D01*
X158458424Y-121416572D01*
X158095319Y-121796910D01*
X157801892Y-122113317D01*
X157783748Y-122133323D01*
X157557118Y-122382801D01*
X157361576Y-122597362D01*
X157217473Y-122754715D01*
X157145161Y-122832572D01*
X157124249Y-122855020D01*
X157014720Y-122977624D01*
X156842213Y-123173970D01*
X156625959Y-123421916D01*
X156385190Y-123699324D01*
X156139137Y-123984054D01*
X155907033Y-124253966D01*
X155708109Y-124486921D01*
X155685320Y-124513723D01*
X155506783Y-124722120D01*
X155355411Y-124896285D01*
X155261892Y-125000870D01*
X155193892Y-125077539D01*
X155055248Y-125241420D01*
X154895512Y-125435709D01*
X154632105Y-125760662D01*
X155134609Y-126359655D01*
X155305004Y-126562306D01*
X155519065Y-126815646D01*
X155698760Y-127026961D01*
X155817242Y-127164594D01*
X155871694Y-127226897D01*
X156022730Y-127399856D01*
X156231989Y-127639583D01*
X156479470Y-127923164D01*
X156745173Y-128227688D01*
X157339366Y-128900010D01*
X157994877Y-129619648D01*
X158681605Y-130349508D01*
X159436152Y-131129053D01*
X159822730Y-131523783D01*
X159509782Y-131523783D01*
X159400525Y-131521419D01*
X159284714Y-131502714D01*
X159173639Y-131451066D01*
X159042367Y-131349929D01*
X158865965Y-131182756D01*
X158619498Y-130933004D01*
X158394235Y-130702033D01*
X158193381Y-130495196D01*
X158045188Y-130341606D01*
X157971362Y-130263679D01*
X157951249Y-130241476D01*
X157845778Y-130125649D01*
X157683654Y-129947993D01*
X157490822Y-129736948D01*
X157294618Y-129521431D01*
X156973232Y-129165397D01*
X156645612Y-128799421D01*
X156336505Y-128451295D01*
X156070656Y-128148813D01*
X155872814Y-127919768D01*
X155786681Y-127818751D01*
X155652936Y-127663235D01*
X155570811Y-127569540D01*
X155494195Y-127481578D01*
X155358461Y-127322714D01*
X155193244Y-127127621D01*
X155027788Y-126933292D01*
X154877194Y-126759815D01*
X154781352Y-126653345D01*
X154768746Y-126639583D01*
X154663359Y-126510059D01*
X154516831Y-126317281D01*
X154360060Y-126103290D01*
X154223941Y-125910124D01*
X154139370Y-125779823D01*
X154138700Y-125778464D01*
X154165770Y-125692941D01*
X154269994Y-125525526D01*
X154437760Y-125296136D01*
X154655457Y-125024687D01*
X154688186Y-124985425D01*
X154965185Y-124654765D01*
X155258606Y-124306981D01*
X155553494Y-123959542D01*
X155834895Y-123629919D01*
X156087852Y-123335581D01*
X156297411Y-123093999D01*
X156448617Y-122922643D01*
X156526514Y-122838984D01*
X156539875Y-122825669D01*
X156635846Y-122723574D01*
X156798670Y-122546427D01*
X157009454Y-122314865D01*
X157249304Y-122049524D01*
X157322666Y-121968520D01*
X157728138Y-121532206D01*
X158194533Y-121045824D01*
X158702618Y-120528266D01*
X159233160Y-119998420D01*
X159766926Y-119475179D01*
X160284682Y-118977430D01*
X160767193Y-118524065D01*
X161195228Y-118133974D01*
X161549552Y-117826047D01*
X161855514Y-117569830D01*
X162192942Y-117288307D01*
X162462781Y-117066070D01*
X162686724Y-116886582D01*
X162886467Y-116733304D01*
X163083701Y-116589701D01*
X163300122Y-116439233D01*
X163557423Y-116265364D01*
X163877298Y-116051555D01*
X164025618Y-115953158D01*
X165061167Y-115305088D01*
X166045953Y-114762515D01*
X167000535Y-114316610D01*
X167945472Y-113958547D01*
X168901322Y-113679500D01*
X169888644Y-113470642D01*
X170166957Y-113427750D01*
X170878552Y-113357735D01*
X171650874Y-113327574D01*
X172435876Y-113337207D01*
G37*
G36*
X148408832Y-131299552D02*
G01*
X148494378Y-131385914D01*
X148534325Y-131463540D01*
X148534118Y-131466193D01*
X148468201Y-131506956D01*
X148319973Y-131523783D01*
X148195235Y-131518730D01*
X148148977Y-131486308D01*
X148197575Y-131403648D01*
X148256014Y-131326555D01*
X148307295Y-131256568D01*
X148329126Y-131251349D01*
X148408832Y-131299552D01*
G37*
G36*
X126114055Y-113391683D02*
G01*
X127158074Y-113543666D01*
X128145676Y-113783506D01*
X128642196Y-113941439D01*
X129963429Y-114454421D01*
X131267395Y-115094997D01*
X132539190Y-115856136D01*
X132597195Y-115894772D01*
X132809818Y-116042004D01*
X133079455Y-116234113D01*
X133381980Y-116453316D01*
X133693267Y-116681832D01*
X133989189Y-116901879D01*
X134245620Y-117095674D01*
X134438434Y-117245437D01*
X134543504Y-117333384D01*
X134554207Y-117343454D01*
X134677795Y-117449676D01*
X134838919Y-117578568D01*
X134923401Y-117644966D01*
X135215814Y-117888661D01*
X135563233Y-118197442D01*
X135973280Y-118578472D01*
X136453573Y-119038916D01*
X137011732Y-119585938D01*
X137655376Y-120226703D01*
X137988652Y-120560839D01*
X138416579Y-120991555D01*
X138773140Y-121353460D01*
X139074098Y-121663166D01*
X139335213Y-121937284D01*
X139572248Y-122192423D01*
X139800964Y-122445195D01*
X140037123Y-122712211D01*
X140296487Y-123010080D01*
X140352754Y-123074924D01*
X140529875Y-123277673D01*
X140670032Y-123436105D01*
X140746886Y-123520380D01*
X140875956Y-123660037D01*
X141060582Y-123870488D01*
X141282898Y-124130456D01*
X141527041Y-124420707D01*
X141777147Y-124722006D01*
X142017352Y-125015119D01*
X142231793Y-125280813D01*
X142404606Y-125499851D01*
X142519927Y-125653001D01*
X142561892Y-125721028D01*
X142540908Y-125760107D01*
X142452409Y-125885778D01*
X142315151Y-126068362D01*
X142151476Y-126279187D01*
X141983731Y-126489582D01*
X141834258Y-126670875D01*
X141725402Y-126794394D01*
X141697867Y-126824261D01*
X141579291Y-126960470D01*
X141437365Y-127130270D01*
X141430105Y-127139110D01*
X141280878Y-127317107D01*
X141084058Y-127547377D01*
X140880214Y-127782432D01*
X140770546Y-127907959D01*
X140532195Y-128181292D01*
X140266594Y-128486349D01*
X140013496Y-128777491D01*
X139838939Y-128976245D01*
X139634540Y-129203261D01*
X139469896Y-129379777D01*
X139369730Y-129478856D01*
X139290786Y-129560793D01*
X139288630Y-129599337D01*
X139292217Y-129598567D01*
X139373498Y-129546008D01*
X139540592Y-129420390D01*
X139776524Y-129235019D01*
X140064321Y-129003202D01*
X140387008Y-128738248D01*
X140869846Y-128338131D01*
X141288832Y-127990595D01*
X141637905Y-127700581D01*
X141935435Y-127452787D01*
X142199791Y-127231914D01*
X142449345Y-127022662D01*
X142702466Y-126809729D01*
X142836558Y-126697270D01*
X143101778Y-126476534D01*
X143349404Y-126272161D01*
X143505642Y-126143707D01*
X143706921Y-125977461D01*
X143852871Y-125856037D01*
X144021596Y-125714506D01*
X143720798Y-125480243D01*
X143597853Y-125382942D01*
X143455230Y-125265133D01*
X143385676Y-125200707D01*
X143341718Y-125159937D01*
X143207884Y-125047652D01*
X143008675Y-124885585D01*
X142767838Y-124693243D01*
X142573766Y-124538598D01*
X142364114Y-124369096D01*
X142214947Y-124245550D01*
X142150000Y-124187397D01*
X142124443Y-124162857D01*
X142009229Y-124064530D01*
X141826218Y-123913946D01*
X141600811Y-123732161D01*
X141468697Y-123626246D01*
X141264462Y-123461158D01*
X141116988Y-123340165D01*
X141051622Y-123283952D01*
X141029598Y-123264117D01*
X140914179Y-123167188D01*
X140716026Y-123003892D01*
X140451047Y-122787256D01*
X140135150Y-122530310D01*
X139784245Y-122246080D01*
X139769549Y-122234160D01*
X139613585Y-122105362D01*
X139438379Y-121958052D01*
X139232433Y-121783132D01*
X139986397Y-121024269D01*
X140136645Y-120874682D01*
X140386702Y-120633352D01*
X140596839Y-120440150D01*
X140748510Y-120311894D01*
X140823168Y-120265405D01*
X140884692Y-120288791D01*
X141028094Y-120382295D01*
X141204702Y-120522837D01*
X141307946Y-120611170D01*
X141563339Y-120826317D01*
X141798267Y-121020540D01*
X141909523Y-121111922D01*
X142103958Y-121274565D01*
X142247340Y-121398107D01*
X142343658Y-121481821D01*
X142528777Y-121638775D01*
X142734282Y-121809999D01*
X142888107Y-121937334D01*
X143092649Y-122107668D01*
X143243495Y-122234451D01*
X143291843Y-122275471D01*
X143565007Y-122506470D01*
X143883158Y-122774561D01*
X144221320Y-123058792D01*
X144554516Y-123338213D01*
X144857769Y-123591873D01*
X145106103Y-123798821D01*
X145274542Y-123938107D01*
X145431383Y-124067841D01*
X145625600Y-124231594D01*
X145761723Y-124349999D01*
X145776570Y-124363239D01*
X145903884Y-124473285D01*
X146106802Y-124645802D01*
X146360601Y-124859846D01*
X146640557Y-125094475D01*
X146722098Y-125162977D01*
X146975502Y-125381081D01*
X147180335Y-125565292D01*
X147317349Y-125697947D01*
X147367298Y-125761384D01*
X147341091Y-125811031D01*
X147235353Y-125891729D01*
X147151184Y-125943670D01*
X147004673Y-126061080D01*
X146936291Y-126125938D01*
X146755972Y-126286751D01*
X146520224Y-126489915D01*
X146261090Y-126707954D01*
X146010611Y-126913395D01*
X145909021Y-126995777D01*
X145724918Y-127146955D01*
X145594262Y-127256639D01*
X145547120Y-127297179D01*
X145362910Y-127454443D01*
X145103293Y-127674763D01*
X144760825Y-127964436D01*
X144328065Y-128329762D01*
X143797568Y-128777038D01*
X143489147Y-129037003D01*
X143180206Y-129297493D01*
X142912913Y-129522957D01*
X142708384Y-129695580D01*
X142587738Y-129797552D01*
X142498884Y-129872521D01*
X142287976Y-130049309D01*
X142072873Y-130228506D01*
X142044174Y-130252343D01*
X141830656Y-130430402D01*
X141570693Y-130648026D01*
X141314122Y-130863506D01*
X141225433Y-130937257D01*
X141025158Y-131096869D01*
X140873877Y-131207688D01*
X140799004Y-131249188D01*
X140768830Y-131231000D01*
X140653233Y-131131921D01*
X140470427Y-130961222D01*
X140238004Y-130735481D01*
X139973558Y-130471280D01*
X139204920Y-129693372D01*
X138497866Y-130450789D01*
X138388855Y-130567604D01*
X138136554Y-130838276D01*
X137916154Y-131075135D01*
X137748270Y-131256013D01*
X137653514Y-131358746D01*
X137591495Y-131416116D01*
X137427671Y-131490793D01*
X137178694Y-131516534D01*
X137058739Y-131517147D01*
X136914086Y-131509775D01*
X136869775Y-131494230D01*
X137131118Y-131223886D01*
X137548801Y-130789821D01*
X137900138Y-130421411D01*
X138204711Y-130097938D01*
X138482102Y-129798684D01*
X138751892Y-129502932D01*
X138794157Y-129456280D01*
X139029777Y-129196791D01*
X139236295Y-128970285D01*
X139392729Y-128799725D01*
X139478100Y-128708076D01*
X139510897Y-128672001D01*
X139629933Y-128536125D01*
X139815776Y-128321238D01*
X140054426Y-128043603D01*
X140331882Y-127719483D01*
X140634144Y-127365143D01*
X140800597Y-127169833D01*
X141098556Y-126820991D01*
X141368002Y-126506492D01*
X141593839Y-126243909D01*
X141760973Y-126050815D01*
X141854306Y-125944782D01*
X141941253Y-125837205D01*
X141974617Y-125738565D01*
X141940664Y-125625600D01*
X141830482Y-125469744D01*
X141635158Y-125242432D01*
X141508627Y-125097688D01*
X141324140Y-124884328D01*
X141132256Y-124660626D01*
X140913978Y-124405298D01*
X140560144Y-123993051D01*
X140262497Y-123648510D01*
X140029128Y-123380981D01*
X139868128Y-123199767D01*
X139787588Y-123114173D01*
X139717653Y-123041106D01*
X139576433Y-122886649D01*
X139385541Y-122674515D01*
X139165796Y-122427687D01*
X139021529Y-122268035D01*
X138728552Y-121954567D01*
X138372461Y-121582817D01*
X137970780Y-121170318D01*
X137541033Y-120734600D01*
X137100743Y-120293197D01*
X136667433Y-119863640D01*
X136258628Y-119463461D01*
X135891851Y-119110193D01*
X135584625Y-118821368D01*
X135354474Y-118614518D01*
X135225156Y-118502924D01*
X134998150Y-118306073D01*
X134813577Y-118144819D01*
X134702312Y-118046072D01*
X134570607Y-117933756D01*
X134324607Y-117737821D01*
X134008662Y-117495104D01*
X133646375Y-117223126D01*
X133261352Y-116939409D01*
X132877195Y-116661472D01*
X132517509Y-116406838D01*
X132205898Y-116193025D01*
X131990720Y-116054310D01*
X131595294Y-115817011D01*
X131142825Y-115561087D01*
X130662265Y-115301708D01*
X130182564Y-115054045D01*
X129732670Y-114833269D01*
X129341535Y-114654548D01*
X129038109Y-114533055D01*
X128889853Y-114482102D01*
X128372223Y-114317399D01*
X127815480Y-114156510D01*
X127275216Y-114015000D01*
X126807028Y-113908431D01*
X126472299Y-113856501D01*
X125993220Y-113812778D01*
X125444662Y-113785881D01*
X124860914Y-113775842D01*
X124276261Y-113782692D01*
X123724988Y-113806460D01*
X123241383Y-113847179D01*
X122859730Y-113904878D01*
X122235426Y-114047120D01*
X121214184Y-114346830D01*
X120263809Y-114721801D01*
X119348360Y-115187074D01*
X118431892Y-115757690D01*
X118411701Y-115771364D01*
X118208359Y-115911130D01*
X118055787Y-116019575D01*
X117985676Y-116074217D01*
X117928463Y-116124767D01*
X117791291Y-116237977D01*
X117608109Y-116385300D01*
X117346975Y-116603853D01*
X116786653Y-117136931D01*
X116224821Y-117750700D01*
X115690781Y-118412083D01*
X115213838Y-119088002D01*
X115054696Y-119346547D01*
X114869213Y-119670725D01*
X114677613Y-120022816D01*
X114499213Y-120366489D01*
X114353334Y-120665408D01*
X114259292Y-120883243D01*
X114253312Y-120892707D01*
X114235745Y-120841370D01*
X114222271Y-120685561D01*
X114215420Y-120450237D01*
X114216191Y-120252889D01*
X114230688Y-120055940D01*
X114269767Y-119874833D01*
X114343817Y-119683600D01*
X114463221Y-119456273D01*
X114638367Y-119166882D01*
X114879641Y-118789459D01*
X114903549Y-118752589D01*
X115661557Y-117712657D01*
X116520003Y-116764628D01*
X117472517Y-115914213D01*
X118512727Y-115167117D01*
X119634263Y-114529050D01*
X119889582Y-114402882D01*
X120143917Y-114284096D01*
X120390968Y-114179462D01*
X120665323Y-114075217D01*
X121001568Y-113957600D01*
X121434291Y-113812850D01*
X121956945Y-113659783D01*
X122935064Y-113461609D01*
X123973394Y-113350783D01*
X125042776Y-113327432D01*
X126114055Y-113391683D01*
G37*
G36*
X124026823Y-117811216D02*
G01*
X124026890Y-118789459D01*
X122585202Y-118769646D01*
X121143514Y-118749833D01*
X121143514Y-125136808D01*
X121143514Y-131523783D01*
X120010811Y-131523783D01*
X118878109Y-131523783D01*
X118878109Y-124178378D01*
X118878109Y-116832972D01*
X121452433Y-116832972D01*
X124026757Y-116832972D01*
X124026823Y-117811216D01*
G37*
G36*
X114303123Y-130810727D02*
G01*
X114382559Y-130996436D01*
X114472731Y-131200869D01*
X114552260Y-131375624D01*
X114599765Y-131472297D01*
X114601059Y-131474988D01*
X114556263Y-131509540D01*
X114419998Y-131523783D01*
X114210000Y-131523783D01*
X114215420Y-131060405D01*
X114215731Y-131037821D01*
X114224075Y-130830576D01*
X114239397Y-130709437D01*
X114258627Y-130699999D01*
X114303123Y-130810727D01*
G37*
G36*
X155819360Y-120267990D02*
G01*
X155910455Y-120334604D01*
X156069528Y-120475619D01*
X156275567Y-120669994D01*
X156507558Y-120896687D01*
X156744489Y-121134659D01*
X156965347Y-121362867D01*
X157149119Y-121560272D01*
X157274791Y-121705832D01*
X157321352Y-121778505D01*
X157318143Y-121785552D01*
X157243938Y-121864108D01*
X157083321Y-122012520D01*
X156852007Y-122216852D01*
X156565707Y-122463166D01*
X156240136Y-122737526D01*
X156175890Y-122791147D01*
X155844175Y-123068090D01*
X155544559Y-123318366D01*
X155295374Y-123526652D01*
X155114951Y-123677627D01*
X155021622Y-123755970D01*
X155000448Y-123773756D01*
X154875312Y-123878040D01*
X154668261Y-124050045D01*
X154396977Y-124275102D01*
X154079137Y-124538540D01*
X153732422Y-124825689D01*
X152580520Y-125779339D01*
X152745991Y-125888453D01*
X152845637Y-125959610D01*
X153033770Y-126105038D01*
X153238654Y-126272161D01*
X153546496Y-126529794D01*
X153862095Y-126792126D01*
X154111879Y-126997632D01*
X154276448Y-127130270D01*
X154348782Y-127188566D01*
X154515695Y-127325384D01*
X154738493Y-127509381D01*
X154989078Y-127717408D01*
X155435322Y-128088555D01*
X155887152Y-128463557D01*
X156252893Y-128765991D01*
X156542993Y-129004437D01*
X156767899Y-129187479D01*
X156938058Y-129323697D01*
X157063919Y-129421673D01*
X157143695Y-129485758D01*
X157271094Y-129606613D01*
X157321352Y-129684083D01*
X157308781Y-129709145D01*
X157219525Y-129821815D01*
X157058654Y-130003524D01*
X156842860Y-130235687D01*
X156588834Y-130499719D01*
X156451190Y-130639756D01*
X156210131Y-130880902D01*
X156011587Y-131074181D01*
X155873155Y-131202605D01*
X155812433Y-131249188D01*
X155745926Y-131211294D01*
X155605103Y-131106184D01*
X155422490Y-130957432D01*
X155260359Y-130821480D01*
X155002928Y-130607671D01*
X154780901Y-130425405D01*
X154669058Y-130333706D01*
X154474720Y-130171236D01*
X154331711Y-130047837D01*
X154261787Y-129986579D01*
X154083776Y-129834836D01*
X153886480Y-129670270D01*
X153822406Y-129617152D01*
X153631251Y-129457377D01*
X153369985Y-129238031D01*
X153060513Y-128977597D01*
X152724740Y-128694561D01*
X152384571Y-128407408D01*
X152061913Y-128134621D01*
X151778671Y-127894686D01*
X151556749Y-127706087D01*
X151418053Y-127587309D01*
X151284345Y-127474466D01*
X151082604Y-127307888D01*
X150862124Y-127128433D01*
X150858879Y-127125812D01*
X150651911Y-126956365D01*
X150477286Y-126809425D01*
X150372503Y-126716541D01*
X150340490Y-126687114D01*
X150205110Y-126569433D01*
X150007593Y-126402296D01*
X149778568Y-126211736D01*
X149666193Y-126116817D01*
X149473840Y-125942355D01*
X149342017Y-125805995D01*
X149294361Y-125731195D01*
X149330178Y-125677021D01*
X149453773Y-125549790D01*
X149644455Y-125375048D01*
X149880166Y-125173783D01*
X150067363Y-125018512D01*
X150306831Y-124818668D01*
X150499907Y-124656151D01*
X150616802Y-124555945D01*
X150713617Y-124472340D01*
X150899382Y-124315346D01*
X151105174Y-124144053D01*
X151159227Y-124099427D01*
X151285256Y-123995244D01*
X151402202Y-123898186D01*
X151526345Y-123794576D01*
X151673968Y-123670741D01*
X151861350Y-123513005D01*
X152104773Y-123307694D01*
X152420518Y-123041132D01*
X152824865Y-122699645D01*
X153258793Y-122333323D01*
X153829031Y-121852697D01*
X154307998Y-121450250D01*
X154703662Y-121119486D01*
X155023994Y-120853905D01*
X155276962Y-120647011D01*
X155470535Y-120492305D01*
X155612683Y-120383289D01*
X155711374Y-120313466D01*
X155774578Y-120276337D01*
X155810264Y-120265405D01*
X155819360Y-120267990D01*
G37*
G36*
X131000210Y-120978871D02*
G01*
X131030363Y-120985475D01*
X131186033Y-120999311D01*
X131439864Y-121010436D01*
X131764582Y-121017847D01*
X132132912Y-121020540D01*
X133157028Y-121020540D01*
X133157028Y-122874053D01*
X133157028Y-124727567D01*
X134941892Y-124727567D01*
X136726757Y-124727567D01*
X136726757Y-125722972D01*
X136726757Y-126718378D01*
X134941892Y-126718378D01*
X133157028Y-126718378D01*
X133157028Y-128600495D01*
X133156593Y-128867646D01*
X133152028Y-129435639D01*
X133142654Y-129889097D01*
X133128678Y-130222342D01*
X133110307Y-130429700D01*
X133087747Y-130505495D01*
X133055018Y-130509859D01*
X132902117Y-130517189D01*
X132651032Y-130523062D01*
X132327200Y-130526963D01*
X131956057Y-130528378D01*
X130893648Y-130528378D01*
X130875473Y-128640540D01*
X130857298Y-126752702D01*
X129055271Y-126734400D01*
X127253244Y-126716098D01*
X127253244Y-125721832D01*
X127253244Y-124727567D01*
X129072433Y-124727567D01*
X130891622Y-124727567D01*
X130891622Y-122832384D01*
X130891630Y-122757528D01*
X130892459Y-122211394D01*
X130895247Y-121786472D01*
X130900836Y-121468413D01*
X130910066Y-121242869D01*
X130923778Y-121095491D01*
X130942812Y-121011931D01*
X130968009Y-120977841D01*
X131000210Y-120978871D01*
G37*
G36*
X167687298Y-125757297D02*
G01*
X167687298Y-126855675D01*
X164632433Y-126855675D01*
X161577568Y-126855675D01*
X161577568Y-125757297D01*
X161577568Y-124658918D01*
X164632433Y-124658918D01*
X167687298Y-124658918D01*
X167687298Y-125757297D01*
G37*
G36*
X173527457Y-104812549D02*
G01*
X175012536Y-104988315D01*
X176440000Y-105273720D01*
X177550350Y-105580228D01*
X179096022Y-106125081D01*
X180596901Y-106793784D01*
X182034865Y-107578871D01*
X182755676Y-108011621D01*
X182777050Y-108308796D01*
X182798423Y-108605971D01*
X182391072Y-108329343D01*
X182255241Y-108239329D01*
X181801414Y-107959694D01*
X181271095Y-107656957D01*
X180701948Y-107351546D01*
X180131640Y-107063889D01*
X179597838Y-106814415D01*
X179527139Y-106783093D01*
X179051682Y-106579087D01*
X178600883Y-106399843D01*
X178148201Y-106236706D01*
X177667096Y-106081023D01*
X177131027Y-105924142D01*
X176513455Y-105757407D01*
X175787838Y-105572167D01*
X175477452Y-105502803D01*
X174860484Y-105398183D01*
X174156794Y-105311749D01*
X173397688Y-105245539D01*
X172614474Y-105201591D01*
X171838458Y-105181941D01*
X171100946Y-105188628D01*
X170433244Y-105223689D01*
X170344591Y-105230998D01*
X168977724Y-105392707D01*
X167625336Y-105642128D01*
X166314613Y-105972472D01*
X165072742Y-106376949D01*
X163926908Y-106848767D01*
X163767557Y-106920582D01*
X163603483Y-106989557D01*
X163523743Y-107016216D01*
X163510000Y-107017924D01*
X163381472Y-107065616D01*
X163157991Y-107171044D01*
X162858287Y-107323782D01*
X162501091Y-107513402D01*
X162105134Y-107729478D01*
X161689146Y-107961583D01*
X161271858Y-108199291D01*
X160872002Y-108432174D01*
X160508307Y-108649807D01*
X160199504Y-108841761D01*
X159964325Y-108997612D01*
X159532409Y-109300133D01*
X159092036Y-109610004D01*
X158731777Y-109865211D01*
X158459842Y-110059907D01*
X158284442Y-110188243D01*
X158213784Y-110244375D01*
X158186168Y-110269616D01*
X158070748Y-110361481D01*
X157904865Y-110486211D01*
X157810358Y-110556436D01*
X157667217Y-110666175D01*
X157595946Y-110725789D01*
X157590651Y-110731028D01*
X157506938Y-110803024D01*
X157350347Y-110932340D01*
X157149730Y-111095098D01*
X156620716Y-111535579D01*
X155974454Y-112103391D01*
X155278349Y-112741280D01*
X154551921Y-113430406D01*
X153814694Y-114151928D01*
X153086188Y-114887005D01*
X152385925Y-115616797D01*
X151733428Y-116322462D01*
X151660336Y-116403211D01*
X151395458Y-116695752D01*
X151147896Y-116969051D01*
X150942585Y-117195587D01*
X150804457Y-117347837D01*
X150776273Y-117379143D01*
X150625482Y-117550285D01*
X150409436Y-117798823D01*
X150146444Y-118103393D01*
X149854814Y-118442630D01*
X149552856Y-118795168D01*
X149258879Y-119139641D01*
X148991191Y-119454686D01*
X148768101Y-119718937D01*
X148607919Y-119911028D01*
X148512280Y-120023215D01*
X148394802Y-120148161D01*
X148332456Y-120196756D01*
X148329136Y-120196263D01*
X148259676Y-120138465D01*
X148155889Y-120013802D01*
X148154609Y-120012087D01*
X148038738Y-119861728D01*
X147950811Y-119755729D01*
X147949670Y-119754473D01*
X147877732Y-119671519D01*
X147737897Y-119507525D01*
X147549855Y-119285658D01*
X147333295Y-119029088D01*
X147117108Y-118773461D01*
X146893000Y-118510444D01*
X146704605Y-118291351D01*
X146578160Y-118146834D01*
X146535108Y-118098676D01*
X146369645Y-117913585D01*
X146234595Y-117762512D01*
X146229214Y-117756482D01*
X146085169Y-117591049D01*
X145931793Y-117409732D01*
X145617522Y-117043697D01*
X145194518Y-116573506D01*
X144704102Y-116045602D01*
X144163892Y-115477808D01*
X143591506Y-114887944D01*
X143004562Y-114293830D01*
X142420678Y-113713286D01*
X141857473Y-113164135D01*
X141332564Y-112664196D01*
X140863570Y-112231290D01*
X140468109Y-111883238D01*
X140367200Y-111796639D01*
X140214409Y-111661850D01*
X140124865Y-111577839D01*
X140056724Y-111515390D01*
X139907307Y-111388685D01*
X139718641Y-111234595D01*
X139532493Y-111084833D01*
X139256210Y-110861965D01*
X138997831Y-110652996D01*
X138787572Y-110485862D01*
X138554864Y-110307039D01*
X138374325Y-110174715D01*
X138323244Y-110138564D01*
X138157890Y-110015241D01*
X138049772Y-109925312D01*
X137987420Y-109876974D01*
X137824146Y-109761555D01*
X137583465Y-109596526D01*
X137285756Y-109395834D01*
X136951393Y-109173429D01*
X136679582Y-108993681D01*
X136355737Y-108779259D01*
X136077436Y-108594698D01*
X135867689Y-108455263D01*
X135749505Y-108376216D01*
X135577900Y-108270090D01*
X135406262Y-108180198D01*
X135278743Y-108116295D01*
X135072300Y-108003886D01*
X134838919Y-107870777D01*
X134613563Y-107744138D01*
X134172891Y-107513250D01*
X133672439Y-107266259D01*
X133154475Y-107023304D01*
X132661264Y-106804527D01*
X132235075Y-106630066D01*
X132086229Y-106572656D01*
X131807240Y-106464159D01*
X131579221Y-106374353D01*
X131440811Y-106318401D01*
X131262025Y-106247885D01*
X130800077Y-106092216D01*
X130240894Y-105930867D01*
X129610992Y-105770390D01*
X128936891Y-105617342D01*
X128245109Y-105478275D01*
X127562163Y-105359744D01*
X127277517Y-105316949D01*
X126961832Y-105277188D01*
X126644500Y-105247964D01*
X126298395Y-105227760D01*
X125896395Y-105215057D01*
X125411377Y-105208337D01*
X124816217Y-105206083D01*
X124352704Y-105207779D01*
X123602543Y-105223237D01*
X122935778Y-105258533D01*
X122318091Y-105318225D01*
X121715164Y-105406873D01*
X121092681Y-105529034D01*
X120416322Y-105689269D01*
X119651772Y-105892135D01*
X119608780Y-105904132D01*
X119279141Y-106003583D01*
X118887379Y-106131649D01*
X118461059Y-106278294D01*
X118027746Y-106433486D01*
X117615007Y-106587189D01*
X117250406Y-106729369D01*
X116961509Y-106849992D01*
X116775881Y-106939023D01*
X116742177Y-106957312D01*
X116574637Y-107042295D01*
X116372433Y-107139439D01*
X115951139Y-107351726D01*
X115402945Y-107659201D01*
X114776352Y-108037946D01*
X114210000Y-108390683D01*
X114210000Y-108121495D01*
X114211758Y-108034428D01*
X114233254Y-107918858D01*
X114299127Y-107822421D01*
X114433796Y-107715142D01*
X114661682Y-107567044D01*
X114940192Y-107399591D01*
X115389268Y-107151405D01*
X115897757Y-106888989D01*
X116436035Y-106626323D01*
X116974481Y-106377384D01*
X117483472Y-106156152D01*
X117933384Y-105976606D01*
X118294595Y-105852723D01*
X118342888Y-105838104D01*
X118551927Y-105770171D01*
X118706487Y-105713255D01*
X118889318Y-105646527D01*
X119210489Y-105548102D01*
X119616752Y-105436495D01*
X120080985Y-105318803D01*
X120576063Y-105202122D01*
X121074865Y-105093550D01*
X121628820Y-104991030D01*
X122723545Y-104849533D01*
X123884476Y-104769323D01*
X125074828Y-104750544D01*
X126257821Y-104793343D01*
X127396671Y-104897867D01*
X128454595Y-105064260D01*
X128992365Y-105177315D01*
X129661112Y-105335443D01*
X130328962Y-105510323D01*
X130962203Y-105692631D01*
X131527120Y-105873040D01*
X131990000Y-106042226D01*
X132088501Y-106081718D01*
X132300421Y-106166775D01*
X132539190Y-106262679D01*
X132758710Y-106353384D01*
X133285831Y-106586159D01*
X133860857Y-106856625D01*
X134448651Y-107147194D01*
X135014080Y-107440279D01*
X135522008Y-107718291D01*
X135937298Y-107963645D01*
X136009547Y-108009215D01*
X136218050Y-108143002D01*
X136481715Y-108314133D01*
X136776211Y-108506594D01*
X137077203Y-108704375D01*
X137360357Y-108891462D01*
X137601340Y-109051845D01*
X137775819Y-109169512D01*
X137859460Y-109228450D01*
X137915003Y-109271497D01*
X138066339Y-109387371D01*
X138291925Y-109559468D01*
X138572597Y-109773173D01*
X138889190Y-110013866D01*
X139377723Y-110391940D01*
X140332552Y-111172431D01*
X141295656Y-112016435D01*
X142287527Y-112942201D01*
X143328653Y-113967980D01*
X143664805Y-114309987D01*
X144302619Y-114972504D01*
X144959961Y-115670782D01*
X145606839Y-116372479D01*
X146213261Y-117045251D01*
X146749237Y-117656756D01*
X146857462Y-117782418D01*
X147060778Y-118018197D01*
X147231826Y-118216190D01*
X147341978Y-118343243D01*
X147385440Y-118393467D01*
X147528003Y-118559763D01*
X147716435Y-118780780D01*
X147921785Y-119022593D01*
X148352066Y-119530323D01*
X148484754Y-119365837D01*
X148484896Y-119365661D01*
X148601863Y-119224116D01*
X148781754Y-119010650D01*
X149009375Y-118742908D01*
X149269529Y-118438533D01*
X149547022Y-118115171D01*
X149826659Y-117790465D01*
X150093244Y-117482059D01*
X150331583Y-117207598D01*
X150526480Y-116984725D01*
X150662740Y-116831086D01*
X150725168Y-116764324D01*
X150725225Y-116764275D01*
X150784377Y-116701973D01*
X150915183Y-116558291D01*
X151098353Y-116354572D01*
X151314595Y-116112161D01*
X151377434Y-116042145D01*
X151638515Y-115759686D01*
X151969752Y-115410658D01*
X152354658Y-115011657D01*
X152776744Y-114579279D01*
X153219525Y-114130121D01*
X153666512Y-113680780D01*
X154101219Y-113247852D01*
X154507160Y-112847934D01*
X154867846Y-112497622D01*
X155166791Y-112213513D01*
X155387507Y-112012203D01*
X155521788Y-111894385D01*
X155768548Y-111677386D01*
X155982138Y-111488966D01*
X156127480Y-111360041D01*
X156239361Y-111261911D01*
X156452580Y-111079343D01*
X156672560Y-110894864D01*
X156822671Y-110770196D01*
X157042380Y-110586628D01*
X157214269Y-110441786D01*
X157298921Y-110372145D01*
X157535086Y-110187752D01*
X157843987Y-109954533D01*
X158199137Y-109691842D01*
X158574046Y-109419032D01*
X158942224Y-109155459D01*
X159277183Y-108920475D01*
X159552433Y-108733436D01*
X160932369Y-107874962D01*
X162445436Y-107056816D01*
X162521500Y-107018693D01*
X162918902Y-106820698D01*
X163232994Y-106667533D01*
X163497137Y-106543942D01*
X163744696Y-106434671D01*
X164009034Y-106324463D01*
X164323514Y-106198064D01*
X164488119Y-106131909D01*
X164699915Y-106044924D01*
X164838379Y-105985741D01*
X164976341Y-105931746D01*
X165245034Y-105841239D01*
X165595303Y-105732261D01*
X165998598Y-105613038D01*
X166426369Y-105491799D01*
X166850066Y-105376769D01*
X167241138Y-105276179D01*
X167571034Y-105198253D01*
X168979647Y-104945248D01*
X170485701Y-104790801D01*
X172010074Y-104746640D01*
X173527457Y-104812549D01*
G37*
G36*
X173034426Y-87365095D02*
G01*
X173034426Y-87560479D01*
X172553479Y-87560479D01*
X172072533Y-87560479D01*
X172072533Y-87365095D01*
X172072533Y-87169710D01*
X172553479Y-87169710D01*
X173034426Y-87169710D01*
X173034426Y-87365095D01*
G37*
G36*
X166180935Y-86117639D02*
G01*
X166180935Y-86267935D01*
X165955491Y-86267935D01*
X165730047Y-86267935D01*
X165730047Y-87380124D01*
X165730047Y-88492314D01*
X165955491Y-88492314D01*
X166180935Y-88492314D01*
X166180935Y-88642610D01*
X166180935Y-88792905D01*
X165760106Y-88792905D01*
X165339278Y-88792905D01*
X165339278Y-87380124D01*
X165339278Y-85967343D01*
X165760106Y-85967343D01*
X166180935Y-85967343D01*
X166180935Y-86117639D01*
G37*
G36*
X174657621Y-87380124D02*
G01*
X174657621Y-88792905D01*
X174251822Y-88792905D01*
X173846024Y-88792905D01*
X173846024Y-88642610D01*
X173846024Y-88492314D01*
X174071467Y-88492314D01*
X174296911Y-88492314D01*
X174296911Y-87380124D01*
X174296911Y-86267935D01*
X174071467Y-86267935D01*
X173846024Y-86267935D01*
X173846024Y-86117639D01*
X173846024Y-85967343D01*
X174251822Y-85967343D01*
X174657621Y-85967343D01*
X174657621Y-87380124D01*
G37*
G36*
X164162750Y-87663504D02*
G01*
X164200944Y-87689349D01*
X164263797Y-87775999D01*
X164291762Y-87886114D01*
X164284749Y-88001857D01*
X164242664Y-88105396D01*
X164165416Y-88178894D01*
X164127545Y-88196683D01*
X164005177Y-88221348D01*
X163885682Y-88204945D01*
X163791087Y-88149222D01*
X163737552Y-88082695D01*
X163693647Y-87969612D01*
X163696682Y-87858505D01*
X163739422Y-87758828D01*
X163814632Y-87680035D01*
X163915080Y-87631581D01*
X164033531Y-87622919D01*
X164162750Y-87663504D01*
G37*
G36*
X169878213Y-91768763D02*
G01*
X169878213Y-92520243D01*
X169727917Y-92520243D01*
X169577621Y-92520243D01*
X169577621Y-92219651D01*
X169577621Y-91919059D01*
X169292059Y-91919059D01*
X169006497Y-91919059D01*
X169006497Y-91798823D01*
X169006497Y-91678586D01*
X169292059Y-91678586D01*
X169577621Y-91678586D01*
X169577621Y-91468172D01*
X169577621Y-91257757D01*
X169277030Y-91257757D01*
X168976438Y-91257757D01*
X168976438Y-91137521D01*
X168976438Y-91017284D01*
X169427325Y-91017284D01*
X169878213Y-91017284D01*
X169878213Y-91768763D01*
G37*
G36*
X167353243Y-91137521D02*
G01*
X167353243Y-91257757D01*
X167187917Y-91257757D01*
X167022592Y-91257757D01*
X167022592Y-91768763D01*
X167022592Y-92279769D01*
X167187917Y-92279769D01*
X167353243Y-92279769D01*
X167353243Y-92400006D01*
X167353243Y-92520243D01*
X166872296Y-92520243D01*
X166391349Y-92520243D01*
X166391349Y-92400006D01*
X166391349Y-92279769D01*
X166556675Y-92279769D01*
X166722000Y-92279769D01*
X166722000Y-91768763D01*
X166722000Y-91257757D01*
X166556675Y-91257757D01*
X166391349Y-91257757D01*
X166391349Y-91137521D01*
X166391349Y-91017284D01*
X166872296Y-91017284D01*
X167353243Y-91017284D01*
X167353243Y-91137521D01*
G37*
G36*
X167593716Y-86899178D02*
G01*
X167593716Y-87199769D01*
X167879278Y-87199769D01*
X168164840Y-87199769D01*
X168164840Y-87365095D01*
X168164840Y-87530420D01*
X167879278Y-87530420D01*
X167593716Y-87530420D01*
X167593716Y-87831012D01*
X167593716Y-88131604D01*
X167414449Y-88131604D01*
X167235183Y-88131604D01*
X167226580Y-87838527D01*
X167217976Y-87545450D01*
X166939929Y-87536807D01*
X166661882Y-87528164D01*
X166661882Y-87363967D01*
X166661882Y-87199769D01*
X166947444Y-87199769D01*
X167233006Y-87199769D01*
X167233006Y-86899178D01*
X167233006Y-86598586D01*
X167413361Y-86598586D01*
X167593716Y-86598586D01*
X167593716Y-86899178D01*
G37*
G36*
X172493361Y-91137521D02*
G01*
X172493361Y-91257757D01*
X172328035Y-91257757D01*
X172162710Y-91257757D01*
X172162710Y-91768763D01*
X172162710Y-92279769D01*
X172328035Y-92279769D01*
X172493361Y-92279769D01*
X172493361Y-92400006D01*
X172493361Y-92520243D01*
X171997385Y-92520243D01*
X171501408Y-92520243D01*
X171501408Y-92400006D01*
X171501408Y-92279769D01*
X171666734Y-92279769D01*
X171832059Y-92279769D01*
X171832059Y-91768763D01*
X171832059Y-91257757D01*
X171666734Y-91257757D01*
X171501408Y-91257757D01*
X171501408Y-91137521D01*
X171501408Y-91017284D01*
X171997385Y-91017284D01*
X172493361Y-91017284D01*
X172493361Y-91137521D01*
G37*
G36*
X170452334Y-91505746D02*
G01*
X170453732Y-91626400D01*
X170457312Y-91764074D01*
X170462433Y-91866852D01*
X170468639Y-91926326D01*
X170475477Y-91934089D01*
X170487969Y-91901341D01*
X170523158Y-91819558D01*
X170567466Y-91723675D01*
X170586695Y-91683322D01*
X170640511Y-91569772D01*
X170704905Y-91433346D01*
X170769821Y-91295331D01*
X170900334Y-91017284D01*
X171080635Y-91017284D01*
X171260935Y-91017284D01*
X171260935Y-91768763D01*
X171260935Y-92520243D01*
X171125669Y-92520243D01*
X170990402Y-92520243D01*
X170990379Y-92016752D01*
X170990355Y-91513260D01*
X170900201Y-91703829D01*
X170898446Y-91707544D01*
X170853846Y-91805820D01*
X170822125Y-91882891D01*
X170810047Y-91922355D01*
X170806585Y-91936212D01*
X170779697Y-91992843D01*
X170734899Y-92069355D01*
X170713039Y-92105648D01*
X170674893Y-92179747D01*
X170659835Y-92226568D01*
X170656592Y-92244436D01*
X170632379Y-92309209D01*
X170592253Y-92392491D01*
X170585183Y-92405823D01*
X170546476Y-92471930D01*
X170508090Y-92505903D01*
X170449879Y-92518441D01*
X170351697Y-92520243D01*
X170178805Y-92520243D01*
X170178805Y-91768763D01*
X170178805Y-91017284D01*
X170314071Y-91017284D01*
X170449337Y-91017284D01*
X170452334Y-91505746D01*
G37*
G36*
X165310717Y-91505746D02*
G01*
X165312215Y-91994207D01*
X165375523Y-91858941D01*
X165379283Y-91850902D01*
X165425503Y-91751601D01*
X165483870Y-91625630D01*
X165542687Y-91498231D01*
X165549408Y-91483645D01*
X165607930Y-91356816D01*
X165663890Y-91235815D01*
X165706007Y-91145036D01*
X165765469Y-91017284D01*
X165943143Y-91017284D01*
X166120817Y-91017284D01*
X166120817Y-91768763D01*
X166120817Y-92520243D01*
X165985550Y-92520243D01*
X165850284Y-92520243D01*
X165848362Y-92031781D01*
X165847665Y-91887208D01*
X165846134Y-91748944D01*
X165843085Y-91658965D01*
X165837648Y-91610601D01*
X165828952Y-91597185D01*
X165816125Y-91612050D01*
X165798296Y-91648527D01*
X165781496Y-91684770D01*
X165731896Y-91789196D01*
X165679982Y-91895962D01*
X165654198Y-91950417D01*
X165622279Y-92026422D01*
X165609811Y-92069399D01*
X165606412Y-92084044D01*
X165579544Y-92142335D01*
X165534663Y-92219651D01*
X165513866Y-92254739D01*
X165474953Y-92335824D01*
X165459515Y-92393397D01*
X165455820Y-92427931D01*
X165420552Y-92481699D01*
X165342035Y-92511228D01*
X165213030Y-92520243D01*
X165038686Y-92520243D01*
X165038686Y-91768763D01*
X165038686Y-91017284D01*
X165173953Y-91017284D01*
X165309219Y-91017284D01*
X165310717Y-91505746D01*
G37*
G36*
X167894968Y-91520775D02*
G01*
X167895809Y-91688647D01*
X167898895Y-91839490D01*
X167905207Y-91950367D01*
X167915758Y-92032160D01*
X167931557Y-92095749D01*
X167953617Y-92152018D01*
X167976957Y-92201547D01*
X168013406Y-92254976D01*
X168062292Y-92276064D01*
X168146159Y-92279769D01*
X168219809Y-92275976D01*
X168288602Y-92253174D01*
X168343014Y-92200568D01*
X168361953Y-92173938D01*
X168379042Y-92137876D01*
X168390957Y-92088380D01*
X168398620Y-92016113D01*
X168402953Y-91911739D01*
X168404877Y-91765922D01*
X168405314Y-91569325D01*
X168405314Y-91017284D01*
X168555609Y-91017284D01*
X168705905Y-91017284D01*
X168705905Y-91607660D01*
X168705905Y-91609904D01*
X168705449Y-91814720D01*
X168703502Y-91969262D01*
X168699181Y-92083280D01*
X168691600Y-92166522D01*
X168679876Y-92228737D01*
X168663124Y-92279674D01*
X168640459Y-92329080D01*
X168618120Y-92369357D01*
X168568226Y-92434773D01*
X168526234Y-92460124D01*
X168502485Y-92462774D01*
X168448899Y-92487266D01*
X168423942Y-92504202D01*
X168360225Y-92528868D01*
X168351387Y-92530908D01*
X168205971Y-92545031D01*
X168051534Y-92530498D01*
X167905106Y-92491718D01*
X167783718Y-92433101D01*
X167704400Y-92359057D01*
X167670164Y-92290073D01*
X167635815Y-92164548D01*
X167612026Y-91993612D01*
X167598193Y-91772576D01*
X167593716Y-91496751D01*
X167593716Y-91017284D01*
X167744012Y-91017284D01*
X167894308Y-91017284D01*
X167894968Y-91520775D01*
G37*
G36*
X164902240Y-91725081D02*
G01*
X164901595Y-91906277D01*
X164883165Y-92075323D01*
X164846706Y-92217202D01*
X164791974Y-92316902D01*
X164746214Y-92372095D01*
X164712917Y-92417221D01*
X164704684Y-92426330D01*
X164651711Y-92461002D01*
X164572769Y-92498335D01*
X164494441Y-92524167D01*
X164318470Y-92545560D01*
X164144819Y-92522950D01*
X163989076Y-92459432D01*
X163866828Y-92358103D01*
X163821977Y-92297979D01*
X163754023Y-92158016D01*
X163715177Y-91985459D01*
X163702211Y-91768763D01*
X163702421Y-91764170D01*
X164017540Y-91764170D01*
X164029180Y-91920499D01*
X164063518Y-92062843D01*
X164118606Y-92176630D01*
X164192498Y-92247285D01*
X164215394Y-92258376D01*
X164321303Y-92278091D01*
X164414836Y-92245124D01*
X164491847Y-92165270D01*
X164548194Y-92044320D01*
X164579732Y-91888069D01*
X164582318Y-91702308D01*
X164578083Y-91651724D01*
X164546246Y-91484765D01*
X164488396Y-91366106D01*
X164401975Y-91289901D01*
X164352000Y-91268364D01*
X164252642Y-91267003D01*
X164162486Y-91323643D01*
X164084308Y-91436999D01*
X164070131Y-91467860D01*
X164030541Y-91608433D01*
X164017540Y-91764170D01*
X163702421Y-91764170D01*
X163711769Y-91559653D01*
X163750254Y-91365835D01*
X163820539Y-91216157D01*
X163925128Y-91105539D01*
X164066523Y-91028898D01*
X164146099Y-91005799D01*
X164319499Y-90995512D01*
X164493455Y-91030814D01*
X164650748Y-91107062D01*
X164774156Y-91219615D01*
X164799903Y-91258743D01*
X164851151Y-91386299D01*
X164885344Y-91546750D01*
X164900082Y-91702308D01*
X164902240Y-91725081D01*
G37*
G36*
X176340935Y-91765672D02*
G01*
X176340935Y-92069355D01*
X176340935Y-92520243D01*
X176057666Y-92520243D01*
X176032394Y-92520186D01*
X175821019Y-92513387D01*
X175658743Y-92493458D01*
X175536393Y-92457833D01*
X175444796Y-92403946D01*
X175374777Y-92329231D01*
X175329915Y-92259228D01*
X175297422Y-92167738D01*
X175288864Y-92050852D01*
X175289044Y-92025202D01*
X175626800Y-92025202D01*
X175633130Y-92114728D01*
X175693296Y-92205988D01*
X175722565Y-92232149D01*
X175797930Y-92269448D01*
X175903711Y-92279769D01*
X176040343Y-92279769D01*
X176040343Y-92069355D01*
X176040343Y-91858941D01*
X175909131Y-91858941D01*
X175872824Y-91860297D01*
X175752448Y-91888660D01*
X175668506Y-91946737D01*
X175626800Y-92025202D01*
X175289044Y-92025202D01*
X175289048Y-92024696D01*
X175297209Y-91930721D01*
X175324597Y-91863743D01*
X175380974Y-91796846D01*
X175404576Y-91772378D01*
X175446225Y-91721286D01*
X175451241Y-91686494D01*
X175425134Y-91649636D01*
X175410859Y-91629595D01*
X175378393Y-91542525D01*
X175359534Y-91429419D01*
X175359531Y-91429288D01*
X175672921Y-91429288D01*
X175698436Y-91520075D01*
X175766139Y-91586443D01*
X175768939Y-91587884D01*
X175842381Y-91609533D01*
X175933160Y-91618467D01*
X176040343Y-91618467D01*
X176040343Y-91438112D01*
X176040343Y-91257757D01*
X175942651Y-91258168D01*
X175824802Y-91266991D01*
X175736913Y-91298978D01*
X175687367Y-91357997D01*
X175672921Y-91429288D01*
X175359531Y-91429288D01*
X175357211Y-91314842D01*
X175374349Y-91223358D01*
X175382482Y-91204425D01*
X175429200Y-91139029D01*
X175503553Y-91090976D01*
X175613570Y-91057593D01*
X175767280Y-91036208D01*
X175972710Y-91024148D01*
X176340935Y-91011102D01*
X176340935Y-91438112D01*
X176340935Y-91765672D01*
G37*
G36*
X175078450Y-91768763D02*
G01*
X175078450Y-92520243D01*
X174928154Y-92520243D01*
X174777858Y-92520243D01*
X174777858Y-92219651D01*
X174777461Y-92132884D01*
X174774206Y-92023908D01*
X174766287Y-91958802D01*
X174752064Y-91927281D01*
X174729895Y-91919059D01*
X174727007Y-91919122D01*
X174662516Y-91939611D01*
X174590352Y-91985680D01*
X174531595Y-92041153D01*
X174507325Y-92089854D01*
X174506166Y-92101096D01*
X174485687Y-92165288D01*
X174447727Y-92245617D01*
X174439730Y-92260520D01*
X174393021Y-92355406D01*
X174358294Y-92437580D01*
X174338005Y-92482461D01*
X174306833Y-92507795D01*
X174248827Y-92518217D01*
X174147359Y-92520243D01*
X174068007Y-92517481D01*
X173989564Y-92503408D01*
X173964648Y-92478772D01*
X173996320Y-92445095D01*
X174008295Y-92434037D01*
X174026379Y-92382605D01*
X174029530Y-92365052D01*
X174056316Y-92300165D01*
X174101527Y-92219651D01*
X174123761Y-92182980D01*
X174161680Y-92111384D01*
X174176675Y-92068358D01*
X174179108Y-92056591D01*
X174205241Y-92000922D01*
X174250793Y-91927032D01*
X174324911Y-91817957D01*
X174235375Y-91763507D01*
X174223648Y-91756057D01*
X174124736Y-91656592D01*
X174071512Y-91525295D01*
X174070079Y-91439112D01*
X174393277Y-91439112D01*
X174406975Y-91518448D01*
X174479573Y-91600766D01*
X174553940Y-91649462D01*
X174674957Y-91678586D01*
X174777858Y-91678586D01*
X174777858Y-91468172D01*
X174777858Y-91257757D01*
X174656255Y-91257757D01*
X174651121Y-91257780D01*
X174543638Y-91275079D01*
X174460870Y-91331539D01*
X174438024Y-91356196D01*
X174393277Y-91439112D01*
X174070079Y-91439112D01*
X174068995Y-91373916D01*
X174088275Y-91291646D01*
X174144128Y-91185544D01*
X174235645Y-91107807D01*
X174368299Y-91055683D01*
X174547562Y-91026426D01*
X174778908Y-91017284D01*
X175078450Y-91017284D01*
X175078450Y-91468172D01*
X175078450Y-91768763D01*
G37*
G36*
X173773963Y-91959877D02*
G01*
X173835084Y-92146555D01*
X173836999Y-92152308D01*
X173871905Y-92268397D01*
X173896706Y-92371403D01*
X173906142Y-92439632D01*
X173904580Y-92475152D01*
X173889350Y-92505726D01*
X173844921Y-92517994D01*
X173755846Y-92520243D01*
X173697966Y-92519581D01*
X173636399Y-92512207D01*
X173610706Y-92490520D01*
X173605550Y-92447052D01*
X173599167Y-92384798D01*
X173576235Y-92296756D01*
X173561384Y-92263355D01*
X173537312Y-92238846D01*
X173493039Y-92225787D01*
X173415261Y-92220586D01*
X173290673Y-92219651D01*
X173170483Y-92220308D01*
X173093136Y-92224562D01*
X173052599Y-92235807D01*
X173036989Y-92257436D01*
X173034426Y-92292842D01*
X173028043Y-92355095D01*
X173005111Y-92443138D01*
X172991140Y-92474435D01*
X172961454Y-92504500D01*
X172906832Y-92517461D01*
X172809726Y-92520243D01*
X172741051Y-92519021D01*
X172670858Y-92514095D01*
X172643657Y-92506680D01*
X172646770Y-92487079D01*
X172663247Y-92417723D01*
X172690312Y-92314864D01*
X172723900Y-92193408D01*
X172759941Y-92068263D01*
X172786863Y-91979178D01*
X173132956Y-91979178D01*
X173294105Y-91979178D01*
X173335432Y-91978835D01*
X173411373Y-91972956D01*
X173446627Y-91955976D01*
X173455254Y-91922994D01*
X173454333Y-91911560D01*
X173440637Y-91846405D01*
X173414792Y-91751212D01*
X173382285Y-91643617D01*
X173348601Y-91541257D01*
X173319228Y-91461768D01*
X173299652Y-91422786D01*
X173289699Y-91429147D01*
X173266380Y-91481375D01*
X173235365Y-91575712D01*
X173199787Y-91702336D01*
X173162785Y-91851426D01*
X173132956Y-91979178D01*
X172786863Y-91979178D01*
X172794370Y-91954336D01*
X172796236Y-91948353D01*
X172848804Y-91777363D01*
X172910888Y-91571673D01*
X172975832Y-91353495D01*
X173036976Y-91145036D01*
X173074108Y-91017284D01*
X173277083Y-91017284D01*
X173480058Y-91017284D01*
X173557834Y-91220821D01*
X173560533Y-91227910D01*
X173598459Y-91333411D01*
X173625376Y-91418979D01*
X173635609Y-91466677D01*
X173635975Y-91472914D01*
X173648833Y-91536387D01*
X173678005Y-91645140D01*
X173720659Y-91789521D01*
X173762422Y-91922994D01*
X173773963Y-91959877D01*
G37*
G36*
X175558070Y-87554238D02*
G01*
X175555958Y-87662153D01*
X175547496Y-87748127D01*
X175530930Y-87826853D01*
X175504506Y-87913021D01*
X175466468Y-88021323D01*
X175439777Y-88094673D01*
X175398774Y-88202053D01*
X175366922Y-88278851D01*
X175349497Y-88311959D01*
X175335537Y-88329478D01*
X175297542Y-88387881D01*
X175248580Y-88469769D01*
X175213187Y-88526851D01*
X175167073Y-88588574D01*
X175137301Y-88612550D01*
X175129871Y-88613606D01*
X175108509Y-88643611D01*
X175108448Y-88644860D01*
X175085929Y-88685894D01*
X175034209Y-88747006D01*
X174969958Y-88811423D01*
X174909843Y-88862372D01*
X174870531Y-88883083D01*
X174854338Y-88887737D01*
X174816926Y-88924889D01*
X174815027Y-88928027D01*
X174755893Y-88985518D01*
X174651111Y-89052310D01*
X174512473Y-89122882D01*
X174351771Y-89191712D01*
X174180799Y-89253279D01*
X174011349Y-89302062D01*
X173994351Y-89305939D01*
X173842200Y-89323801D01*
X173655980Y-89324119D01*
X173455838Y-89308374D01*
X173261917Y-89278047D01*
X173094364Y-89234621D01*
X173054144Y-89221050D01*
X172893357Y-89163968D01*
X172784700Y-89119370D01*
X172723173Y-89085002D01*
X172703775Y-89058613D01*
X172699901Y-89048018D01*
X172662112Y-89033379D01*
X172649325Y-89030931D01*
X172591323Y-89004502D01*
X172509891Y-88957129D01*
X172420179Y-88898920D01*
X172337341Y-88839983D01*
X172276526Y-88790426D01*
X172252888Y-88760359D01*
X172249919Y-88749799D01*
X172214171Y-88732787D01*
X172203058Y-88729640D01*
X172149011Y-88694916D01*
X172065657Y-88628378D01*
X171962016Y-88538233D01*
X171847111Y-88432690D01*
X171729962Y-88319957D01*
X171619590Y-88208241D01*
X171525017Y-88105750D01*
X171413359Y-87978779D01*
X171303590Y-88100280D01*
X171258001Y-88147317D01*
X171195259Y-88200915D01*
X171154370Y-88221781D01*
X171133679Y-88215194D01*
X171074866Y-88177168D01*
X171003368Y-88116574D01*
X170961998Y-88079120D01*
X170901261Y-88030426D01*
X170866654Y-88011367D01*
X170834919Y-87989795D01*
X170792254Y-87936219D01*
X170749162Y-87883800D01*
X170712345Y-87861071D01*
X170711924Y-87861065D01*
X170670562Y-87840901D01*
X170614659Y-87793438D01*
X170585583Y-87765317D01*
X170491217Y-87680861D01*
X170362822Y-87571990D01*
X170209945Y-87446878D01*
X170171132Y-87412074D01*
X170152456Y-87368706D01*
X170154123Y-87363499D01*
X170699455Y-87363499D01*
X170700316Y-87380124D01*
X170747411Y-87401108D01*
X170797782Y-87455272D01*
X170841969Y-87507578D01*
X170881972Y-87530420D01*
X170913404Y-87541521D01*
X170964398Y-87583024D01*
X171013778Y-87631967D01*
X171083800Y-87692300D01*
X171151101Y-87746491D01*
X171230661Y-87812537D01*
X171305594Y-87876101D01*
X171245690Y-87803018D01*
X171193526Y-87740446D01*
X171140698Y-87679000D01*
X171100161Y-87632965D01*
X171004236Y-87520563D01*
X170942695Y-87440981D01*
X170909903Y-87386493D01*
X170900844Y-87351750D01*
X170986215Y-87351750D01*
X171115647Y-87508718D01*
X171182613Y-87589106D01*
X171235794Y-87651397D01*
X171262528Y-87680716D01*
X171264944Y-87683034D01*
X171298150Y-87718409D01*
X171361736Y-87787884D01*
X171441735Y-87876101D01*
X171447708Y-87882688D01*
X171548071Y-87994047D01*
X171653850Y-88107156D01*
X171802866Y-88256457D01*
X171954084Y-88399013D01*
X172087129Y-88515130D01*
X172186311Y-88596687D01*
X172290060Y-88682029D01*
X172371359Y-88748935D01*
X172418213Y-88787536D01*
X172439796Y-88804667D01*
X172581028Y-88897658D01*
X172758368Y-88992030D01*
X172952681Y-89079069D01*
X173144833Y-89150060D01*
X173315689Y-89196288D01*
X173438553Y-89218281D01*
X173653625Y-89238200D01*
X173860790Y-89227427D01*
X174089228Y-89185559D01*
X174156014Y-89168754D01*
X174433487Y-89066128D01*
X174690267Y-88913721D01*
X174931195Y-88708192D01*
X175161112Y-88446202D01*
X175170329Y-88434097D01*
X175211867Y-88372557D01*
X175228746Y-88334896D01*
X175231118Y-88324781D01*
X175255510Y-88272381D01*
X175297782Y-88198639D01*
X175315499Y-88165090D01*
X175356409Y-88063991D01*
X175399158Y-87933710D01*
X175436945Y-87794023D01*
X175449783Y-87737405D01*
X175492510Y-87414800D01*
X175478846Y-87103386D01*
X175407891Y-86795732D01*
X175278750Y-86484409D01*
X175224572Y-86384035D01*
X175170982Y-86297650D01*
X175131053Y-86246791D01*
X175098444Y-86210679D01*
X175078450Y-86170006D01*
X175060283Y-86140831D01*
X175008380Y-86082639D01*
X174935122Y-86008238D01*
X174852991Y-85929562D01*
X174774466Y-85858545D01*
X174712029Y-85807123D01*
X174678160Y-85787229D01*
X174671675Y-85785864D01*
X174624724Y-85761382D01*
X174557923Y-85715978D01*
X174544175Y-85706042D01*
X174465549Y-85657011D01*
X174402118Y-85628429D01*
X174360358Y-85615482D01*
X174272874Y-85585820D01*
X174169911Y-85549143D01*
X174100748Y-85528966D01*
X173944769Y-85502367D01*
X173762051Y-85487447D01*
X173573234Y-85484879D01*
X173398960Y-85495335D01*
X173259870Y-85519488D01*
X173214289Y-85532859D01*
X173063064Y-85587287D01*
X172897945Y-85658643D01*
X172730644Y-85740635D01*
X172572878Y-85826968D01*
X172436362Y-85911351D01*
X172332810Y-85987491D01*
X172273938Y-86049094D01*
X172260476Y-86064925D01*
X172209762Y-86087580D01*
X172168016Y-86108766D01*
X172120385Y-86162728D01*
X172077883Y-86215208D01*
X172042761Y-86237876D01*
X172033124Y-86242734D01*
X171986187Y-86281385D01*
X171909598Y-86352348D01*
X171811376Y-86448074D01*
X171699540Y-86561012D01*
X171654534Y-86607179D01*
X171539257Y-86725194D01*
X171436512Y-86830064D01*
X171383301Y-86884148D01*
X171356092Y-86911804D01*
X171307791Y-86960428D01*
X171299136Y-86969242D01*
X171250655Y-87029202D01*
X171230876Y-87073150D01*
X171229295Y-87085864D01*
X171205847Y-87109592D01*
X171189924Y-87118020D01*
X171143254Y-87161887D01*
X171083517Y-87230671D01*
X170986215Y-87351750D01*
X170900844Y-87351750D01*
X170900225Y-87349374D01*
X170900360Y-87347026D01*
X170922622Y-87297879D01*
X170975585Y-87222483D01*
X171048590Y-87136156D01*
X171060731Y-87122773D01*
X171125155Y-87045824D01*
X171163668Y-86989125D01*
X171168301Y-86964130D01*
X171135591Y-86973277D01*
X171087569Y-87015544D01*
X171081557Y-87022296D01*
X171026037Y-87075541D01*
X170941532Y-87148911D01*
X170843790Y-87228639D01*
X170810630Y-87255444D01*
X170738851Y-87319168D01*
X170699455Y-87363499D01*
X170154123Y-87363499D01*
X170171726Y-87308507D01*
X170207942Y-87254494D01*
X170249851Y-87229828D01*
X170293015Y-87208697D01*
X170341366Y-87154681D01*
X170387929Y-87102622D01*
X170435001Y-87079533D01*
X170455033Y-87076758D01*
X170479396Y-87053908D01*
X170479768Y-87051928D01*
X170506826Y-87018242D01*
X170568279Y-86960707D01*
X170652237Y-86890559D01*
X170660202Y-86884148D01*
X171230876Y-86884148D01*
X171245905Y-86899178D01*
X171260935Y-86884148D01*
X171245905Y-86869118D01*
X171230876Y-86884148D01*
X170660202Y-86884148D01*
X170767994Y-86797383D01*
X170935283Y-86657814D01*
X171069787Y-86538049D01*
X171120062Y-86496765D01*
X171154806Y-86478349D01*
X171172307Y-86488050D01*
X171222491Y-86530925D01*
X171288917Y-86596424D01*
X171402362Y-86714498D01*
X171579637Y-86533526D01*
X171610787Y-86502275D01*
X171725034Y-86393306D01*
X171860350Y-86270309D01*
X172003871Y-86144441D01*
X172142732Y-86026857D01*
X172264067Y-85928714D01*
X172355012Y-85861166D01*
X172408717Y-85825539D01*
X172514201Y-85758882D01*
X172619721Y-85695444D01*
X172708533Y-85645181D01*
X172763893Y-85618047D01*
X172773903Y-85614055D01*
X172837529Y-85584679D01*
X172918472Y-85543760D01*
X172949680Y-85529401D01*
X173065067Y-85491439D01*
X173214598Y-85455656D01*
X173379536Y-85425650D01*
X173541148Y-85405020D01*
X173680698Y-85397364D01*
X173857757Y-85408505D01*
X174074044Y-85443582D01*
X174284522Y-85497024D01*
X174462237Y-85563117D01*
X174552333Y-85606438D01*
X174624436Y-85644359D01*
X174657621Y-85666170D01*
X174675228Y-85681887D01*
X174731883Y-85724466D01*
X174810769Y-85779693D01*
X174889920Y-85838915D01*
X175067556Y-86009833D01*
X175231031Y-86218173D01*
X175367319Y-86448290D01*
X175429050Y-86576573D01*
X175477740Y-86696839D01*
X175510970Y-86813339D01*
X175532214Y-86942038D01*
X175544947Y-87098904D01*
X175552642Y-87299902D01*
X175555589Y-87409691D01*
X175555677Y-87414800D01*
X175558070Y-87554238D01*
G37*
G36*
X169373894Y-86947593D02*
G01*
X169407002Y-86978451D01*
X169441118Y-87011899D01*
X169442551Y-87013313D01*
X169499010Y-87060130D01*
X169540037Y-87079533D01*
X169575471Y-87100961D01*
X169619946Y-87154681D01*
X169665238Y-87206871D01*
X169708501Y-87229828D01*
X169745236Y-87249021D01*
X169787013Y-87303066D01*
X169792784Y-87313757D01*
X169804561Y-87338638D01*
X169807995Y-87345894D01*
X169809382Y-87374139D01*
X169790489Y-87406986D01*
X169744859Y-87452931D01*
X169666036Y-87520467D01*
X169547562Y-87618088D01*
X169481224Y-87672758D01*
X169378531Y-87758397D01*
X169302194Y-87824201D01*
X169245132Y-87876101D01*
X169238617Y-87882027D01*
X169174205Y-87943734D01*
X169172270Y-87945608D01*
X169115271Y-87992115D01*
X169074140Y-88011367D01*
X169038706Y-88032795D01*
X168994232Y-88086515D01*
X168947669Y-88138573D01*
X168900597Y-88161663D01*
X168880499Y-88164940D01*
X168856201Y-88191722D01*
X168848395Y-88215701D01*
X168809567Y-88219105D01*
X168747254Y-88184676D01*
X168671674Y-88116574D01*
X168638370Y-88082809D01*
X168580167Y-88031550D01*
X168545040Y-88011367D01*
X168539389Y-88013669D01*
X168497584Y-88046580D01*
X168425186Y-88112451D01*
X168330555Y-88203504D01*
X168222050Y-88311959D01*
X168185496Y-88348900D01*
X168080275Y-88452561D01*
X167991394Y-88536250D01*
X167927293Y-88592177D01*
X167896412Y-88612550D01*
X167871393Y-88625085D01*
X167834189Y-88672669D01*
X167806084Y-88708960D01*
X167759477Y-88732787D01*
X167738719Y-88736791D01*
X167692902Y-88773310D01*
X167674770Y-88794128D01*
X167614787Y-88844238D01*
X167533598Y-88901061D01*
X167481216Y-88936065D01*
X167417388Y-88983060D01*
X167388312Y-89010834D01*
X167380378Y-89020082D01*
X167335111Y-89033379D01*
X167321069Y-89035541D01*
X167258372Y-89060301D01*
X167179805Y-89103830D01*
X167155844Y-89118307D01*
X167065997Y-89164925D01*
X166992533Y-89192934D01*
X166992040Y-89193057D01*
X166925149Y-89210927D01*
X166822809Y-89239600D01*
X166706970Y-89272926D01*
X166490577Y-89315463D01*
X166226694Y-89325704D01*
X165959414Y-89297805D01*
X165710657Y-89232650D01*
X165696377Y-89227436D01*
X165572723Y-89176888D01*
X165444776Y-89116728D01*
X165324475Y-89053542D01*
X165223763Y-88993918D01*
X165154579Y-88944442D01*
X165128864Y-88911702D01*
X165127031Y-88902522D01*
X165094326Y-88883083D01*
X165091999Y-88882903D01*
X165048136Y-88857086D01*
X164980851Y-88796298D01*
X164901140Y-88713103D01*
X164820001Y-88620060D01*
X164748429Y-88529733D01*
X164697422Y-88454683D01*
X164677976Y-88407472D01*
X164671553Y-88384442D01*
X164636681Y-88335075D01*
X164621891Y-88313590D01*
X164585978Y-88241082D01*
X164541186Y-88134969D01*
X164493899Y-88009792D01*
X164466595Y-87932250D01*
X164432340Y-87824763D01*
X164410774Y-87731342D01*
X164399095Y-87633447D01*
X164394500Y-87512535D01*
X164394441Y-87482108D01*
X164475254Y-87482108D01*
X164512651Y-87720956D01*
X164531597Y-87798228D01*
X164550685Y-87889302D01*
X164558302Y-87945200D01*
X164571264Y-87993571D01*
X164606098Y-88079008D01*
X164654757Y-88184038D01*
X164709190Y-88292040D01*
X164761343Y-88386399D01*
X164803163Y-88450496D01*
X164810119Y-88459086D01*
X164865305Y-88520663D01*
X164946639Y-88605932D01*
X165040671Y-88701384D01*
X165133945Y-88793507D01*
X165213011Y-88868791D01*
X165264414Y-88913726D01*
X165355324Y-88973940D01*
X165517306Y-89057755D01*
X165699877Y-89132350D01*
X165880343Y-89187636D01*
X166144917Y-89232450D01*
X166409788Y-89232145D01*
X166691941Y-89185644D01*
X166757721Y-89168724D01*
X166905019Y-89122054D01*
X167052683Y-89065515D01*
X167186096Y-89005435D01*
X167290642Y-88948142D01*
X167351704Y-88899967D01*
X167378414Y-88873718D01*
X167419282Y-88853024D01*
X167431418Y-88848742D01*
X167485487Y-88816611D01*
X167568714Y-88759889D01*
X167668788Y-88686780D01*
X167750480Y-88622372D01*
X167924224Y-88471657D01*
X168115963Y-88290890D01*
X168313876Y-88091768D01*
X168506142Y-87885989D01*
X168514752Y-87876101D01*
X168615728Y-87876101D01*
X168630757Y-87891130D01*
X168645787Y-87876101D01*
X168630757Y-87861071D01*
X168615728Y-87876101D01*
X168514752Y-87876101D01*
X168571818Y-87810566D01*
X168706507Y-87810566D01*
X168707993Y-87823887D01*
X168719404Y-87822884D01*
X168749649Y-87801331D01*
X168807634Y-87753002D01*
X168902267Y-87671669D01*
X168909008Y-87665861D01*
X169012472Y-87577100D01*
X169111750Y-87492521D01*
X169186210Y-87429707D01*
X169198888Y-87419044D01*
X169252344Y-87368652D01*
X169263841Y-87338638D01*
X169239320Y-87316322D01*
X169212424Y-87299657D01*
X169150036Y-87251710D01*
X169117135Y-87222076D01*
X169039864Y-87156184D01*
X168954043Y-87086194D01*
X168873255Y-87022872D01*
X168811084Y-86976984D01*
X168781111Y-86959296D01*
X168779902Y-86960654D01*
X168797516Y-86990750D01*
X168845019Y-87052265D01*
X168914255Y-87134468D01*
X168928946Y-87151520D01*
X168998849Y-87237640D01*
X169048029Y-87306516D01*
X169066615Y-87344539D01*
X169065286Y-87351773D01*
X169062692Y-87365892D01*
X169044192Y-87400199D01*
X169004384Y-87452514D01*
X168936636Y-87531428D01*
X168834319Y-87645531D01*
X168774702Y-87713947D01*
X168725649Y-87776025D01*
X168706568Y-87808467D01*
X168706507Y-87810566D01*
X168571818Y-87810566D01*
X168680939Y-87685251D01*
X168757141Y-87594848D01*
X168840481Y-87498242D01*
X168905119Y-87425864D01*
X168941307Y-87388811D01*
X168949442Y-87381333D01*
X168961906Y-87351773D01*
X168941960Y-87308913D01*
X168884193Y-87238515D01*
X168851925Y-87201758D01*
X168784863Y-87124235D01*
X168737269Y-87067739D01*
X168690088Y-87015248D01*
X168623243Y-86949597D01*
X168589269Y-86914207D01*
X168705905Y-86914207D01*
X168720935Y-86929237D01*
X168735964Y-86914207D01*
X168720935Y-86899178D01*
X168705905Y-86914207D01*
X168589269Y-86914207D01*
X168575697Y-86900069D01*
X168555609Y-86866094D01*
X168553000Y-86860662D01*
X168519133Y-86820256D01*
X168452237Y-86749336D01*
X168360097Y-86656008D01*
X168250497Y-86548378D01*
X168190770Y-86490557D01*
X168048520Y-86353149D01*
X167941809Y-86250826D01*
X167865083Y-86178504D01*
X167812787Y-86131101D01*
X167779367Y-86103534D01*
X167759269Y-86090721D01*
X167746939Y-86087580D01*
X167744631Y-86087277D01*
X167707488Y-86063208D01*
X167653834Y-86012432D01*
X167648561Y-86006925D01*
X167590390Y-85957560D01*
X167545892Y-85937284D01*
X167533106Y-85935947D01*
X167498529Y-85913154D01*
X167498284Y-85912604D01*
X167464131Y-85880522D01*
X167390678Y-85830816D01*
X167292358Y-85771793D01*
X167183605Y-85711761D01*
X167078852Y-85659028D01*
X166992533Y-85621903D01*
X166960913Y-85610340D01*
X166802287Y-85555299D01*
X166674417Y-85519292D01*
X166556343Y-85498412D01*
X166427103Y-85488749D01*
X166265738Y-85486396D01*
X166177295Y-85486894D01*
X166042841Y-85491716D01*
X165940001Y-85503932D01*
X165850065Y-85526292D01*
X165754327Y-85561544D01*
X165660453Y-85598411D01*
X165583546Y-85626104D01*
X165545094Y-85636692D01*
X165515594Y-85648439D01*
X165448861Y-85685397D01*
X165362406Y-85738802D01*
X165361044Y-85739682D01*
X165211077Y-85849348D01*
X165060142Y-85981485D01*
X164926203Y-86119096D01*
X164827223Y-86245185D01*
X164805322Y-86277045D01*
X164759248Y-86334889D01*
X164730580Y-86357907D01*
X164722534Y-86360436D01*
X164708035Y-86395210D01*
X164702062Y-86422156D01*
X164675487Y-86493072D01*
X164634847Y-86583080D01*
X164584651Y-86701258D01*
X164513424Y-86952058D01*
X164476235Y-87219075D01*
X164475254Y-87482108D01*
X164394441Y-87482108D01*
X164394187Y-87350065D01*
X164396355Y-87190729D01*
X164403133Y-87059431D01*
X164416855Y-86953676D01*
X164439917Y-86855507D01*
X164474719Y-86746964D01*
X164560224Y-86525897D01*
X164656967Y-86327774D01*
X164754363Y-86178662D01*
X164823887Y-86096299D01*
X164909226Y-86003224D01*
X164998136Y-85911995D01*
X165079766Y-85833407D01*
X165143266Y-85778257D01*
X165177787Y-85757341D01*
X165203368Y-85749040D01*
X165250923Y-85709644D01*
X165273305Y-85688475D01*
X165357032Y-85635279D01*
X165476531Y-85577129D01*
X165616372Y-85520529D01*
X165761129Y-85471982D01*
X165895373Y-85437992D01*
X166058168Y-85411750D01*
X166360631Y-85398259D01*
X166659485Y-85434328D01*
X166964541Y-85521533D01*
X167285609Y-85661451D01*
X167299550Y-85668685D01*
X167359122Y-85706316D01*
X167383302Y-85733705D01*
X167393731Y-85746916D01*
X167441646Y-85756929D01*
X167476180Y-85761771D01*
X167518715Y-85787225D01*
X167528564Y-85798185D01*
X167579152Y-85842150D01*
X167660619Y-85906927D01*
X167760962Y-85982825D01*
X167812785Y-86021965D01*
X167900929Y-86092954D01*
X167961785Y-86148119D01*
X167984485Y-86177972D01*
X167987117Y-86188960D01*
X168022059Y-86208430D01*
X168049964Y-86223684D01*
X168112615Y-86274510D01*
X168198085Y-86352519D01*
X168296330Y-86448904D01*
X168381049Y-86533203D01*
X168465658Y-86613827D01*
X168527426Y-86668579D01*
X168556905Y-86688763D01*
X168569968Y-86683094D01*
X168617274Y-86645238D01*
X168680018Y-86583556D01*
X168682128Y-86581326D01*
X168766993Y-86504811D01*
X168827447Y-86478999D01*
X168861211Y-86504878D01*
X168865618Y-86511537D01*
X168905595Y-86552110D01*
X168976931Y-86616029D01*
X169068016Y-86692748D01*
X169184368Y-86788223D01*
X169272203Y-86860712D01*
X169332170Y-86911091D01*
X169335732Y-86914207D01*
X169373894Y-86947593D01*
G37*
G36*
X176870637Y-87512464D02*
G01*
X176829906Y-87867277D01*
X176752281Y-88228633D01*
X176639651Y-88582491D01*
X176628383Y-88611969D01*
X176567639Y-88757157D01*
X176499075Y-88903777D01*
X176430041Y-89037443D01*
X176367885Y-89143768D01*
X176319954Y-89208366D01*
X176299756Y-89232896D01*
X176280817Y-89275999D01*
X176268408Y-89307057D01*
X176228213Y-89359461D01*
X176191514Y-89401305D01*
X176127248Y-89479520D01*
X176055828Y-89570049D01*
X176054956Y-89571175D01*
X175968785Y-89670454D01*
X175858491Y-89781640D01*
X175747721Y-89880876D01*
X175720826Y-89903374D01*
X175638548Y-89975735D01*
X175581035Y-90031838D01*
X175559396Y-90061057D01*
X175555930Y-90070912D01*
X175518983Y-90085450D01*
X175511804Y-90086327D01*
X175458163Y-90111494D01*
X175391232Y-90160561D01*
X175376185Y-90173190D01*
X175315843Y-90217702D01*
X175278475Y-90235709D01*
X175277490Y-90235748D01*
X175235803Y-90253006D01*
X175173267Y-90292188D01*
X175157060Y-90303200D01*
X175023286Y-90375138D01*
X174842673Y-90448938D01*
X174626399Y-90520825D01*
X174385644Y-90587027D01*
X174131586Y-90643771D01*
X174020195Y-90660099D01*
X173828278Y-90672650D01*
X173615081Y-90673265D01*
X173400769Y-90662576D01*
X173205506Y-90641216D01*
X173049456Y-90609818D01*
X172968883Y-90588098D01*
X172845099Y-90557020D01*
X172745692Y-90534597D01*
X172732235Y-90531711D01*
X172601393Y-90492415D01*
X172441864Y-90429448D01*
X172273227Y-90350442D01*
X172253914Y-90340638D01*
X172106406Y-90264196D01*
X171991167Y-90200338D01*
X171888212Y-90137525D01*
X171777556Y-90064214D01*
X171759191Y-90051778D01*
X171669285Y-89992562D01*
X171601947Y-89950900D01*
X171570588Y-89935154D01*
X171570063Y-89935126D01*
X171538071Y-89914635D01*
X171486782Y-89867521D01*
X171476835Y-89857683D01*
X171402052Y-89791201D01*
X171318068Y-89724740D01*
X171261992Y-89678054D01*
X171169478Y-89593289D01*
X171052305Y-89481345D01*
X170919092Y-89350836D01*
X170778457Y-89210376D01*
X170639019Y-89068579D01*
X170509396Y-88934058D01*
X170398208Y-88815427D01*
X170314071Y-88721299D01*
X170311801Y-88718652D01*
X170225425Y-88619102D01*
X170142653Y-88525578D01*
X170081112Y-88458004D01*
X170065118Y-88440302D01*
X170017579Y-88377439D01*
X169998450Y-88334293D01*
X169985776Y-88327615D01*
X169953414Y-88362880D01*
X169948787Y-88369376D01*
X169886910Y-88447919D01*
X169795587Y-88554877D01*
X169686194Y-88677222D01*
X169570106Y-88801924D01*
X169525272Y-88850268D01*
X169476382Y-88907006D01*
X169457385Y-88935141D01*
X169450937Y-88945140D01*
X169409692Y-88990852D01*
X169337306Y-89065357D01*
X169241959Y-89160700D01*
X169131829Y-89268923D01*
X169015096Y-89382068D01*
X168899940Y-89492180D01*
X168794539Y-89591300D01*
X168707074Y-89671472D01*
X168645722Y-89724740D01*
X168595712Y-89765973D01*
X168517279Y-89832338D01*
X168463985Y-89879583D01*
X168422116Y-89911787D01*
X168348163Y-89949242D01*
X168309928Y-89966621D01*
X168285077Y-89994728D01*
X168282294Y-90003321D01*
X168262548Y-90023338D01*
X168217860Y-90054436D01*
X168141240Y-90100986D01*
X168025699Y-90167359D01*
X167864249Y-90257925D01*
X167815798Y-90285585D01*
X167741851Y-90330582D01*
X167700426Y-90359695D01*
X167680894Y-90372042D01*
X167619481Y-90386041D01*
X167610395Y-90386731D01*
X167544664Y-90406842D01*
X167465280Y-90446113D01*
X167446201Y-90456630D01*
X167340958Y-90501260D01*
X167230603Y-90532967D01*
X167153387Y-90550111D01*
X167028244Y-90581074D01*
X166902355Y-90614941D01*
X166875041Y-90622124D01*
X166699914Y-90652128D01*
X166487677Y-90668459D01*
X166256327Y-90671313D01*
X166023858Y-90660889D01*
X165808266Y-90637382D01*
X165627547Y-90600991D01*
X165595608Y-90592404D01*
X165483543Y-90563851D01*
X165395811Y-90543864D01*
X165349172Y-90536337D01*
X165332469Y-90533953D01*
X165266236Y-90513227D01*
X165181140Y-90478134D01*
X165154936Y-90466204D01*
X165045352Y-90416880D01*
X164948509Y-90374010D01*
X164922043Y-90362051D01*
X164812160Y-90306580D01*
X164695889Y-90241111D01*
X164593512Y-90177463D01*
X164525314Y-90127453D01*
X164493581Y-90103331D01*
X164453329Y-90085450D01*
X164451143Y-90085424D01*
X164439588Y-90083146D01*
X164422677Y-90073077D01*
X164394165Y-90049482D01*
X164347807Y-90006629D01*
X164277360Y-89938782D01*
X164176578Y-89840207D01*
X164039219Y-89705172D01*
X164034805Y-89700825D01*
X163934220Y-89598985D01*
X163852011Y-89510664D01*
X163796549Y-89445191D01*
X163776201Y-89411900D01*
X163761509Y-89376778D01*
X163716083Y-89325915D01*
X163677178Y-89281750D01*
X163655964Y-89229058D01*
X163653327Y-89208134D01*
X163632694Y-89183675D01*
X163613684Y-89164494D01*
X163573993Y-89101054D01*
X163521066Y-89004608D01*
X163460902Y-88886934D01*
X163399496Y-88759810D01*
X163342847Y-88635011D01*
X163296951Y-88524317D01*
X163260271Y-88417965D01*
X163203277Y-88205985D01*
X163154191Y-87966394D01*
X163116936Y-87719430D01*
X163095439Y-87485331D01*
X163093226Y-87439693D01*
X163091536Y-87284907D01*
X163097236Y-87182239D01*
X163187723Y-87182239D01*
X163190614Y-87577493D01*
X163239056Y-87970328D01*
X163330786Y-88346235D01*
X163463545Y-88690702D01*
X163493253Y-88755562D01*
X163523862Y-88827765D01*
X163535728Y-88863816D01*
X163541954Y-88880232D01*
X163574771Y-88939121D01*
X163628504Y-89026941D01*
X163694912Y-89131045D01*
X163765753Y-89238782D01*
X163832784Y-89337504D01*
X163887764Y-89414562D01*
X163922451Y-89457307D01*
X163945785Y-89481650D01*
X164006123Y-89549351D01*
X164074627Y-89630147D01*
X164116454Y-89678769D01*
X164169142Y-89733502D01*
X164198174Y-89754799D01*
X164213577Y-89762244D01*
X164263872Y-89800865D01*
X164331699Y-89861390D01*
X164338197Y-89867473D01*
X164514431Y-90009018D01*
X164737286Y-90152229D01*
X164994511Y-90289908D01*
X165273854Y-90414856D01*
X165316837Y-90430485D01*
X165451539Y-90468404D01*
X165621365Y-90506284D01*
X165808974Y-90541074D01*
X165997020Y-90569720D01*
X166168160Y-90589169D01*
X166305051Y-90596370D01*
X166381173Y-90593166D01*
X166518411Y-90579628D01*
X166678631Y-90558006D01*
X166845265Y-90531039D01*
X167001746Y-90501464D01*
X167131505Y-90472021D01*
X167217976Y-90445449D01*
X167242673Y-90435366D01*
X167344511Y-90394072D01*
X167414766Y-90366528D01*
X167473584Y-90345029D01*
X167541112Y-90321872D01*
X167564613Y-90313493D01*
X167628280Y-90285089D01*
X167653834Y-90263850D01*
X167660939Y-90254719D01*
X167708747Y-90226761D01*
X167786733Y-90193159D01*
X167825473Y-90177166D01*
X167906790Y-90135536D01*
X167955739Y-90098897D01*
X167981277Y-90077225D01*
X168048284Y-90055391D01*
X168079691Y-90050689D01*
X168104722Y-90027783D01*
X168108798Y-90017988D01*
X168148719Y-89979497D01*
X168217444Y-89932431D01*
X168288812Y-89885543D01*
X168392274Y-89810793D01*
X168495491Y-89730598D01*
X168554192Y-89680308D01*
X168666091Y-89577460D01*
X168804167Y-89445212D01*
X168959874Y-89292224D01*
X169124666Y-89127151D01*
X169289995Y-88958652D01*
X169447317Y-88795384D01*
X169588084Y-88646004D01*
X169703750Y-88519169D01*
X169785769Y-88423538D01*
X169816131Y-88386648D01*
X169890244Y-88302366D01*
X169948781Y-88243805D01*
X169981154Y-88221893D01*
X169984305Y-88222501D01*
X170022310Y-88250968D01*
X170083422Y-88313501D01*
X170155997Y-88398353D01*
X170216589Y-88472406D01*
X170283538Y-88551357D01*
X170356550Y-88633704D01*
X170442882Y-88727300D01*
X170549792Y-88840002D01*
X170684538Y-88979662D01*
X170854378Y-89154136D01*
X170902746Y-89203327D01*
X171054003Y-89352847D01*
X171204779Y-89496121D01*
X171348132Y-89627045D01*
X171477117Y-89739513D01*
X171584793Y-89827421D01*
X171664215Y-89884662D01*
X171708441Y-89905131D01*
X171713025Y-89906303D01*
X171753513Y-89931843D01*
X171814190Y-89980279D01*
X171827974Y-89991727D01*
X171894195Y-90037032D01*
X171941942Y-90055391D01*
X171958237Y-90057312D01*
X171982545Y-90077935D01*
X171985174Y-90084685D01*
X172021657Y-90117625D01*
X172083759Y-90157660D01*
X172149226Y-90191458D01*
X172195803Y-90205686D01*
X172209723Y-90209144D01*
X172266488Y-90236030D01*
X172343065Y-90280834D01*
X172378075Y-90301566D01*
X172459582Y-90340524D01*
X172517813Y-90355982D01*
X172549423Y-90358937D01*
X172594119Y-90376583D01*
X172599047Y-90381007D01*
X172667645Y-90416242D01*
X172789082Y-90455238D01*
X172957193Y-90496258D01*
X173165813Y-90537568D01*
X173259680Y-90553086D01*
X173423127Y-90574764D01*
X173575070Y-90589075D01*
X173691848Y-90593502D01*
X173834342Y-90585528D01*
X174015862Y-90564827D01*
X174207486Y-90534656D01*
X174391679Y-90498156D01*
X174550905Y-90458467D01*
X174667628Y-90418731D01*
X174723052Y-90395649D01*
X174799298Y-90367124D01*
X174841066Y-90355982D01*
X174854973Y-90352524D01*
X174911709Y-90325638D01*
X174988272Y-90280834D01*
X175025250Y-90258286D01*
X175094719Y-90220585D01*
X175134545Y-90205686D01*
X175146165Y-90202963D01*
X175200447Y-90175630D01*
X175278657Y-90127314D01*
X175365722Y-90068436D01*
X175446572Y-90009421D01*
X175506134Y-89960690D01*
X175529337Y-89932667D01*
X175534159Y-89920208D01*
X175573733Y-89905095D01*
X175618299Y-89884016D01*
X175667368Y-89829947D01*
X175711308Y-89777466D01*
X175750723Y-89754149D01*
X175765339Y-89748807D01*
X175814676Y-89709536D01*
X175875018Y-89644759D01*
X175897657Y-89617723D01*
X175968108Y-89536126D01*
X176025314Y-89473125D01*
X176071975Y-89419919D01*
X176115491Y-89360852D01*
X176141115Y-89320358D01*
X176191724Y-89242437D01*
X176252683Y-89149881D01*
X176258198Y-89141535D01*
X176336857Y-89016193D01*
X176401413Y-88902061D01*
X176445105Y-88811838D01*
X176461172Y-88758228D01*
X176460900Y-88756324D01*
X176430007Y-88739254D01*
X176363479Y-88731580D01*
X176346141Y-88730571D01*
X176245302Y-88708951D01*
X176122267Y-88666038D01*
X176000257Y-88610857D01*
X175902493Y-88552432D01*
X175883175Y-88536090D01*
X175822282Y-88470022D01*
X175760273Y-88387644D01*
X175737204Y-88351631D01*
X175701114Y-88275189D01*
X175683977Y-88188144D01*
X175679633Y-88065922D01*
X175683687Y-87962548D01*
X175696237Y-87857290D01*
X175714325Y-87787759D01*
X175756667Y-87722011D01*
X175850364Y-87649817D01*
X175963271Y-87616653D01*
X176078206Y-87626402D01*
X176177987Y-87682950D01*
X176217486Y-87733838D01*
X176250696Y-87840673D01*
X176241605Y-87953782D01*
X176189476Y-88049600D01*
X176144763Y-88108476D01*
X176107205Y-88219880D01*
X176126446Y-88330048D01*
X176134144Y-88346440D01*
X176160276Y-88387266D01*
X176199295Y-88412778D01*
X176266829Y-88430216D01*
X176378509Y-88446823D01*
X176436975Y-88455417D01*
X176494383Y-88472251D01*
X176517424Y-88503480D01*
X176521924Y-88561789D01*
X176525195Y-88600384D01*
X176536799Y-88598510D01*
X176559975Y-88549089D01*
X176597973Y-88447225D01*
X176683379Y-88159261D01*
X176749899Y-87791314D01*
X176777348Y-87411479D01*
X176765551Y-87033998D01*
X176714336Y-86673118D01*
X176623531Y-86343083D01*
X176599893Y-86280057D01*
X176537910Y-86130562D01*
X176464468Y-85967858D01*
X176387811Y-85809280D01*
X176316180Y-85672167D01*
X176257819Y-85573854D01*
X176243916Y-85553079D01*
X176187715Y-85468939D01*
X176127065Y-85377982D01*
X176108083Y-85350645D01*
X176003977Y-85221502D01*
X175868977Y-85076222D01*
X175717944Y-84929419D01*
X175565736Y-84795707D01*
X175427212Y-84689698D01*
X175371904Y-84652675D01*
X175269028Y-84587361D01*
X175164239Y-84524065D01*
X175074890Y-84473171D01*
X175018331Y-84445060D01*
X174990198Y-84433326D01*
X174915472Y-84400184D01*
X174822947Y-84357789D01*
X174771035Y-84334352D01*
X174549339Y-84251109D01*
X174316711Y-84193141D01*
X174057447Y-84157246D01*
X173755846Y-84140223D01*
X173681986Y-84138421D01*
X173515120Y-84136685D01*
X173377820Y-84141179D01*
X173252665Y-84154144D01*
X173122234Y-84177820D01*
X172969108Y-84214448D01*
X172775867Y-84266269D01*
X172731229Y-84279474D01*
X172604115Y-84323990D01*
X172492174Y-84371351D01*
X172449448Y-84391365D01*
X172376671Y-84422184D01*
X172336822Y-84434325D01*
X172323695Y-84437846D01*
X172268559Y-84464751D01*
X172192769Y-84509473D01*
X172156826Y-84531015D01*
X172080605Y-84569413D01*
X172030546Y-84584621D01*
X172011924Y-84586736D01*
X171977345Y-84608446D01*
X171968839Y-84618851D01*
X171920791Y-84656471D01*
X171847089Y-84703962D01*
X171814522Y-84723823D01*
X171734792Y-84775970D01*
X171681763Y-84815583D01*
X171659951Y-84834036D01*
X171594617Y-84887425D01*
X171502526Y-84961557D01*
X171396201Y-85046314D01*
X171385217Y-85055078D01*
X171284874Y-85138367D01*
X171170225Y-85238010D01*
X171049802Y-85346047D01*
X170932139Y-85454514D01*
X170825770Y-85555450D01*
X170739226Y-85640893D01*
X170681042Y-85702882D01*
X170659751Y-85733453D01*
X170659155Y-85735540D01*
X170633538Y-85769709D01*
X170577662Y-85832650D01*
X170501941Y-85912544D01*
X170469389Y-85946183D01*
X170346096Y-86077008D01*
X170234339Y-86200650D01*
X170141815Y-86308229D01*
X170076216Y-86390865D01*
X170045236Y-86439675D01*
X170024740Y-86468686D01*
X169988550Y-86468351D01*
X169933155Y-86430209D01*
X169853323Y-86350545D01*
X169743822Y-86225645D01*
X169555711Y-86009317D01*
X169212063Y-85641564D01*
X168870385Y-85310079D01*
X168540580Y-85024747D01*
X168504213Y-84995348D01*
X168401633Y-84912220D01*
X168314212Y-84841097D01*
X168257771Y-84794844D01*
X168195426Y-84752856D01*
X168145049Y-84734917D01*
X168128773Y-84732686D01*
X168104722Y-84708844D01*
X168082543Y-84688823D01*
X168016176Y-84648410D01*
X167916669Y-84593872D01*
X167795203Y-84530786D01*
X167662958Y-84464730D01*
X167531116Y-84401281D01*
X167410857Y-84346019D01*
X167313363Y-84304519D01*
X167249815Y-84282361D01*
X167240410Y-84280012D01*
X167159130Y-84259208D01*
X167045167Y-84229549D01*
X166920091Y-84196643D01*
X166902946Y-84192273D01*
X166728091Y-84160565D01*
X166519831Y-84140278D01*
X166296596Y-84131686D01*
X166076816Y-84135064D01*
X165878918Y-84150685D01*
X165721333Y-84178823D01*
X165706621Y-84182689D01*
X165525518Y-84230841D01*
X165389196Y-84268814D01*
X165285004Y-84300733D01*
X165200289Y-84330724D01*
X165122401Y-84362913D01*
X165038686Y-84401424D01*
X164869197Y-84485539D01*
X164721112Y-84566449D01*
X164606608Y-84637240D01*
X164536698Y-84691546D01*
X164507773Y-84715833D01*
X164466464Y-84734917D01*
X164462427Y-84735962D01*
X164421953Y-84765106D01*
X164352098Y-84827355D01*
X164261981Y-84913406D01*
X164160717Y-85013956D01*
X164057423Y-85119704D01*
X163961213Y-85221347D01*
X163881206Y-85309581D01*
X163826516Y-85375105D01*
X163806260Y-85408617D01*
X163799546Y-85435414D01*
X163761634Y-85486013D01*
X163745160Y-85503273D01*
X163699198Y-85569073D01*
X163651098Y-85655019D01*
X163627222Y-85699866D01*
X163587047Y-85762432D01*
X163560459Y-85786988D01*
X163548283Y-85793320D01*
X163535728Y-85835524D01*
X163531277Y-85861071D01*
X163505523Y-85934195D01*
X163464469Y-86023394D01*
X163453255Y-86045904D01*
X163371673Y-86245889D01*
X163299315Y-86485337D01*
X163241013Y-86746104D01*
X163201601Y-87010048D01*
X163187723Y-87182239D01*
X163097236Y-87182239D01*
X163100336Y-87126411D01*
X163121115Y-86950677D01*
X163155362Y-86744176D01*
X163204564Y-86493379D01*
X163222764Y-86419669D01*
X163268466Y-86272894D01*
X163327688Y-86108691D01*
X163392224Y-85949322D01*
X163453869Y-85817047D01*
X163510849Y-85714120D01*
X163587286Y-85587198D01*
X163671775Y-85454530D01*
X163754847Y-85330601D01*
X163827032Y-85229899D01*
X163878862Y-85166909D01*
X163931102Y-85112014D01*
X163990263Y-85046672D01*
X164057316Y-84975502D01*
X164152187Y-84885012D01*
X164258663Y-84790454D01*
X164365759Y-84700978D01*
X164462492Y-84625737D01*
X164537877Y-84573881D01*
X164580929Y-84554562D01*
X164599076Y-84549729D01*
X164643246Y-84515102D01*
X164643266Y-84515078D01*
X164685670Y-84482328D01*
X164765272Y-84434433D01*
X164864855Y-84381752D01*
X164871838Y-84378292D01*
X165248342Y-84223166D01*
X165644297Y-84117248D01*
X166050942Y-84060699D01*
X166459514Y-84053679D01*
X166861252Y-84096349D01*
X167247394Y-84188870D01*
X167609177Y-84331402D01*
X167671835Y-84360601D01*
X167746624Y-84392051D01*
X167786695Y-84404266D01*
X167794887Y-84406069D01*
X167844064Y-84432164D01*
X167912009Y-84479414D01*
X167934594Y-84496252D01*
X167996164Y-84537893D01*
X168030561Y-84554562D01*
X168046703Y-84559726D01*
X168103399Y-84590386D01*
X168183188Y-84639975D01*
X168271176Y-84698466D01*
X168352466Y-84755832D01*
X168412164Y-84802044D01*
X168435373Y-84827076D01*
X168439795Y-84838446D01*
X168478762Y-84860465D01*
X168493509Y-84865631D01*
X168563632Y-84909837D01*
X168666503Y-84992737D01*
X168797021Y-85109309D01*
X168950083Y-85254531D01*
X169120587Y-85423383D01*
X169303432Y-85610843D01*
X169493515Y-85811889D01*
X169685735Y-86021500D01*
X169874989Y-86234655D01*
X169976971Y-86351536D01*
X170077888Y-86250619D01*
X170109387Y-86217735D01*
X170159172Y-86158041D01*
X170178805Y-86122098D01*
X170200313Y-86088720D01*
X170253953Y-86045255D01*
X170306459Y-86003009D01*
X170329101Y-85968622D01*
X170329101Y-85968595D01*
X170349817Y-85937266D01*
X170406926Y-85871897D01*
X170493169Y-85779748D01*
X170601286Y-85668079D01*
X170724016Y-85544152D01*
X170854101Y-85415228D01*
X170984281Y-85288566D01*
X171107297Y-85171428D01*
X171215888Y-85071075D01*
X171302794Y-84994768D01*
X171309981Y-84988761D01*
X171414844Y-84905779D01*
X171541073Y-84812405D01*
X171678724Y-84715252D01*
X171817859Y-84620933D01*
X171948535Y-84536061D01*
X172060813Y-84467251D01*
X172144750Y-84421115D01*
X172190407Y-84404266D01*
X172196342Y-84403511D01*
X172247143Y-84383864D01*
X172318803Y-84345920D01*
X172375454Y-84315883D01*
X172542376Y-84247919D01*
X172747718Y-84184504D01*
X172976348Y-84129059D01*
X173213133Y-84085005D01*
X173442940Y-84055765D01*
X173650639Y-84044759D01*
X173837315Y-84050923D01*
X174155554Y-84087810D01*
X174477120Y-84153984D01*
X174781552Y-84244890D01*
X175048391Y-84355974D01*
X175072904Y-84368564D01*
X175170199Y-84422879D01*
X175286954Y-84492301D01*
X175405179Y-84565731D01*
X175506883Y-84632072D01*
X175574073Y-84680227D01*
X175611224Y-84711145D01*
X175687474Y-84777361D01*
X175774757Y-84855195D01*
X175858967Y-84931890D01*
X175925996Y-84994686D01*
X175961737Y-85030825D01*
X176003805Y-85077828D01*
X176062888Y-85139479D01*
X176064321Y-85140932D01*
X176111125Y-85197313D01*
X176130521Y-85238175D01*
X176139592Y-85263269D01*
X176179698Y-85309434D01*
X176184045Y-85313239D01*
X176236066Y-85374521D01*
X176306491Y-85476454D01*
X176387876Y-85607145D01*
X176472779Y-85754700D01*
X176553757Y-85907225D01*
X176561972Y-85923829D01*
X176628976Y-86085500D01*
X176696113Y-86289035D01*
X176758945Y-86518415D01*
X176813034Y-86757623D01*
X176853943Y-86990643D01*
X176872582Y-87178235D01*
X176871225Y-87411479D01*
X176870637Y-87512464D01*
G37*
%TD*%
%LPC*%
D12*
%TO.C,J1*%
X119470000Y-90930000D03*
X119470000Y-96710000D03*
D13*
X120000000Y-89500000D03*
D14*
X115820000Y-89500000D03*
D13*
X120000000Y-98140000D03*
D14*
X115820000Y-98140000D03*
%TD*%
D15*
%TO.C,J2*%
X116751100Y-129133600D03*
D16*
X116751100Y-126593600D03*
X116751100Y-124053600D03*
%TD*%
D17*
%TO.C,NRST0*%
X123329700Y-123317000D03*
%TD*%
D18*
%TO.C,B1*%
X128041093Y-129133600D03*
X129311093Y-80873600D03*
X180111093Y-96113600D03*
X180111093Y-124053600D03*
D19*
X149631093Y-129133600D03*
X152171093Y-129133600D03*
X169951093Y-129133600D03*
X164871093Y-129133600D03*
X137947093Y-80873600D03*
X154711093Y-129133600D03*
X157251093Y-129133600D03*
X140487093Y-80873600D03*
X180251099Y-113943612D03*
X155727093Y-80873600D03*
X153187093Y-80873600D03*
X150647093Y-80873600D03*
X148107093Y-80873600D03*
X145567093Y-80873600D03*
X143027093Y-80873600D03*
X135407093Y-80873600D03*
X132867093Y-80873600D03*
X172491093Y-129133600D03*
X175031093Y-129133600D03*
X144551093Y-129133600D03*
X142011093Y-129133600D03*
X167411093Y-129133600D03*
X177571093Y-80873600D03*
X175031093Y-80873600D03*
X172491093Y-80873600D03*
X169951093Y-80873600D03*
X167411093Y-80873600D03*
X164871093Y-80873600D03*
X162331093Y-80873600D03*
X159791093Y-80873600D03*
X177571093Y-129133600D03*
X147091093Y-129133600D03*
X180251099Y-103783613D03*
X180251099Y-108863612D03*
X180251099Y-111403612D03*
X180251099Y-106323612D03*
X180251099Y-101243613D03*
X159791093Y-129133600D03*
%TD*%
D17*
%TO.C,PL3C0*%
X165138100Y-118389400D03*
%TD*%
%LPD*%
M02*
